%TF.GenerationSoftware,KiCad,Pcbnew,10.0.4*%
%TF.CreationDate,2026-07-28T02:35:38+02:00*%
%TF.ProjectId,ArduinoUnoProtoShield,41726475-696e-46f5-956e-6f50726f746f,rev?*%
%TF.SameCoordinates,Original*%
%TF.FileFunction,Copper,L2,Inr*%
%TF.FilePolarity,Positive*%
%FSLAX46Y46*%
G04 Gerber Fmt 4.6, Leading zero omitted, Abs format (unit mm)*
G04 Created by KiCad (PCBNEW 10.0.4) date 2026-07-28 02:35:38*
%MOMM*%
%LPD*%
G01*
G04 APERTURE LIST*
G04 Aperture macros list*
%AMRoundRect*
0 Rectangle with rounded corners*
0 $1 Rounding radius*
0 $2 $3 $4 $5 $6 $7 $8 $9 X,Y pos of 4 corners*
0 Add a 4 corners polygon primitive as box body*
4,1,4,$2,$3,$4,$5,$6,$7,$8,$9,$2,$3,0*
0 Add four circle primitives for the rounded corners*
1,1,$1+$1,$2,$3*
1,1,$1+$1,$4,$5*
1,1,$1+$1,$6,$7*
1,1,$1+$1,$8,$9*
0 Add four rect primitives between the rounded corners*
20,1,$1+$1,$2,$3,$4,$5,0*
20,1,$1+$1,$4,$5,$6,$7,0*
20,1,$1+$1,$6,$7,$8,$9,0*
20,1,$1+$1,$8,$9,$2,$3,0*%
G04 Aperture macros list end*
%TA.AperFunction,ComponentPad*%
%ADD10R,1.700000X1.700000*%
%TD*%
%TA.AperFunction,ComponentPad*%
%ADD11C,1.700000*%
%TD*%
%TA.AperFunction,ComponentPad*%
%ADD12R,2.000000X2.000000*%
%TD*%
%TA.AperFunction,ComponentPad*%
%ADD13C,2.000000*%
%TD*%
%TA.AperFunction,ComponentPad*%
%ADD14C,1.600000*%
%TD*%
%TA.AperFunction,ComponentPad*%
%ADD15R,1.800000X1.800000*%
%TD*%
%TA.AperFunction,ComponentPad*%
%ADD16C,1.800000*%
%TD*%
%TA.AperFunction,ComponentPad*%
%ADD17RoundRect,0.250000X-0.550000X-0.550000X0.550000X-0.550000X0.550000X0.550000X-0.550000X0.550000X0*%
%TD*%
%TA.AperFunction,ViaPad*%
%ADD18C,0.600000*%
%TD*%
G04 APERTURE END LIST*
D10*
%TO.N,A0*%
%TO.C,CN_AD*%
X42000000Y-49800000D03*
D11*
%TO.N,A1*%
X44540000Y-49800000D03*
%TO.N,A2*%
X47080000Y-49800000D03*
%TO.N,A3*%
X49620000Y-49800000D03*
%TO.N,A4*%
X52160000Y-49800000D03*
%TO.N,A5*%
X54700000Y-49800000D03*
%TD*%
D10*
%TO.N,N/C*%
%TO.C,J_PROTO4*%
X35620000Y-13000000D03*
D11*
X35620000Y-15540000D03*
X35620000Y-18080000D03*
X35620000Y-20620000D03*
X35620000Y-23160000D03*
X35620000Y-25700000D03*
X35620000Y-28240000D03*
X35620000Y-30780000D03*
X35620000Y-33320000D03*
X35620000Y-35860000D03*
X35620000Y-38400000D03*
X35620000Y-40940000D03*
%TD*%
D12*
%TO.N,BZ_SIG*%
%TO.C,BZ1*%
X46000000Y-12000000D03*
D13*
%TO.N,GND*%
X53600000Y-12000000D03*
%TD*%
D10*
%TO.N,D0*%
%TO.C,CN_DIG_L*%
X19000000Y-3500000D03*
D11*
%TO.N,D1*%
X21540000Y-3500000D03*
%TO.N,D2*%
X24080000Y-3500000D03*
%TO.N,D3*%
X26620000Y-3500000D03*
%TO.N,D4*%
X29160000Y-3500000D03*
%TO.N,D5*%
X31700000Y-3500000D03*
%TO.N,D6*%
X34240000Y-3500000D03*
%TO.N,D7*%
X36780000Y-3500000D03*
%TD*%
D14*
%TO.N,+5V*%
%TO.C,R1*%
X3000000Y-16000000D03*
%TO.N,LED1_A*%
X10620000Y-16000000D03*
%TD*%
D15*
%TO.N,GND*%
%TO.C,D2*%
X16600000Y-25000000D03*
D16*
%TO.N,LED2_A*%
X14060000Y-25000000D03*
%TD*%
D15*
%TO.N,GND*%
%TO.C,D1*%
X16600000Y-16000000D03*
D16*
%TO.N,LED1_A*%
X14060000Y-16000000D03*
%TD*%
D14*
%TO.N,+5V*%
%TO.C,C1*%
X3000000Y-31000000D03*
%TO.N,GND*%
X8000000Y-31000000D03*
%TD*%
%TO.N,+3V3*%
%TO.C,C2*%
X3000000Y-37000000D03*
%TO.N,GND*%
X8000000Y-37000000D03*
%TD*%
D10*
%TO.N,GND*%
%TO.C,J_I2C*%
X3000000Y-44000000D03*
D11*
%TO.N,+5V*%
X5540000Y-44000000D03*
%TO.N,A4*%
X8080000Y-44000000D03*
%TO.N,A5*%
X10620000Y-44000000D03*
%TD*%
D14*
%TO.N,D9*%
%TO.C,R2*%
X3000000Y-25000000D03*
%TO.N,LED2_A*%
X10620000Y-25000000D03*
%TD*%
D17*
%TO.N,+5V*%
%TO.C,C3*%
X14000000Y-33000000D03*
D14*
%TO.N,GND*%
X16000000Y-33000000D03*
%TD*%
D10*
%TO.N,N/C*%
%TO.C,J_PROTO2*%
X30540000Y-13000000D03*
D11*
X30540000Y-15540000D03*
X30540000Y-18080000D03*
X30540000Y-20620000D03*
X30540000Y-23160000D03*
X30540000Y-25700000D03*
X30540000Y-28240000D03*
X30540000Y-30780000D03*
X30540000Y-33320000D03*
X30540000Y-35860000D03*
X30540000Y-38400000D03*
X30540000Y-40940000D03*
%TD*%
D10*
%TO.N,N/C*%
%TO.C,J_PROTO3*%
X33080000Y-13000000D03*
D11*
X33080000Y-15540000D03*
X33080000Y-18080000D03*
X33080000Y-20620000D03*
X33080000Y-23160000D03*
X33080000Y-25700000D03*
X33080000Y-28240000D03*
X33080000Y-30780000D03*
X33080000Y-33320000D03*
X33080000Y-35860000D03*
X33080000Y-38400000D03*
X33080000Y-40940000D03*
%TD*%
D13*
%TO.N,RESET*%
%TO.C,S1*%
X3000000Y-8000000D03*
X9500000Y-8000000D03*
%TO.N,GND*%
X3000000Y-12500000D03*
X9500000Y-12500000D03*
%TD*%
D10*
%TO.N,D8*%
%TO.C,CN_DIG_H*%
X40840000Y-3500000D03*
D11*
%TO.N,D9*%
X43380000Y-3500000D03*
%TO.N,D10*%
X45920000Y-3500000D03*
%TO.N,D11*%
X48460000Y-3500000D03*
%TO.N,D12*%
X51000000Y-3500000D03*
%TO.N,D13*%
X53540000Y-3500000D03*
%TO.N,GND*%
X56080000Y-3500000D03*
%TO.N,AREF*%
X58620000Y-3500000D03*
%TO.N,A4*%
X61160000Y-3500000D03*
%TO.N,A5*%
X63700000Y-3500000D03*
%TD*%
D10*
%TO.N,N/C*%
%TO.C,J_PROTO1*%
X28000000Y-13000000D03*
D11*
X28000000Y-15540000D03*
X28000000Y-18080000D03*
X28000000Y-20620000D03*
X28000000Y-23160000D03*
X28000000Y-25700000D03*
X28000000Y-28240000D03*
X28000000Y-30780000D03*
X28000000Y-33320000D03*
X28000000Y-35860000D03*
X28000000Y-38400000D03*
X28000000Y-40940000D03*
%TD*%
D10*
%TO.N,N/C*%
%TO.C,CN_PWR*%
X19000000Y-49800000D03*
D11*
%TO.N,IOREF*%
X21540000Y-49800000D03*
%TO.N,RESET*%
X24080000Y-49800000D03*
%TO.N,+3V3*%
X26620000Y-49800000D03*
%TO.N,+5V*%
X29160000Y-49800000D03*
%TO.N,GND*%
X31700000Y-49800000D03*
X34240000Y-49800000D03*
%TO.N,VIN*%
X36780000Y-49800000D03*
%TD*%
D10*
%TO.N,GND*%
%TO.C,J_SPI*%
X46000000Y-30000000D03*
D11*
%TO.N,+5V*%
X48540000Y-30000000D03*
%TO.N,D13*%
X51080000Y-30000000D03*
%TO.N,D12*%
X53620000Y-30000000D03*
%TO.N,D11*%
X56160000Y-30000000D03*
%TO.N,D10*%
X58700000Y-30000000D03*
%TD*%
D10*
%TO.N,D6*%
%TO.C,JP1*%
X44000000Y-22000000D03*
D11*
%TO.N,BZ_SIG*%
X46540000Y-22000000D03*
%TD*%
D18*
%TO.N,D10*%
X48410300Y-22190800D03*
%TO.N,D11*%
X49258100Y-25163100D03*
%TO.N,D13*%
X52704200Y-27668000D03*
%TD*%
%TA.AperFunction,Conductor*%
%TO.N,GND*%
G36*
X13378470Y-618907D02*
G01*
X13414434Y-668407D01*
X13414434Y-729593D01*
X13378470Y-779093D01*
X13358164Y-790464D01*
X13149795Y-876772D01*
X12939707Y-998066D01*
X12747268Y-1145729D01*
X12575729Y-1317268D01*
X12428066Y-1509707D01*
X12306772Y-1719795D01*
X12213948Y-1943894D01*
X12213944Y-1943907D01*
X12151161Y-2178213D01*
X12151161Y-2178218D01*
X12119500Y-2418710D01*
X12119500Y-2661289D01*
X12151161Y-2901781D01*
X12151161Y-2901786D01*
X12151162Y-2901789D01*
X12204246Y-3099901D01*
X12213944Y-3136092D01*
X12213948Y-3136105D01*
X12306772Y-3360204D01*
X12306774Y-3360208D01*
X12306776Y-3360212D01*
X12428064Y-3570289D01*
X12428066Y-3570292D01*
X12575729Y-3762731D01*
X12575731Y-3762733D01*
X12575735Y-3762738D01*
X12747262Y-3934265D01*
X12747266Y-3934268D01*
X12747268Y-3934270D01*
X12856665Y-4018213D01*
X12939711Y-4081936D01*
X13149788Y-4203224D01*
X13149794Y-4203226D01*
X13149795Y-4203227D01*
X13186406Y-4218391D01*
X13373900Y-4296054D01*
X13608211Y-4358838D01*
X13848712Y-4390500D01*
X13848713Y-4390500D01*
X14091287Y-4390500D01*
X14091288Y-4390500D01*
X14331789Y-4358838D01*
X14566100Y-4296054D01*
X14790212Y-4203224D01*
X15000289Y-4081936D01*
X15192738Y-3934265D01*
X15364265Y-3762738D01*
X15511936Y-3570289D01*
X15633224Y-3360212D01*
X15726054Y-3136100D01*
X15788838Y-2901789D01*
X15820500Y-2661288D01*
X15820500Y-2605130D01*
X17849500Y-2605130D01*
X17849500Y-4394860D01*
X17849501Y-4394863D01*
X17852414Y-4419990D01*
X17877756Y-4477385D01*
X17897794Y-4522765D01*
X17977235Y-4602206D01*
X18080009Y-4647585D01*
X18105135Y-4650500D01*
X19894864Y-4650499D01*
X19919991Y-4647585D01*
X20022765Y-4602206D01*
X20102206Y-4522765D01*
X20147585Y-4419991D01*
X20150500Y-4394865D01*
X20150499Y-3409450D01*
X20389500Y-3409450D01*
X20389500Y-3590549D01*
X20417828Y-3769406D01*
X20473788Y-3941637D01*
X20545272Y-4081933D01*
X20556004Y-4102994D01*
X20662447Y-4249501D01*
X20790499Y-4377553D01*
X20937006Y-4483996D01*
X21098361Y-4566211D01*
X21270591Y-4622171D01*
X21342136Y-4633502D01*
X21449451Y-4650500D01*
X21449454Y-4650500D01*
X21630549Y-4650500D01*
X21719977Y-4636335D01*
X21809409Y-4622171D01*
X21981639Y-4566211D01*
X22142994Y-4483996D01*
X22289501Y-4377553D01*
X22417553Y-4249501D01*
X22523996Y-4102994D01*
X22606211Y-3941639D01*
X22662171Y-3769409D01*
X22690500Y-3590546D01*
X22690500Y-3409454D01*
X22690500Y-3409450D01*
X22929500Y-3409450D01*
X22929500Y-3590549D01*
X22957828Y-3769406D01*
X23013788Y-3941637D01*
X23085272Y-4081933D01*
X23096004Y-4102994D01*
X23202447Y-4249501D01*
X23330499Y-4377553D01*
X23477006Y-4483996D01*
X23638361Y-4566211D01*
X23810591Y-4622171D01*
X23882136Y-4633502D01*
X23989451Y-4650500D01*
X23989454Y-4650500D01*
X24170549Y-4650500D01*
X24259977Y-4636335D01*
X24349409Y-4622171D01*
X24521639Y-4566211D01*
X24682994Y-4483996D01*
X24829501Y-4377553D01*
X24957553Y-4249501D01*
X25063996Y-4102994D01*
X25146211Y-3941639D01*
X25202171Y-3769409D01*
X25230500Y-3590546D01*
X25230500Y-3409454D01*
X25230500Y-3409450D01*
X25469500Y-3409450D01*
X25469500Y-3590549D01*
X25497828Y-3769406D01*
X25553788Y-3941637D01*
X25625272Y-4081933D01*
X25636004Y-4102994D01*
X25742447Y-4249501D01*
X25870499Y-4377553D01*
X26017006Y-4483996D01*
X26178361Y-4566211D01*
X26350591Y-4622171D01*
X26422136Y-4633502D01*
X26529451Y-4650500D01*
X26529454Y-4650500D01*
X26710549Y-4650500D01*
X26799977Y-4636335D01*
X26889409Y-4622171D01*
X27061639Y-4566211D01*
X27222994Y-4483996D01*
X27369501Y-4377553D01*
X27497553Y-4249501D01*
X27603996Y-4102994D01*
X27686211Y-3941639D01*
X27742171Y-3769409D01*
X27770500Y-3590546D01*
X27770500Y-3409454D01*
X27770500Y-3409450D01*
X28009500Y-3409450D01*
X28009500Y-3590549D01*
X28037828Y-3769406D01*
X28093788Y-3941637D01*
X28165272Y-4081933D01*
X28176004Y-4102994D01*
X28282447Y-4249501D01*
X28410499Y-4377553D01*
X28557006Y-4483996D01*
X28718361Y-4566211D01*
X28890591Y-4622171D01*
X28962136Y-4633502D01*
X29069451Y-4650500D01*
X29069454Y-4650500D01*
X29250549Y-4650500D01*
X29339977Y-4636335D01*
X29429409Y-4622171D01*
X29601639Y-4566211D01*
X29762994Y-4483996D01*
X29909501Y-4377553D01*
X30037553Y-4249501D01*
X30143996Y-4102994D01*
X30226211Y-3941639D01*
X30282171Y-3769409D01*
X30310500Y-3590546D01*
X30310500Y-3409454D01*
X30310500Y-3409450D01*
X30549500Y-3409450D01*
X30549500Y-3590549D01*
X30577828Y-3769406D01*
X30633788Y-3941637D01*
X30705272Y-4081933D01*
X30716004Y-4102994D01*
X30822447Y-4249501D01*
X30950499Y-4377553D01*
X31097006Y-4483996D01*
X31258361Y-4566211D01*
X31430591Y-4622171D01*
X31502136Y-4633502D01*
X31609451Y-4650500D01*
X31609454Y-4650500D01*
X31790549Y-4650500D01*
X31879977Y-4636335D01*
X31969409Y-4622171D01*
X32141639Y-4566211D01*
X32302994Y-4483996D01*
X32449501Y-4377553D01*
X32577553Y-4249501D01*
X32683996Y-4102994D01*
X32766211Y-3941639D01*
X32822171Y-3769409D01*
X32850500Y-3590546D01*
X32850500Y-3409454D01*
X32850500Y-3409450D01*
X33089500Y-3409450D01*
X33089500Y-3590549D01*
X33117828Y-3769406D01*
X33173788Y-3941637D01*
X33245272Y-4081933D01*
X33256004Y-4102994D01*
X33362447Y-4249501D01*
X33490499Y-4377553D01*
X33637006Y-4483996D01*
X33798361Y-4566211D01*
X33970591Y-4622171D01*
X34042136Y-4633502D01*
X34149451Y-4650500D01*
X34149454Y-4650500D01*
X34330549Y-4650500D01*
X34419977Y-4636335D01*
X34509409Y-4622171D01*
X34681639Y-4566211D01*
X34842994Y-4483996D01*
X34989501Y-4377553D01*
X35117553Y-4249501D01*
X35223996Y-4102994D01*
X35306211Y-3941639D01*
X35362171Y-3769409D01*
X35390500Y-3590546D01*
X35390500Y-3409454D01*
X35390500Y-3409450D01*
X35629500Y-3409450D01*
X35629500Y-3590549D01*
X35657828Y-3769406D01*
X35713788Y-3941637D01*
X35785272Y-4081933D01*
X35796004Y-4102994D01*
X35902447Y-4249501D01*
X36030499Y-4377553D01*
X36177006Y-4483996D01*
X36338361Y-4566211D01*
X36510591Y-4622171D01*
X36582136Y-4633502D01*
X36689451Y-4650500D01*
X36689454Y-4650500D01*
X36870549Y-4650500D01*
X36959977Y-4636335D01*
X37049409Y-4622171D01*
X37221639Y-4566211D01*
X37382994Y-4483996D01*
X37529501Y-4377553D01*
X37657553Y-4249501D01*
X37763996Y-4102994D01*
X37846211Y-3941639D01*
X37902171Y-3769409D01*
X37930500Y-3590546D01*
X37930500Y-3409454D01*
X37930500Y-3409450D01*
X37902171Y-3230593D01*
X37902171Y-3230591D01*
X37846211Y-3058361D01*
X37763996Y-2897006D01*
X37657553Y-2750499D01*
X37529501Y-2622447D01*
X37505666Y-2605130D01*
X39689500Y-2605130D01*
X39689500Y-4394860D01*
X39689501Y-4394863D01*
X39692414Y-4419990D01*
X39717756Y-4477385D01*
X39737794Y-4522765D01*
X39817235Y-4602206D01*
X39920009Y-4647585D01*
X39945135Y-4650500D01*
X41734864Y-4650499D01*
X41759991Y-4647585D01*
X41862765Y-4602206D01*
X41942206Y-4522765D01*
X41987585Y-4419991D01*
X41990500Y-4394865D01*
X41990499Y-3409450D01*
X42229500Y-3409450D01*
X42229500Y-3590549D01*
X42257828Y-3769406D01*
X42313788Y-3941637D01*
X42385272Y-4081933D01*
X42396004Y-4102994D01*
X42502447Y-4249501D01*
X42630499Y-4377553D01*
X42777006Y-4483996D01*
X42938361Y-4566211D01*
X43110591Y-4622171D01*
X43182136Y-4633502D01*
X43289451Y-4650500D01*
X43289454Y-4650500D01*
X43470549Y-4650500D01*
X43559977Y-4636335D01*
X43649409Y-4622171D01*
X43821639Y-4566211D01*
X43982994Y-4483996D01*
X44129501Y-4377553D01*
X44257553Y-4249501D01*
X44363996Y-4102994D01*
X44446211Y-3941639D01*
X44502171Y-3769409D01*
X44530500Y-3590546D01*
X44530500Y-3409454D01*
X44530500Y-3409450D01*
X44769500Y-3409450D01*
X44769500Y-3590549D01*
X44797828Y-3769406D01*
X44853788Y-3941637D01*
X44925272Y-4081933D01*
X44936004Y-4102994D01*
X45042447Y-4249501D01*
X45170499Y-4377553D01*
X45317006Y-4483996D01*
X45478361Y-4566211D01*
X45650591Y-4622171D01*
X45722136Y-4633502D01*
X45829451Y-4650500D01*
X45829454Y-4650500D01*
X46010549Y-4650500D01*
X46099977Y-4636335D01*
X46189409Y-4622171D01*
X46361639Y-4566211D01*
X46522994Y-4483996D01*
X46669501Y-4377553D01*
X46797553Y-4249501D01*
X46903996Y-4102994D01*
X46986211Y-3941639D01*
X47042171Y-3769409D01*
X47070500Y-3590546D01*
X47070500Y-3409454D01*
X47070500Y-3409450D01*
X47309500Y-3409450D01*
X47309500Y-3590549D01*
X47337828Y-3769406D01*
X47393788Y-3941637D01*
X47465272Y-4081933D01*
X47476004Y-4102994D01*
X47582447Y-4249501D01*
X47710499Y-4377553D01*
X47857006Y-4483996D01*
X48018361Y-4566211D01*
X48190591Y-4622171D01*
X48262136Y-4633502D01*
X48369451Y-4650500D01*
X48369454Y-4650500D01*
X48550549Y-4650500D01*
X48639977Y-4636335D01*
X48729409Y-4622171D01*
X48901639Y-4566211D01*
X49062994Y-4483996D01*
X49209501Y-4377553D01*
X49337553Y-4249501D01*
X49443996Y-4102994D01*
X49526211Y-3941639D01*
X49582171Y-3769409D01*
X49610500Y-3590546D01*
X49610500Y-3409454D01*
X49610500Y-3409450D01*
X49849500Y-3409450D01*
X49849500Y-3590549D01*
X49877828Y-3769406D01*
X49933788Y-3941637D01*
X50005272Y-4081933D01*
X50016004Y-4102994D01*
X50122447Y-4249501D01*
X50250499Y-4377553D01*
X50397006Y-4483996D01*
X50558361Y-4566211D01*
X50730591Y-4622171D01*
X50802136Y-4633502D01*
X50909451Y-4650500D01*
X50909454Y-4650500D01*
X51090549Y-4650500D01*
X51179977Y-4636335D01*
X51269409Y-4622171D01*
X51441639Y-4566211D01*
X51602994Y-4483996D01*
X51749501Y-4377553D01*
X51877553Y-4249501D01*
X51983996Y-4102994D01*
X52066211Y-3941639D01*
X52122171Y-3769409D01*
X52150500Y-3590546D01*
X52150500Y-3409454D01*
X52150500Y-3409450D01*
X52389500Y-3409450D01*
X52389500Y-3590549D01*
X52417828Y-3769406D01*
X52473788Y-3941637D01*
X52545272Y-4081933D01*
X52556004Y-4102994D01*
X52662447Y-4249501D01*
X52790499Y-4377553D01*
X52937006Y-4483996D01*
X53098361Y-4566211D01*
X53270591Y-4622171D01*
X53342136Y-4633502D01*
X53449451Y-4650500D01*
X53449454Y-4650500D01*
X53630549Y-4650500D01*
X53719977Y-4636335D01*
X53809409Y-4622171D01*
X53981639Y-4566211D01*
X53981642Y-4566209D01*
X53981646Y-4566208D01*
X54085608Y-4513235D01*
X54132527Y-4489329D01*
X54132530Y-4489328D01*
X54136166Y-4487474D01*
X54142994Y-4483996D01*
X54289501Y-4377553D01*
X54417553Y-4249501D01*
X54523996Y-4102994D01*
X54606211Y-3941639D01*
X54606213Y-3941633D01*
X54610962Y-3927018D01*
X54646924Y-3877517D01*
X54705115Y-3858608D01*
X54763306Y-3877514D01*
X54799271Y-3927013D01*
X54799272Y-3927015D01*
X54828904Y-4018215D01*
X54925376Y-4207553D01*
X54925380Y-4207559D01*
X54964728Y-4261716D01*
X54964729Y-4261716D01*
X55597037Y-3629407D01*
X55614075Y-3692993D01*
X55679901Y-3807007D01*
X55772993Y-3900099D01*
X55887007Y-3965925D01*
X55950589Y-3982962D01*
X55318282Y-4615269D01*
X55318282Y-4615270D01*
X55372440Y-4654619D01*
X55372446Y-4654623D01*
X55561784Y-4751095D01*
X55763878Y-4816759D01*
X55973750Y-4850000D01*
X56186250Y-4850000D01*
X56396121Y-4816759D01*
X56598215Y-4751095D01*
X56787556Y-4654620D01*
X56841716Y-4615270D01*
X56209408Y-3982962D01*
X56272993Y-3965925D01*
X56387007Y-3900099D01*
X56480099Y-3807007D01*
X56545925Y-3692993D01*
X56562962Y-3629408D01*
X57195270Y-4261716D01*
X57234620Y-4207556D01*
X57331096Y-4018213D01*
X57360727Y-3927016D01*
X57396690Y-3877516D01*
X57454881Y-3858608D01*
X57513072Y-3877515D01*
X57549036Y-3927013D01*
X57553788Y-3941637D01*
X57625272Y-4081933D01*
X57636004Y-4102994D01*
X57742447Y-4249501D01*
X57870499Y-4377553D01*
X58017006Y-4483996D01*
X58178361Y-4566211D01*
X58350591Y-4622171D01*
X58422136Y-4633502D01*
X58529451Y-4650500D01*
X58529454Y-4650500D01*
X58710549Y-4650500D01*
X58799977Y-4636335D01*
X58889409Y-4622171D01*
X59061639Y-4566211D01*
X59222994Y-4483996D01*
X59369501Y-4377553D01*
X59497553Y-4249501D01*
X59603996Y-4102994D01*
X59686211Y-3941639D01*
X59742171Y-3769409D01*
X59770500Y-3590546D01*
X59770500Y-3409454D01*
X59770500Y-3409450D01*
X60009500Y-3409450D01*
X60009500Y-3590549D01*
X60037828Y-3769406D01*
X60093788Y-3941637D01*
X60165272Y-4081933D01*
X60176004Y-4102994D01*
X60282447Y-4249501D01*
X60410499Y-4377553D01*
X60557006Y-4483996D01*
X60718361Y-4566211D01*
X60890591Y-4622171D01*
X60962136Y-4633502D01*
X61069451Y-4650500D01*
X61069454Y-4650500D01*
X61250549Y-4650500D01*
X61339977Y-4636335D01*
X61429409Y-4622171D01*
X61601639Y-4566211D01*
X61762994Y-4483996D01*
X61909501Y-4377553D01*
X62037553Y-4249501D01*
X62143996Y-4102994D01*
X62226211Y-3941639D01*
X62282171Y-3769409D01*
X62310500Y-3590546D01*
X62310500Y-3409454D01*
X62310500Y-3409450D01*
X62549500Y-3409450D01*
X62549500Y-3590549D01*
X62577828Y-3769406D01*
X62633788Y-3941637D01*
X62705272Y-4081933D01*
X62716004Y-4102994D01*
X62822447Y-4249501D01*
X62950499Y-4377553D01*
X63097006Y-4483996D01*
X63258361Y-4566211D01*
X63430591Y-4622171D01*
X63502136Y-4633502D01*
X63609451Y-4650500D01*
X63609454Y-4650500D01*
X63790549Y-4650500D01*
X63879977Y-4636335D01*
X63969409Y-4622171D01*
X64141639Y-4566211D01*
X64302994Y-4483996D01*
X64449501Y-4377553D01*
X64577553Y-4249501D01*
X64683996Y-4102994D01*
X64766211Y-3941639D01*
X64822171Y-3769409D01*
X64850500Y-3590546D01*
X64850500Y-3409454D01*
X64850500Y-3409450D01*
X64822171Y-3230593D01*
X64822171Y-3230591D01*
X64766211Y-3058361D01*
X64683996Y-2897006D01*
X64577553Y-2750499D01*
X64449501Y-2622447D01*
X64302994Y-2516004D01*
X64302993Y-2516003D01*
X64302991Y-2516002D01*
X64141637Y-2433788D01*
X63969406Y-2377828D01*
X63790549Y-2349500D01*
X63790546Y-2349500D01*
X63609454Y-2349500D01*
X63609451Y-2349500D01*
X63430593Y-2377828D01*
X63258362Y-2433788D01*
X63097008Y-2516002D01*
X63023752Y-2569225D01*
X62950499Y-2622447D01*
X62822447Y-2750499D01*
X62791975Y-2792440D01*
X62716002Y-2897008D01*
X62633788Y-3058362D01*
X62577828Y-3230593D01*
X62549500Y-3409450D01*
X62310500Y-3409450D01*
X62282171Y-3230593D01*
X62282171Y-3230591D01*
X62226211Y-3058361D01*
X62143996Y-2897006D01*
X62037553Y-2750499D01*
X61909501Y-2622447D01*
X61762994Y-2516004D01*
X61762993Y-2516003D01*
X61762991Y-2516002D01*
X61601637Y-2433788D01*
X61429406Y-2377828D01*
X61250549Y-2349500D01*
X61250546Y-2349500D01*
X61069454Y-2349500D01*
X61069451Y-2349500D01*
X60890593Y-2377828D01*
X60718362Y-2433788D01*
X60557008Y-2516002D01*
X60483752Y-2569225D01*
X60410499Y-2622447D01*
X60282447Y-2750499D01*
X60251975Y-2792440D01*
X60176002Y-2897008D01*
X60093788Y-3058362D01*
X60037828Y-3230593D01*
X60009500Y-3409450D01*
X59770500Y-3409450D01*
X59742171Y-3230593D01*
X59742171Y-3230591D01*
X59686211Y-3058361D01*
X59603996Y-2897006D01*
X59497553Y-2750499D01*
X59369501Y-2622447D01*
X59222994Y-2516004D01*
X59222993Y-2516003D01*
X59222991Y-2516002D01*
X59061637Y-2433788D01*
X58889406Y-2377828D01*
X58710549Y-2349500D01*
X58710546Y-2349500D01*
X58529454Y-2349500D01*
X58529451Y-2349500D01*
X58350593Y-2377828D01*
X58178362Y-2433788D01*
X58017008Y-2516002D01*
X57943752Y-2569225D01*
X57870499Y-2622447D01*
X57742447Y-2750499D01*
X57711975Y-2792440D01*
X57636002Y-2897008D01*
X57553787Y-3058364D01*
X57553786Y-3058366D01*
X57549035Y-3072988D01*
X57513069Y-3122486D01*
X57454878Y-3141391D01*
X57396688Y-3122481D01*
X57360727Y-3072983D01*
X57331096Y-2981786D01*
X57234623Y-2792446D01*
X57234619Y-2792440D01*
X57195270Y-2738282D01*
X57195269Y-2738282D01*
X56562962Y-3370589D01*
X56545925Y-3307007D01*
X56480099Y-3192993D01*
X56387007Y-3099901D01*
X56272993Y-3034075D01*
X56209407Y-3017037D01*
X56841716Y-2384729D01*
X56841716Y-2384728D01*
X56787559Y-2345380D01*
X56787553Y-2345376D01*
X56598215Y-2248904D01*
X56396121Y-2183240D01*
X56186250Y-2150000D01*
X55973750Y-2150000D01*
X55763878Y-2183240D01*
X55561784Y-2248904D01*
X55372446Y-2345376D01*
X55372442Y-2345378D01*
X55318282Y-2384728D01*
X55950591Y-3017037D01*
X55887007Y-3034075D01*
X55772993Y-3099901D01*
X55679901Y-3192993D01*
X55614075Y-3307007D01*
X55597037Y-3370591D01*
X54964728Y-2738282D01*
X54925378Y-2792442D01*
X54925376Y-2792446D01*
X54828904Y-2981784D01*
X54799272Y-3072984D01*
X54763308Y-3122484D01*
X54705117Y-3141391D01*
X54646926Y-3122484D01*
X54610962Y-3072984D01*
X54610962Y-3072983D01*
X54609824Y-3069483D01*
X54606211Y-3058361D01*
X54523996Y-2897006D01*
X54417553Y-2750499D01*
X54289501Y-2622447D01*
X54142994Y-2516004D01*
X54142990Y-2516001D01*
X54142988Y-2516000D01*
X54132527Y-2510670D01*
X54132526Y-2510670D01*
X53981637Y-2433788D01*
X53809406Y-2377828D01*
X53630549Y-2349500D01*
X53630546Y-2349500D01*
X53449454Y-2349500D01*
X53449451Y-2349500D01*
X53270593Y-2377828D01*
X53098362Y-2433788D01*
X52937008Y-2516002D01*
X52863752Y-2569225D01*
X52790499Y-2622447D01*
X52662447Y-2750499D01*
X52631975Y-2792440D01*
X52556002Y-2897008D01*
X52473788Y-3058362D01*
X52417828Y-3230593D01*
X52389500Y-3409450D01*
X52150500Y-3409450D01*
X52122171Y-3230593D01*
X52122171Y-3230591D01*
X52066211Y-3058361D01*
X51983996Y-2897006D01*
X51877553Y-2750499D01*
X51749501Y-2622447D01*
X51602994Y-2516004D01*
X51602993Y-2516003D01*
X51602991Y-2516002D01*
X51441637Y-2433788D01*
X51269406Y-2377828D01*
X51090549Y-2349500D01*
X51090546Y-2349500D01*
X50909454Y-2349500D01*
X50909451Y-2349500D01*
X50730593Y-2377828D01*
X50558362Y-2433788D01*
X50397008Y-2516002D01*
X50323752Y-2569225D01*
X50250499Y-2622447D01*
X50122447Y-2750499D01*
X50091975Y-2792440D01*
X50016002Y-2897008D01*
X49933788Y-3058362D01*
X49877828Y-3230593D01*
X49849500Y-3409450D01*
X49610500Y-3409450D01*
X49582171Y-3230593D01*
X49582171Y-3230591D01*
X49526211Y-3058361D01*
X49443996Y-2897006D01*
X49337553Y-2750499D01*
X49209501Y-2622447D01*
X49062994Y-2516004D01*
X49062993Y-2516003D01*
X49062991Y-2516002D01*
X48901637Y-2433788D01*
X48729406Y-2377828D01*
X48550549Y-2349500D01*
X48550546Y-2349500D01*
X48369454Y-2349500D01*
X48369451Y-2349500D01*
X48190593Y-2377828D01*
X48018362Y-2433788D01*
X47857008Y-2516002D01*
X47783752Y-2569225D01*
X47710499Y-2622447D01*
X47582447Y-2750499D01*
X47551975Y-2792440D01*
X47476002Y-2897008D01*
X47393788Y-3058362D01*
X47337828Y-3230593D01*
X47309500Y-3409450D01*
X47070500Y-3409450D01*
X47042171Y-3230593D01*
X47042171Y-3230591D01*
X46986211Y-3058361D01*
X46903996Y-2897006D01*
X46797553Y-2750499D01*
X46669501Y-2622447D01*
X46522994Y-2516004D01*
X46522993Y-2516003D01*
X46522991Y-2516002D01*
X46361637Y-2433788D01*
X46189406Y-2377828D01*
X46010549Y-2349500D01*
X46010546Y-2349500D01*
X45829454Y-2349500D01*
X45829451Y-2349500D01*
X45650593Y-2377828D01*
X45478362Y-2433788D01*
X45317008Y-2516002D01*
X45243752Y-2569225D01*
X45170499Y-2622447D01*
X45042447Y-2750499D01*
X45011975Y-2792440D01*
X44936002Y-2897008D01*
X44853788Y-3058362D01*
X44797828Y-3230593D01*
X44769500Y-3409450D01*
X44530500Y-3409450D01*
X44502171Y-3230593D01*
X44502171Y-3230591D01*
X44446211Y-3058361D01*
X44363996Y-2897006D01*
X44257553Y-2750499D01*
X44129501Y-2622447D01*
X43982994Y-2516004D01*
X43982993Y-2516003D01*
X43982991Y-2516002D01*
X43821637Y-2433788D01*
X43649406Y-2377828D01*
X43470549Y-2349500D01*
X43470546Y-2349500D01*
X43289454Y-2349500D01*
X43289451Y-2349500D01*
X43110593Y-2377828D01*
X42938362Y-2433788D01*
X42777008Y-2516002D01*
X42703752Y-2569225D01*
X42630499Y-2622447D01*
X42502447Y-2750499D01*
X42471975Y-2792440D01*
X42396002Y-2897008D01*
X42313788Y-3058362D01*
X42257828Y-3230593D01*
X42229500Y-3409450D01*
X41990499Y-3409450D01*
X41990499Y-2605136D01*
X41987585Y-2580009D01*
X41942206Y-2477235D01*
X41862765Y-2397794D01*
X41759991Y-2352415D01*
X41759990Y-2352414D01*
X41759988Y-2352414D01*
X41734868Y-2349500D01*
X39945139Y-2349500D01*
X39945136Y-2349501D01*
X39920009Y-2352414D01*
X39817235Y-2397794D01*
X39737794Y-2477235D01*
X39692414Y-2580011D01*
X39689500Y-2605130D01*
X37505666Y-2605130D01*
X37382994Y-2516004D01*
X37382993Y-2516003D01*
X37382991Y-2516002D01*
X37221637Y-2433788D01*
X37049406Y-2377828D01*
X36870549Y-2349500D01*
X36870546Y-2349500D01*
X36689454Y-2349500D01*
X36689451Y-2349500D01*
X36510593Y-2377828D01*
X36338362Y-2433788D01*
X36177008Y-2516002D01*
X36103752Y-2569225D01*
X36030499Y-2622447D01*
X35902447Y-2750499D01*
X35871975Y-2792440D01*
X35796002Y-2897008D01*
X35713788Y-3058362D01*
X35657828Y-3230593D01*
X35629500Y-3409450D01*
X35390500Y-3409450D01*
X35362171Y-3230593D01*
X35362171Y-3230591D01*
X35306211Y-3058361D01*
X35223996Y-2897006D01*
X35117553Y-2750499D01*
X34989501Y-2622447D01*
X34842994Y-2516004D01*
X34842993Y-2516003D01*
X34842991Y-2516002D01*
X34681637Y-2433788D01*
X34509406Y-2377828D01*
X34330549Y-2349500D01*
X34330546Y-2349500D01*
X34149454Y-2349500D01*
X34149451Y-2349500D01*
X33970593Y-2377828D01*
X33798362Y-2433788D01*
X33637008Y-2516002D01*
X33563752Y-2569225D01*
X33490499Y-2622447D01*
X33362447Y-2750499D01*
X33331975Y-2792440D01*
X33256002Y-2897008D01*
X33173788Y-3058362D01*
X33117828Y-3230593D01*
X33089500Y-3409450D01*
X32850500Y-3409450D01*
X32822171Y-3230593D01*
X32822171Y-3230591D01*
X32766211Y-3058361D01*
X32683996Y-2897006D01*
X32577553Y-2750499D01*
X32449501Y-2622447D01*
X32302994Y-2516004D01*
X32302993Y-2516003D01*
X32302991Y-2516002D01*
X32141637Y-2433788D01*
X31969406Y-2377828D01*
X31790549Y-2349500D01*
X31790546Y-2349500D01*
X31609454Y-2349500D01*
X31609451Y-2349500D01*
X31430593Y-2377828D01*
X31258362Y-2433788D01*
X31097008Y-2516002D01*
X31023752Y-2569225D01*
X30950499Y-2622447D01*
X30822447Y-2750499D01*
X30791975Y-2792440D01*
X30716002Y-2897008D01*
X30633788Y-3058362D01*
X30577828Y-3230593D01*
X30549500Y-3409450D01*
X30310500Y-3409450D01*
X30282171Y-3230593D01*
X30282171Y-3230591D01*
X30226211Y-3058361D01*
X30143996Y-2897006D01*
X30037553Y-2750499D01*
X29909501Y-2622447D01*
X29762994Y-2516004D01*
X29762993Y-2516003D01*
X29762991Y-2516002D01*
X29601637Y-2433788D01*
X29429406Y-2377828D01*
X29250549Y-2349500D01*
X29250546Y-2349500D01*
X29069454Y-2349500D01*
X29069451Y-2349500D01*
X28890593Y-2377828D01*
X28718362Y-2433788D01*
X28557008Y-2516002D01*
X28483752Y-2569225D01*
X28410499Y-2622447D01*
X28282447Y-2750499D01*
X28251975Y-2792440D01*
X28176002Y-2897008D01*
X28093788Y-3058362D01*
X28037828Y-3230593D01*
X28009500Y-3409450D01*
X27770500Y-3409450D01*
X27742171Y-3230593D01*
X27742171Y-3230591D01*
X27686211Y-3058361D01*
X27603996Y-2897006D01*
X27497553Y-2750499D01*
X27369501Y-2622447D01*
X27222994Y-2516004D01*
X27222993Y-2516003D01*
X27222991Y-2516002D01*
X27061637Y-2433788D01*
X26889406Y-2377828D01*
X26710549Y-2349500D01*
X26710546Y-2349500D01*
X26529454Y-2349500D01*
X26529451Y-2349500D01*
X26350593Y-2377828D01*
X26178362Y-2433788D01*
X26017008Y-2516002D01*
X25943752Y-2569225D01*
X25870499Y-2622447D01*
X25742447Y-2750499D01*
X25711975Y-2792440D01*
X25636002Y-2897008D01*
X25553788Y-3058362D01*
X25497828Y-3230593D01*
X25469500Y-3409450D01*
X25230500Y-3409450D01*
X25202171Y-3230593D01*
X25202171Y-3230591D01*
X25146211Y-3058361D01*
X25063996Y-2897006D01*
X24957553Y-2750499D01*
X24829501Y-2622447D01*
X24682994Y-2516004D01*
X24682993Y-2516003D01*
X24682991Y-2516002D01*
X24521637Y-2433788D01*
X24349406Y-2377828D01*
X24170549Y-2349500D01*
X24170546Y-2349500D01*
X23989454Y-2349500D01*
X23989451Y-2349500D01*
X23810593Y-2377828D01*
X23638362Y-2433788D01*
X23477008Y-2516002D01*
X23403752Y-2569225D01*
X23330499Y-2622447D01*
X23202447Y-2750499D01*
X23171975Y-2792440D01*
X23096002Y-2897008D01*
X23013788Y-3058362D01*
X22957828Y-3230593D01*
X22929500Y-3409450D01*
X22690500Y-3409450D01*
X22662171Y-3230593D01*
X22662171Y-3230591D01*
X22606211Y-3058361D01*
X22523996Y-2897006D01*
X22417553Y-2750499D01*
X22289501Y-2622447D01*
X22142994Y-2516004D01*
X22142993Y-2516003D01*
X22142991Y-2516002D01*
X21981637Y-2433788D01*
X21809406Y-2377828D01*
X21630549Y-2349500D01*
X21630546Y-2349500D01*
X21449454Y-2349500D01*
X21449451Y-2349500D01*
X21270593Y-2377828D01*
X21098362Y-2433788D01*
X20937008Y-2516002D01*
X20863752Y-2569225D01*
X20790499Y-2622447D01*
X20662447Y-2750499D01*
X20631975Y-2792440D01*
X20556002Y-2897008D01*
X20473788Y-3058362D01*
X20417828Y-3230593D01*
X20389500Y-3409450D01*
X20150499Y-3409450D01*
X20150499Y-2605136D01*
X20147585Y-2580009D01*
X20102206Y-2477235D01*
X20022765Y-2397794D01*
X19919991Y-2352415D01*
X19919990Y-2352414D01*
X19919988Y-2352414D01*
X19894868Y-2349500D01*
X18105139Y-2349500D01*
X18105136Y-2349501D01*
X18080009Y-2352414D01*
X17977235Y-2397794D01*
X17897794Y-2477235D01*
X17852414Y-2580011D01*
X17849500Y-2605130D01*
X15820500Y-2605130D01*
X15820500Y-2418712D01*
X15788838Y-2178211D01*
X15726054Y-1943900D01*
X15633224Y-1719788D01*
X15511936Y-1509711D01*
X15364265Y-1317262D01*
X15192738Y-1145735D01*
X15192733Y-1145731D01*
X15192731Y-1145729D01*
X15000292Y-998066D01*
X15000289Y-998064D01*
X14790212Y-876776D01*
X14790208Y-876774D01*
X14790204Y-876772D01*
X14581836Y-790464D01*
X14535310Y-750728D01*
X14521026Y-691233D01*
X14544441Y-634705D01*
X14596610Y-602735D01*
X14619721Y-600000D01*
X67901000Y-600000D01*
X67959191Y-618907D01*
X67995155Y-668407D01*
X68000000Y-699000D01*
X68000000Y-7033056D01*
X67981093Y-7091247D01*
X67931593Y-7127211D01*
X67870407Y-7127211D01*
X67820907Y-7091247D01*
X67805373Y-7058679D01*
X67798507Y-7033056D01*
X67796054Y-7023900D01*
X67703224Y-6799788D01*
X67581936Y-6589711D01*
X67434265Y-6397262D01*
X67262738Y-6225735D01*
X67262733Y-6225731D01*
X67262731Y-6225729D01*
X67070292Y-6078066D01*
X67070289Y-6078064D01*
X66860212Y-5956776D01*
X66860208Y-5956774D01*
X66860204Y-5956772D01*
X66636105Y-5863948D01*
X66636104Y-5863947D01*
X66636100Y-5863946D01*
X66401789Y-5801162D01*
X66401786Y-5801161D01*
X66401784Y-5801161D01*
X66161289Y-5769500D01*
X66161288Y-5769500D01*
X65918712Y-5769500D01*
X65918710Y-5769500D01*
X65678218Y-5801161D01*
X65678213Y-5801161D01*
X65443907Y-5863944D01*
X65443894Y-5863948D01*
X65219795Y-5956772D01*
X65009707Y-6078066D01*
X64817268Y-6225729D01*
X64645729Y-6397268D01*
X64498066Y-6589707D01*
X64376772Y-6799795D01*
X64283948Y-7023894D01*
X64283944Y-7023907D01*
X64221161Y-7258213D01*
X64221161Y-7258218D01*
X64189500Y-7498710D01*
X64189500Y-7741289D01*
X64221161Y-7981781D01*
X64221161Y-7981786D01*
X64283944Y-8216092D01*
X64283948Y-8216105D01*
X64376772Y-8440204D01*
X64376774Y-8440208D01*
X64376776Y-8440212D01*
X64410844Y-8499219D01*
X64498066Y-8650292D01*
X64645729Y-8842731D01*
X64645731Y-8842733D01*
X64645735Y-8842738D01*
X64817262Y-9014265D01*
X64817266Y-9014268D01*
X64817268Y-9014270D01*
X64945004Y-9112285D01*
X65009711Y-9161936D01*
X65219788Y-9283224D01*
X65443900Y-9376054D01*
X65678211Y-9438838D01*
X65918712Y-9470500D01*
X65918713Y-9470500D01*
X66161287Y-9470500D01*
X66161288Y-9470500D01*
X66401789Y-9438838D01*
X66636100Y-9376054D01*
X66860212Y-9283224D01*
X67070289Y-9161936D01*
X67262738Y-9014265D01*
X67434265Y-8842738D01*
X67581936Y-8650289D01*
X67703224Y-8440212D01*
X67796054Y-8216100D01*
X67805373Y-8181319D01*
X67838697Y-8130006D01*
X67895818Y-8108079D01*
X67954919Y-8123914D01*
X67993424Y-8171464D01*
X68000000Y-8206943D01*
X68000000Y-34973056D01*
X67981093Y-35031247D01*
X67931593Y-35067211D01*
X67870407Y-35067211D01*
X67820907Y-35031247D01*
X67805373Y-34998679D01*
X67801024Y-34982449D01*
X67796054Y-34963900D01*
X67703224Y-34739788D01*
X67581936Y-34529711D01*
X67536502Y-34470500D01*
X67434270Y-34337268D01*
X67434268Y-34337266D01*
X67434265Y-34337262D01*
X67262738Y-34165735D01*
X67262733Y-34165731D01*
X67262731Y-34165729D01*
X67070292Y-34018066D01*
X67070289Y-34018064D01*
X66860212Y-33896776D01*
X66860208Y-33896774D01*
X66860204Y-33896772D01*
X66636105Y-33803948D01*
X66636104Y-33803947D01*
X66636100Y-33803946D01*
X66401789Y-33741162D01*
X66401786Y-33741161D01*
X66401784Y-33741161D01*
X66161289Y-33709500D01*
X66161288Y-33709500D01*
X65918712Y-33709500D01*
X65918710Y-33709500D01*
X65678218Y-33741161D01*
X65678213Y-33741161D01*
X65443907Y-33803944D01*
X65443894Y-33803948D01*
X65219795Y-33896772D01*
X65009707Y-34018066D01*
X64817268Y-34165729D01*
X64645729Y-34337268D01*
X64498066Y-34529707D01*
X64376772Y-34739795D01*
X64283948Y-34963894D01*
X64283944Y-34963907D01*
X64221161Y-35198213D01*
X64221161Y-35198218D01*
X64189500Y-35438710D01*
X64189500Y-35681289D01*
X64201107Y-35769454D01*
X64220995Y-35920524D01*
X64221161Y-35921781D01*
X64221161Y-35921786D01*
X64283944Y-36156092D01*
X64283948Y-36156105D01*
X64376772Y-36380204D01*
X64376774Y-36380208D01*
X64376776Y-36380212D01*
X64498064Y-36590289D01*
X64498066Y-36590292D01*
X64645729Y-36782731D01*
X64645731Y-36782733D01*
X64645735Y-36782738D01*
X64817262Y-36954265D01*
X64817266Y-36954268D01*
X64817268Y-36954270D01*
X64876865Y-37000000D01*
X65009711Y-37101936D01*
X65219788Y-37223224D01*
X65443900Y-37316054D01*
X65678211Y-37378838D01*
X65918712Y-37410500D01*
X65918713Y-37410500D01*
X66161287Y-37410500D01*
X66161288Y-37410500D01*
X66401789Y-37378838D01*
X66636100Y-37316054D01*
X66860212Y-37223224D01*
X67070289Y-37101936D01*
X67262738Y-36954265D01*
X67434265Y-36782738D01*
X67581936Y-36590289D01*
X67703224Y-36380212D01*
X67796054Y-36156100D01*
X67805373Y-36121319D01*
X67838697Y-36070006D01*
X67895818Y-36048079D01*
X67954919Y-36063914D01*
X67993424Y-36111464D01*
X68000000Y-36146943D01*
X68000000Y-52601000D01*
X67981093Y-52659191D01*
X67931593Y-52695155D01*
X67901000Y-52700000D01*
X15986290Y-52700000D01*
X15928099Y-52681093D01*
X15892135Y-52631593D01*
X15892135Y-52570407D01*
X15928099Y-52520907D01*
X15948405Y-52509536D01*
X15982719Y-52495322D01*
X16060212Y-52463224D01*
X16270289Y-52341936D01*
X16462738Y-52194265D01*
X16634265Y-52022738D01*
X16781936Y-51830289D01*
X16903224Y-51620212D01*
X16996054Y-51396100D01*
X17058838Y-51161789D01*
X17090500Y-50921288D01*
X17090500Y-50678712D01*
X17058838Y-50438211D01*
X16996054Y-50203900D01*
X16903224Y-49979788D01*
X16781936Y-49769711D01*
X16634265Y-49577262D01*
X16462738Y-49405735D01*
X16462733Y-49405731D01*
X16462731Y-49405729D01*
X16270292Y-49258066D01*
X16167294Y-49198600D01*
X16060212Y-49136776D01*
X16060208Y-49136774D01*
X16060204Y-49136772D01*
X15836105Y-49043948D01*
X15836104Y-49043947D01*
X15836100Y-49043946D01*
X15601789Y-48981162D01*
X15601786Y-48981161D01*
X15601784Y-48981161D01*
X15361289Y-48949500D01*
X15361288Y-48949500D01*
X15118712Y-48949500D01*
X15118710Y-48949500D01*
X14878218Y-48981161D01*
X14878213Y-48981161D01*
X14643907Y-49043944D01*
X14643894Y-49043948D01*
X14419795Y-49136772D01*
X14209707Y-49258066D01*
X14017268Y-49405729D01*
X13845729Y-49577268D01*
X13698066Y-49769707D01*
X13576772Y-49979795D01*
X13483948Y-50203894D01*
X13483944Y-50203907D01*
X13421161Y-50438213D01*
X13421161Y-50438218D01*
X13389500Y-50678710D01*
X13389500Y-50921289D01*
X13421161Y-51161781D01*
X13421161Y-51161786D01*
X13483944Y-51396092D01*
X13483948Y-51396105D01*
X13576772Y-51620204D01*
X13576774Y-51620208D01*
X13576776Y-51620212D01*
X13698064Y-51830289D01*
X13698066Y-51830292D01*
X13845729Y-52022731D01*
X13845731Y-52022733D01*
X13845735Y-52022738D01*
X14017262Y-52194265D01*
X14017266Y-52194268D01*
X14017268Y-52194270D01*
X14209707Y-52341933D01*
X14209711Y-52341936D01*
X14419788Y-52463224D01*
X14419794Y-52463226D01*
X14419795Y-52463227D01*
X14531595Y-52509536D01*
X14578121Y-52549272D01*
X14592405Y-52608767D01*
X14568990Y-52665295D01*
X14516821Y-52697265D01*
X14493710Y-52700000D01*
X699000Y-52700000D01*
X640809Y-52681093D01*
X604845Y-52631593D01*
X600000Y-52601000D01*
X600000Y-48905130D01*
X17849500Y-48905130D01*
X17849500Y-50694860D01*
X17849501Y-50694863D01*
X17852414Y-50719990D01*
X17877756Y-50777385D01*
X17897794Y-50822765D01*
X17977235Y-50902206D01*
X18080009Y-50947585D01*
X18105135Y-50950500D01*
X19894864Y-50950499D01*
X19919991Y-50947585D01*
X20022765Y-50902206D01*
X20102206Y-50822765D01*
X20147585Y-50719991D01*
X20150500Y-50694865D01*
X20150499Y-49709450D01*
X20389500Y-49709450D01*
X20389500Y-49890549D01*
X20417828Y-50069406D01*
X20473788Y-50241637D01*
X20555190Y-50401398D01*
X20556004Y-50402994D01*
X20662447Y-50549501D01*
X20790499Y-50677553D01*
X20937006Y-50783996D01*
X21098361Y-50866211D01*
X21270591Y-50922171D01*
X21342136Y-50933502D01*
X21449451Y-50950500D01*
X21449454Y-50950500D01*
X21630549Y-50950500D01*
X21719977Y-50936335D01*
X21809409Y-50922171D01*
X21981639Y-50866211D01*
X22142994Y-50783996D01*
X22289501Y-50677553D01*
X22417553Y-50549501D01*
X22523996Y-50402994D01*
X22606211Y-50241639D01*
X22662171Y-50069409D01*
X22690500Y-49890546D01*
X22690500Y-49709454D01*
X22690500Y-49709450D01*
X22929500Y-49709450D01*
X22929500Y-49890549D01*
X22957828Y-50069406D01*
X23013788Y-50241637D01*
X23095190Y-50401398D01*
X23096004Y-50402994D01*
X23202447Y-50549501D01*
X23330499Y-50677553D01*
X23477006Y-50783996D01*
X23638361Y-50866211D01*
X23810591Y-50922171D01*
X23882136Y-50933502D01*
X23989451Y-50950500D01*
X23989454Y-50950500D01*
X24170549Y-50950500D01*
X24259977Y-50936335D01*
X24349409Y-50922171D01*
X24521639Y-50866211D01*
X24682994Y-50783996D01*
X24829501Y-50677553D01*
X24957553Y-50549501D01*
X25063996Y-50402994D01*
X25146211Y-50241639D01*
X25202171Y-50069409D01*
X25230500Y-49890546D01*
X25230500Y-49709454D01*
X25230500Y-49709450D01*
X25469500Y-49709450D01*
X25469500Y-49890549D01*
X25497828Y-50069406D01*
X25553788Y-50241637D01*
X25635190Y-50401398D01*
X25636004Y-50402994D01*
X25742447Y-50549501D01*
X25870499Y-50677553D01*
X26017006Y-50783996D01*
X26178361Y-50866211D01*
X26350591Y-50922171D01*
X26422136Y-50933502D01*
X26529451Y-50950500D01*
X26529454Y-50950500D01*
X26710549Y-50950500D01*
X26799977Y-50936335D01*
X26889409Y-50922171D01*
X27061639Y-50866211D01*
X27222994Y-50783996D01*
X27369501Y-50677553D01*
X27497553Y-50549501D01*
X27603996Y-50402994D01*
X27686211Y-50241639D01*
X27742171Y-50069409D01*
X27770500Y-49890546D01*
X27770500Y-49709454D01*
X27770500Y-49709450D01*
X28009500Y-49709450D01*
X28009500Y-49890549D01*
X28037828Y-50069406D01*
X28093788Y-50241637D01*
X28175190Y-50401398D01*
X28176004Y-50402994D01*
X28282447Y-50549501D01*
X28410499Y-50677553D01*
X28557006Y-50783996D01*
X28718361Y-50866211D01*
X28890591Y-50922171D01*
X28962136Y-50933502D01*
X29069451Y-50950500D01*
X29069454Y-50950500D01*
X29250549Y-50950500D01*
X29339977Y-50936335D01*
X29429409Y-50922171D01*
X29601639Y-50866211D01*
X29601642Y-50866209D01*
X29601646Y-50866208D01*
X29705608Y-50813235D01*
X29752527Y-50789329D01*
X29752530Y-50789328D01*
X29756166Y-50787474D01*
X29762994Y-50783996D01*
X29909501Y-50677553D01*
X30037553Y-50549501D01*
X30143996Y-50402994D01*
X30226211Y-50241639D01*
X30230962Y-50227018D01*
X30266924Y-50177517D01*
X30325115Y-50158608D01*
X30383306Y-50177514D01*
X30419271Y-50227013D01*
X30419272Y-50227015D01*
X30448904Y-50318215D01*
X30545376Y-50507553D01*
X30545380Y-50507559D01*
X30584728Y-50561716D01*
X30584729Y-50561716D01*
X31217037Y-49929407D01*
X31234075Y-49992993D01*
X31299901Y-50107007D01*
X31392993Y-50200099D01*
X31507007Y-50265925D01*
X31570589Y-50282962D01*
X30938282Y-50915269D01*
X30938282Y-50915270D01*
X30992440Y-50954619D01*
X30992446Y-50954623D01*
X31181784Y-51051095D01*
X31383878Y-51116759D01*
X31593750Y-51150000D01*
X31806250Y-51150000D01*
X32016121Y-51116759D01*
X32218215Y-51051095D01*
X32407556Y-50954620D01*
X32461716Y-50915270D01*
X31829408Y-50282962D01*
X31892993Y-50265925D01*
X32007007Y-50200099D01*
X32100099Y-50107007D01*
X32165925Y-49992993D01*
X32182962Y-49929408D01*
X32815270Y-50561716D01*
X32854622Y-50507554D01*
X32881789Y-50454235D01*
X32925053Y-50410970D01*
X32985485Y-50401398D01*
X33040002Y-50429175D01*
X33058209Y-50454234D01*
X33085376Y-50507553D01*
X33085380Y-50507559D01*
X33124728Y-50561716D01*
X33124729Y-50561716D01*
X33757037Y-49929407D01*
X33774075Y-49992993D01*
X33839901Y-50107007D01*
X33932993Y-50200099D01*
X34047007Y-50265925D01*
X34110589Y-50282962D01*
X33478282Y-50915269D01*
X33478282Y-50915270D01*
X33532440Y-50954619D01*
X33532446Y-50954623D01*
X33721784Y-51051095D01*
X33923878Y-51116759D01*
X34133750Y-51150000D01*
X34346250Y-51150000D01*
X34556121Y-51116759D01*
X34758215Y-51051095D01*
X34947556Y-50954620D01*
X35001716Y-50915270D01*
X34369408Y-50282962D01*
X34432993Y-50265925D01*
X34547007Y-50200099D01*
X34640099Y-50107007D01*
X34705925Y-49992993D01*
X34722962Y-49929408D01*
X35355270Y-50561716D01*
X35394620Y-50507556D01*
X35491096Y-50318213D01*
X35520727Y-50227016D01*
X35556690Y-50177516D01*
X35614881Y-50158608D01*
X35673072Y-50177515D01*
X35709036Y-50227013D01*
X35713788Y-50241637D01*
X35795190Y-50401398D01*
X35796004Y-50402994D01*
X35902447Y-50549501D01*
X36030499Y-50677553D01*
X36177006Y-50783996D01*
X36338361Y-50866211D01*
X36510591Y-50922171D01*
X36582136Y-50933502D01*
X36689451Y-50950500D01*
X36689454Y-50950500D01*
X36870549Y-50950500D01*
X36959977Y-50936335D01*
X37049409Y-50922171D01*
X37221639Y-50866211D01*
X37382994Y-50783996D01*
X37529501Y-50677553D01*
X37657553Y-50549501D01*
X37763996Y-50402994D01*
X37846211Y-50241639D01*
X37902171Y-50069409D01*
X37930500Y-49890546D01*
X37930500Y-49709454D01*
X37930500Y-49709450D01*
X37902171Y-49530593D01*
X37902171Y-49530591D01*
X37846211Y-49358361D01*
X37763996Y-49197006D01*
X37657553Y-49050499D01*
X37529501Y-48922447D01*
X37505666Y-48905130D01*
X40849500Y-48905130D01*
X40849500Y-50694860D01*
X40849501Y-50694863D01*
X40852414Y-50719990D01*
X40877756Y-50777385D01*
X40897794Y-50822765D01*
X40977235Y-50902206D01*
X41080009Y-50947585D01*
X41105135Y-50950500D01*
X42894864Y-50950499D01*
X42919991Y-50947585D01*
X43022765Y-50902206D01*
X43102206Y-50822765D01*
X43147585Y-50719991D01*
X43150500Y-50694865D01*
X43150499Y-49709450D01*
X43389500Y-49709450D01*
X43389500Y-49890549D01*
X43417828Y-50069406D01*
X43473788Y-50241637D01*
X43555190Y-50401398D01*
X43556004Y-50402994D01*
X43662447Y-50549501D01*
X43790499Y-50677553D01*
X43937006Y-50783996D01*
X44098361Y-50866211D01*
X44270591Y-50922171D01*
X44342136Y-50933502D01*
X44449451Y-50950500D01*
X44449454Y-50950500D01*
X44630549Y-50950500D01*
X44719977Y-50936335D01*
X44809409Y-50922171D01*
X44981639Y-50866211D01*
X45142994Y-50783996D01*
X45289501Y-50677553D01*
X45417553Y-50549501D01*
X45523996Y-50402994D01*
X45606211Y-50241639D01*
X45662171Y-50069409D01*
X45690500Y-49890546D01*
X45690500Y-49709454D01*
X45690500Y-49709450D01*
X45929500Y-49709450D01*
X45929500Y-49890549D01*
X45957828Y-50069406D01*
X46013788Y-50241637D01*
X46095190Y-50401398D01*
X46096004Y-50402994D01*
X46202447Y-50549501D01*
X46330499Y-50677553D01*
X46477006Y-50783996D01*
X46638361Y-50866211D01*
X46810591Y-50922171D01*
X46882136Y-50933502D01*
X46989451Y-50950500D01*
X46989454Y-50950500D01*
X47170549Y-50950500D01*
X47259977Y-50936335D01*
X47349409Y-50922171D01*
X47521639Y-50866211D01*
X47682994Y-50783996D01*
X47829501Y-50677553D01*
X47957553Y-50549501D01*
X48063996Y-50402994D01*
X48146211Y-50241639D01*
X48202171Y-50069409D01*
X48230500Y-49890546D01*
X48230500Y-49709454D01*
X48230500Y-49709450D01*
X48469500Y-49709450D01*
X48469500Y-49890549D01*
X48497828Y-50069406D01*
X48553788Y-50241637D01*
X48635190Y-50401398D01*
X48636004Y-50402994D01*
X48742447Y-50549501D01*
X48870499Y-50677553D01*
X49017006Y-50783996D01*
X49178361Y-50866211D01*
X49350591Y-50922171D01*
X49422136Y-50933502D01*
X49529451Y-50950500D01*
X49529454Y-50950500D01*
X49710549Y-50950500D01*
X49799977Y-50936335D01*
X49889409Y-50922171D01*
X50061639Y-50866211D01*
X50222994Y-50783996D01*
X50369501Y-50677553D01*
X50497553Y-50549501D01*
X50603996Y-50402994D01*
X50686211Y-50241639D01*
X50742171Y-50069409D01*
X50770500Y-49890546D01*
X50770500Y-49709454D01*
X50770500Y-49709450D01*
X51009500Y-49709450D01*
X51009500Y-49890549D01*
X51037828Y-50069406D01*
X51093788Y-50241637D01*
X51175190Y-50401398D01*
X51176004Y-50402994D01*
X51282447Y-50549501D01*
X51410499Y-50677553D01*
X51557006Y-50783996D01*
X51718361Y-50866211D01*
X51890591Y-50922171D01*
X51962136Y-50933502D01*
X52069451Y-50950500D01*
X52069454Y-50950500D01*
X52250549Y-50950500D01*
X52339977Y-50936335D01*
X52429409Y-50922171D01*
X52601639Y-50866211D01*
X52762994Y-50783996D01*
X52909501Y-50677553D01*
X53037553Y-50549501D01*
X53143996Y-50402994D01*
X53226211Y-50241639D01*
X53282171Y-50069409D01*
X53310500Y-49890546D01*
X53310500Y-49709454D01*
X53310500Y-49709450D01*
X53549500Y-49709450D01*
X53549500Y-49890549D01*
X53577828Y-50069406D01*
X53633788Y-50241637D01*
X53715190Y-50401398D01*
X53716004Y-50402994D01*
X53822447Y-50549501D01*
X53950499Y-50677553D01*
X54097006Y-50783996D01*
X54258361Y-50866211D01*
X54430591Y-50922171D01*
X54502136Y-50933502D01*
X54609451Y-50950500D01*
X54609454Y-50950500D01*
X54790549Y-50950500D01*
X54879977Y-50936335D01*
X54969409Y-50922171D01*
X55141639Y-50866211D01*
X55302994Y-50783996D01*
X55449501Y-50677553D01*
X55577553Y-50549501D01*
X55683996Y-50402994D01*
X55766211Y-50241639D01*
X55822171Y-50069409D01*
X55850500Y-49890546D01*
X55850500Y-49709454D01*
X55850500Y-49709450D01*
X55822171Y-49530593D01*
X55822171Y-49530591D01*
X55766211Y-49358361D01*
X55683996Y-49197006D01*
X55577553Y-49050499D01*
X55449501Y-48922447D01*
X55302994Y-48816004D01*
X55302993Y-48816003D01*
X55302991Y-48816002D01*
X55141637Y-48733788D01*
X54969406Y-48677828D01*
X54790549Y-48649500D01*
X54790546Y-48649500D01*
X54609454Y-48649500D01*
X54609451Y-48649500D01*
X54430593Y-48677828D01*
X54258362Y-48733788D01*
X54097008Y-48816002D01*
X54023752Y-48869225D01*
X53950499Y-48922447D01*
X53822447Y-49050499D01*
X53791975Y-49092440D01*
X53716002Y-49197008D01*
X53633788Y-49358362D01*
X53577828Y-49530593D01*
X53549500Y-49709450D01*
X53310500Y-49709450D01*
X53282171Y-49530593D01*
X53282171Y-49530591D01*
X53226211Y-49358361D01*
X53143996Y-49197006D01*
X53037553Y-49050499D01*
X52909501Y-48922447D01*
X52762994Y-48816004D01*
X52762993Y-48816003D01*
X52762991Y-48816002D01*
X52601637Y-48733788D01*
X52429406Y-48677828D01*
X52250549Y-48649500D01*
X52250546Y-48649500D01*
X52069454Y-48649500D01*
X52069451Y-48649500D01*
X51890593Y-48677828D01*
X51718362Y-48733788D01*
X51557008Y-48816002D01*
X51483752Y-48869225D01*
X51410499Y-48922447D01*
X51282447Y-49050499D01*
X51251975Y-49092440D01*
X51176002Y-49197008D01*
X51093788Y-49358362D01*
X51037828Y-49530593D01*
X51009500Y-49709450D01*
X50770500Y-49709450D01*
X50742171Y-49530593D01*
X50742171Y-49530591D01*
X50686211Y-49358361D01*
X50603996Y-49197006D01*
X50497553Y-49050499D01*
X50369501Y-48922447D01*
X50222994Y-48816004D01*
X50222993Y-48816003D01*
X50222991Y-48816002D01*
X50061637Y-48733788D01*
X49889406Y-48677828D01*
X49710549Y-48649500D01*
X49710546Y-48649500D01*
X49529454Y-48649500D01*
X49529451Y-48649500D01*
X49350593Y-48677828D01*
X49178362Y-48733788D01*
X49017008Y-48816002D01*
X48943752Y-48869225D01*
X48870499Y-48922447D01*
X48742447Y-49050499D01*
X48711975Y-49092440D01*
X48636002Y-49197008D01*
X48553788Y-49358362D01*
X48497828Y-49530593D01*
X48469500Y-49709450D01*
X48230500Y-49709450D01*
X48202171Y-49530593D01*
X48202171Y-49530591D01*
X48146211Y-49358361D01*
X48063996Y-49197006D01*
X47957553Y-49050499D01*
X47829501Y-48922447D01*
X47682994Y-48816004D01*
X47682993Y-48816003D01*
X47682991Y-48816002D01*
X47521637Y-48733788D01*
X47349406Y-48677828D01*
X47170549Y-48649500D01*
X47170546Y-48649500D01*
X46989454Y-48649500D01*
X46989451Y-48649500D01*
X46810593Y-48677828D01*
X46638362Y-48733788D01*
X46477008Y-48816002D01*
X46403752Y-48869225D01*
X46330499Y-48922447D01*
X46202447Y-49050499D01*
X46171975Y-49092440D01*
X46096002Y-49197008D01*
X46013788Y-49358362D01*
X45957828Y-49530593D01*
X45929500Y-49709450D01*
X45690500Y-49709450D01*
X45662171Y-49530593D01*
X45662171Y-49530591D01*
X45606211Y-49358361D01*
X45523996Y-49197006D01*
X45417553Y-49050499D01*
X45289501Y-48922447D01*
X45142994Y-48816004D01*
X45142993Y-48816003D01*
X45142991Y-48816002D01*
X44981637Y-48733788D01*
X44809406Y-48677828D01*
X44630549Y-48649500D01*
X44630546Y-48649500D01*
X44449454Y-48649500D01*
X44449451Y-48649500D01*
X44270593Y-48677828D01*
X44098362Y-48733788D01*
X43937008Y-48816002D01*
X43863752Y-48869225D01*
X43790499Y-48922447D01*
X43662447Y-49050499D01*
X43631975Y-49092440D01*
X43556002Y-49197008D01*
X43473788Y-49358362D01*
X43417828Y-49530593D01*
X43389500Y-49709450D01*
X43150499Y-49709450D01*
X43150499Y-48905136D01*
X43147585Y-48880009D01*
X43102206Y-48777235D01*
X43022765Y-48697794D01*
X42919991Y-48652415D01*
X42919990Y-48652414D01*
X42919988Y-48652414D01*
X42894868Y-48649500D01*
X41105139Y-48649500D01*
X41105136Y-48649501D01*
X41080009Y-48652414D01*
X40977235Y-48697794D01*
X40897794Y-48777235D01*
X40852414Y-48880011D01*
X40849500Y-48905130D01*
X37505666Y-48905130D01*
X37382994Y-48816004D01*
X37382993Y-48816003D01*
X37382991Y-48816002D01*
X37221637Y-48733788D01*
X37049406Y-48677828D01*
X36870549Y-48649500D01*
X36870546Y-48649500D01*
X36689454Y-48649500D01*
X36689451Y-48649500D01*
X36510593Y-48677828D01*
X36338362Y-48733788D01*
X36177008Y-48816002D01*
X36103752Y-48869225D01*
X36030499Y-48922447D01*
X35902447Y-49050499D01*
X35871975Y-49092440D01*
X35796002Y-49197008D01*
X35713787Y-49358364D01*
X35713786Y-49358366D01*
X35709035Y-49372988D01*
X35673069Y-49422486D01*
X35614878Y-49441391D01*
X35556688Y-49422481D01*
X35520727Y-49372983D01*
X35491096Y-49281786D01*
X35394623Y-49092446D01*
X35394619Y-49092440D01*
X35355270Y-49038282D01*
X35355269Y-49038282D01*
X34722962Y-49670589D01*
X34705925Y-49607007D01*
X34640099Y-49492993D01*
X34547007Y-49399901D01*
X34432993Y-49334075D01*
X34369407Y-49317037D01*
X35001716Y-48684729D01*
X35001716Y-48684728D01*
X34947559Y-48645380D01*
X34947553Y-48645376D01*
X34758215Y-48548904D01*
X34556121Y-48483240D01*
X34346250Y-48450000D01*
X34133750Y-48450000D01*
X33923878Y-48483240D01*
X33721784Y-48548904D01*
X33532446Y-48645376D01*
X33532442Y-48645378D01*
X33478282Y-48684728D01*
X34110591Y-49317037D01*
X34047007Y-49334075D01*
X33932993Y-49399901D01*
X33839901Y-49492993D01*
X33774075Y-49607007D01*
X33757037Y-49670591D01*
X33124728Y-49038282D01*
X33085378Y-49092442D01*
X33085376Y-49092446D01*
X33058210Y-49145764D01*
X33014945Y-49189029D01*
X32954513Y-49198600D01*
X32899996Y-49170822D01*
X32881790Y-49145764D01*
X32854623Y-49092446D01*
X32854619Y-49092440D01*
X32815270Y-49038282D01*
X32815269Y-49038282D01*
X32182962Y-49670589D01*
X32165925Y-49607007D01*
X32100099Y-49492993D01*
X32007007Y-49399901D01*
X31892993Y-49334075D01*
X31829407Y-49317037D01*
X32461716Y-48684729D01*
X32461716Y-48684728D01*
X32407559Y-48645380D01*
X32407553Y-48645376D01*
X32218215Y-48548904D01*
X32016121Y-48483240D01*
X31806250Y-48450000D01*
X31593750Y-48450000D01*
X31383878Y-48483240D01*
X31181784Y-48548904D01*
X30992446Y-48645376D01*
X30992442Y-48645378D01*
X30938282Y-48684728D01*
X31570591Y-49317037D01*
X31507007Y-49334075D01*
X31392993Y-49399901D01*
X31299901Y-49492993D01*
X31234075Y-49607007D01*
X31217037Y-49670591D01*
X30584728Y-49038282D01*
X30545378Y-49092442D01*
X30545376Y-49092446D01*
X30448904Y-49281784D01*
X30419272Y-49372984D01*
X30383308Y-49422484D01*
X30325117Y-49441391D01*
X30266926Y-49422484D01*
X30230962Y-49372984D01*
X30230962Y-49372983D01*
X30229824Y-49369483D01*
X30226211Y-49358361D01*
X30143996Y-49197006D01*
X30037553Y-49050499D01*
X29909501Y-48922447D01*
X29762994Y-48816004D01*
X29762990Y-48816001D01*
X29762988Y-48816000D01*
X29752527Y-48810670D01*
X29752526Y-48810670D01*
X29601637Y-48733788D01*
X29429406Y-48677828D01*
X29250549Y-48649500D01*
X29250546Y-48649500D01*
X29069454Y-48649500D01*
X29069451Y-48649500D01*
X28890593Y-48677828D01*
X28718362Y-48733788D01*
X28557008Y-48816002D01*
X28483752Y-48869225D01*
X28410499Y-48922447D01*
X28282447Y-49050499D01*
X28251975Y-49092440D01*
X28176002Y-49197008D01*
X28093788Y-49358362D01*
X28037828Y-49530593D01*
X28009500Y-49709450D01*
X27770500Y-49709450D01*
X27742171Y-49530593D01*
X27742171Y-49530591D01*
X27686211Y-49358361D01*
X27603996Y-49197006D01*
X27497553Y-49050499D01*
X27369501Y-48922447D01*
X27222994Y-48816004D01*
X27222993Y-48816003D01*
X27222991Y-48816002D01*
X27061637Y-48733788D01*
X26889406Y-48677828D01*
X26710549Y-48649500D01*
X26710546Y-48649500D01*
X26529454Y-48649500D01*
X26529451Y-48649500D01*
X26350593Y-48677828D01*
X26178362Y-48733788D01*
X26017008Y-48816002D01*
X25943752Y-48869225D01*
X25870499Y-48922447D01*
X25742447Y-49050499D01*
X25711975Y-49092440D01*
X25636002Y-49197008D01*
X25553788Y-49358362D01*
X25497828Y-49530593D01*
X25469500Y-49709450D01*
X25230500Y-49709450D01*
X25202171Y-49530593D01*
X25202171Y-49530591D01*
X25146211Y-49358361D01*
X25063996Y-49197006D01*
X24957553Y-49050499D01*
X24829501Y-48922447D01*
X24682994Y-48816004D01*
X24682993Y-48816003D01*
X24682991Y-48816002D01*
X24521637Y-48733788D01*
X24349406Y-48677828D01*
X24170549Y-48649500D01*
X24170546Y-48649500D01*
X23989454Y-48649500D01*
X23989451Y-48649500D01*
X23810593Y-48677828D01*
X23638362Y-48733788D01*
X23477008Y-48816002D01*
X23403752Y-48869225D01*
X23330499Y-48922447D01*
X23202447Y-49050499D01*
X23171975Y-49092440D01*
X23096002Y-49197008D01*
X23013788Y-49358362D01*
X22957828Y-49530593D01*
X22929500Y-49709450D01*
X22690500Y-49709450D01*
X22662171Y-49530593D01*
X22662171Y-49530591D01*
X22606211Y-49358361D01*
X22523996Y-49197006D01*
X22417553Y-49050499D01*
X22289501Y-48922447D01*
X22142994Y-48816004D01*
X22142993Y-48816003D01*
X22142991Y-48816002D01*
X21981637Y-48733788D01*
X21809406Y-48677828D01*
X21630549Y-48649500D01*
X21630546Y-48649500D01*
X21449454Y-48649500D01*
X21449451Y-48649500D01*
X21270593Y-48677828D01*
X21098362Y-48733788D01*
X20937008Y-48816002D01*
X20863752Y-48869225D01*
X20790499Y-48922447D01*
X20662447Y-49050499D01*
X20631975Y-49092440D01*
X20556002Y-49197008D01*
X20473788Y-49358362D01*
X20417828Y-49530593D01*
X20389500Y-49709450D01*
X20150499Y-49709450D01*
X20150499Y-48905136D01*
X20147585Y-48880009D01*
X20102206Y-48777235D01*
X20022765Y-48697794D01*
X19919991Y-48652415D01*
X19919990Y-48652414D01*
X19919988Y-48652414D01*
X19894868Y-48649500D01*
X18105139Y-48649500D01*
X18105136Y-48649501D01*
X18080009Y-48652414D01*
X17977235Y-48697794D01*
X17897794Y-48777235D01*
X17852414Y-48880011D01*
X17849500Y-48905130D01*
X600000Y-48905130D01*
X600000Y-44897824D01*
X1649999Y-44897824D01*
X1656401Y-44957370D01*
X1656403Y-44957381D01*
X1706646Y-45092088D01*
X1706647Y-45092090D01*
X1792807Y-45207184D01*
X1792815Y-45207192D01*
X1907909Y-45293352D01*
X1907911Y-45293353D01*
X2042618Y-45343596D01*
X2042629Y-45343598D01*
X2102176Y-45350000D01*
X2749999Y-45350000D01*
X2750000Y-45349999D01*
X2750000Y-44433012D01*
X2807007Y-44465925D01*
X2934174Y-44500000D01*
X3065826Y-44500000D01*
X3192993Y-44465925D01*
X3250000Y-44433012D01*
X3250000Y-45349999D01*
X3250001Y-45350000D01*
X3897824Y-45350000D01*
X3957370Y-45343598D01*
X3957381Y-45343596D01*
X4092088Y-45293353D01*
X4092090Y-45293352D01*
X4207184Y-45207192D01*
X4207192Y-45207184D01*
X4293352Y-45092090D01*
X4293353Y-45092088D01*
X4343596Y-44957381D01*
X4343598Y-44957370D01*
X4350000Y-44897824D01*
X4350000Y-44611053D01*
X4368907Y-44552862D01*
X4418407Y-44516898D01*
X4479593Y-44516898D01*
X4529093Y-44552862D01*
X4537210Y-44566109D01*
X4556000Y-44602988D01*
X4556001Y-44602990D01*
X4556002Y-44602991D01*
X4556004Y-44602994D01*
X4662447Y-44749501D01*
X4790499Y-44877553D01*
X4937006Y-44983996D01*
X5098361Y-45066211D01*
X5270591Y-45122171D01*
X5342136Y-45133502D01*
X5449451Y-45150500D01*
X5449454Y-45150500D01*
X5630549Y-45150500D01*
X5719977Y-45136335D01*
X5809409Y-45122171D01*
X5981639Y-45066211D01*
X6142994Y-44983996D01*
X6289501Y-44877553D01*
X6417553Y-44749501D01*
X6523996Y-44602994D01*
X6606211Y-44441639D01*
X6662171Y-44269409D01*
X6690500Y-44090546D01*
X6690500Y-43909454D01*
X6690500Y-43909450D01*
X6929500Y-43909450D01*
X6929500Y-44090549D01*
X6957828Y-44269406D01*
X7013788Y-44441637D01*
X7096001Y-44602990D01*
X7096004Y-44602994D01*
X7202447Y-44749501D01*
X7330499Y-44877553D01*
X7477006Y-44983996D01*
X7638361Y-45066211D01*
X7810591Y-45122171D01*
X7882136Y-45133502D01*
X7989451Y-45150500D01*
X7989454Y-45150500D01*
X8170549Y-45150500D01*
X8259977Y-45136335D01*
X8349409Y-45122171D01*
X8521639Y-45066211D01*
X8682994Y-44983996D01*
X8829501Y-44877553D01*
X8957553Y-44749501D01*
X9063996Y-44602994D01*
X9146211Y-44441639D01*
X9202171Y-44269409D01*
X9230500Y-44090546D01*
X9230500Y-43909454D01*
X9230500Y-43909450D01*
X9469500Y-43909450D01*
X9469500Y-44090549D01*
X9497828Y-44269406D01*
X9553788Y-44441637D01*
X9636001Y-44602990D01*
X9636004Y-44602994D01*
X9742447Y-44749501D01*
X9870499Y-44877553D01*
X10017006Y-44983996D01*
X10178361Y-45066211D01*
X10350591Y-45122171D01*
X10422136Y-45133502D01*
X10529451Y-45150500D01*
X10529454Y-45150500D01*
X10710549Y-45150500D01*
X10799977Y-45136335D01*
X10889409Y-45122171D01*
X11061639Y-45066211D01*
X11222994Y-44983996D01*
X11369501Y-44877553D01*
X11497553Y-44749501D01*
X11603996Y-44602994D01*
X11686211Y-44441639D01*
X11742171Y-44269409D01*
X11770500Y-44090546D01*
X11770500Y-43909454D01*
X11770500Y-43909450D01*
X11742171Y-43730593D01*
X11742171Y-43730591D01*
X11686211Y-43558361D01*
X11603996Y-43397006D01*
X11497553Y-43250499D01*
X11369501Y-43122447D01*
X11222994Y-43016004D01*
X11222993Y-43016003D01*
X11222991Y-43016002D01*
X11061637Y-42933788D01*
X10889406Y-42877828D01*
X10710549Y-42849500D01*
X10710546Y-42849500D01*
X10529454Y-42849500D01*
X10529451Y-42849500D01*
X10350593Y-42877828D01*
X10178362Y-42933788D01*
X10017008Y-43016002D01*
X9943752Y-43069225D01*
X9870499Y-43122447D01*
X9742447Y-43250499D01*
X9689225Y-43323752D01*
X9636002Y-43397008D01*
X9553788Y-43558362D01*
X9497828Y-43730593D01*
X9469500Y-43909450D01*
X9230500Y-43909450D01*
X9202171Y-43730593D01*
X9202171Y-43730591D01*
X9146211Y-43558361D01*
X9063996Y-43397006D01*
X8957553Y-43250499D01*
X8829501Y-43122447D01*
X8682994Y-43016004D01*
X8682993Y-43016003D01*
X8682991Y-43016002D01*
X8521637Y-42933788D01*
X8349406Y-42877828D01*
X8170549Y-42849500D01*
X8170546Y-42849500D01*
X7989454Y-42849500D01*
X7989451Y-42849500D01*
X7810593Y-42877828D01*
X7638362Y-42933788D01*
X7477008Y-43016002D01*
X7403752Y-43069225D01*
X7330499Y-43122447D01*
X7202447Y-43250499D01*
X7149225Y-43323752D01*
X7096002Y-43397008D01*
X7013788Y-43558362D01*
X6957828Y-43730593D01*
X6929500Y-43909450D01*
X6690500Y-43909450D01*
X6662171Y-43730593D01*
X6662171Y-43730591D01*
X6606211Y-43558361D01*
X6523996Y-43397006D01*
X6417553Y-43250499D01*
X6289501Y-43122447D01*
X6142994Y-43016004D01*
X6142993Y-43016003D01*
X6142991Y-43016002D01*
X5981637Y-42933788D01*
X5809406Y-42877828D01*
X5630549Y-42849500D01*
X5630546Y-42849500D01*
X5449454Y-42849500D01*
X5449451Y-42849500D01*
X5270593Y-42877828D01*
X5098362Y-42933788D01*
X4937008Y-43016002D01*
X4863752Y-43069225D01*
X4790499Y-43122447D01*
X4662447Y-43250499D01*
X4609225Y-43323752D01*
X4556002Y-43397008D01*
X4537210Y-43433891D01*
X4493945Y-43477156D01*
X4433513Y-43486727D01*
X4378996Y-43458949D01*
X4351219Y-43404433D01*
X4350000Y-43388946D01*
X4350000Y-43102175D01*
X4343598Y-43042629D01*
X4343596Y-43042618D01*
X4293353Y-42907911D01*
X4293352Y-42907909D01*
X4207192Y-42792815D01*
X4207184Y-42792807D01*
X4092090Y-42706647D01*
X4092088Y-42706646D01*
X3957381Y-42656403D01*
X3957370Y-42656401D01*
X3897824Y-42650000D01*
X3250001Y-42650000D01*
X3250000Y-42650001D01*
X3250000Y-43566988D01*
X3192993Y-43534075D01*
X3065826Y-43500000D01*
X2934174Y-43500000D01*
X2807007Y-43534075D01*
X2750000Y-43566988D01*
X2750000Y-42650001D01*
X2749999Y-42650000D01*
X2102176Y-42650000D01*
X2042629Y-42656401D01*
X2042618Y-42656403D01*
X1907911Y-42706646D01*
X1907909Y-42706647D01*
X1792815Y-42792807D01*
X1792807Y-42792815D01*
X1706647Y-42907909D01*
X1706646Y-42907911D01*
X1656403Y-43042618D01*
X1656401Y-43042629D01*
X1650000Y-43102175D01*
X1650000Y-43749999D01*
X1650001Y-43750000D01*
X2566988Y-43750000D01*
X2534075Y-43807007D01*
X2500000Y-43934174D01*
X2500000Y-44065826D01*
X2534075Y-44192993D01*
X2566988Y-44250000D01*
X1650001Y-44250000D01*
X1650000Y-44250001D01*
X1650000Y-44897824D01*
X1649999Y-44897824D01*
X600000Y-44897824D01*
X600000Y-40849450D01*
X26849500Y-40849450D01*
X26849500Y-41030549D01*
X26877828Y-41209406D01*
X26877829Y-41209409D01*
X26933789Y-41381639D01*
X27016004Y-41542994D01*
X27122447Y-41689501D01*
X27250499Y-41817553D01*
X27397006Y-41923996D01*
X27558361Y-42006211D01*
X27730591Y-42062171D01*
X27802136Y-42073502D01*
X27909451Y-42090500D01*
X27909454Y-42090500D01*
X28090549Y-42090500D01*
X28179977Y-42076335D01*
X28269409Y-42062171D01*
X28441639Y-42006211D01*
X28602994Y-41923996D01*
X28749501Y-41817553D01*
X28877553Y-41689501D01*
X28983996Y-41542994D01*
X29066211Y-41381639D01*
X29122171Y-41209409D01*
X29150500Y-41030546D01*
X29150500Y-40849454D01*
X29150500Y-40849450D01*
X29389500Y-40849450D01*
X29389500Y-41030549D01*
X29417828Y-41209406D01*
X29417829Y-41209409D01*
X29473789Y-41381639D01*
X29556004Y-41542994D01*
X29662447Y-41689501D01*
X29790499Y-41817553D01*
X29937006Y-41923996D01*
X30098361Y-42006211D01*
X30270591Y-42062171D01*
X30342136Y-42073502D01*
X30449451Y-42090500D01*
X30449454Y-42090500D01*
X30630549Y-42090500D01*
X30719977Y-42076335D01*
X30809409Y-42062171D01*
X30981639Y-42006211D01*
X31142994Y-41923996D01*
X31289501Y-41817553D01*
X31417553Y-41689501D01*
X31523996Y-41542994D01*
X31606211Y-41381639D01*
X31662171Y-41209409D01*
X31690500Y-41030546D01*
X31690500Y-40849454D01*
X31690500Y-40849450D01*
X31929500Y-40849450D01*
X31929500Y-41030549D01*
X31957828Y-41209406D01*
X31957829Y-41209409D01*
X32013789Y-41381639D01*
X32096004Y-41542994D01*
X32202447Y-41689501D01*
X32330499Y-41817553D01*
X32477006Y-41923996D01*
X32638361Y-42006211D01*
X32810591Y-42062171D01*
X32882136Y-42073502D01*
X32989451Y-42090500D01*
X32989454Y-42090500D01*
X33170549Y-42090500D01*
X33259977Y-42076335D01*
X33349409Y-42062171D01*
X33521639Y-42006211D01*
X33682994Y-41923996D01*
X33829501Y-41817553D01*
X33957553Y-41689501D01*
X34063996Y-41542994D01*
X34146211Y-41381639D01*
X34202171Y-41209409D01*
X34230500Y-41030546D01*
X34230500Y-40849454D01*
X34230500Y-40849450D01*
X34469500Y-40849450D01*
X34469500Y-41030549D01*
X34497828Y-41209406D01*
X34497829Y-41209409D01*
X34553789Y-41381639D01*
X34636004Y-41542994D01*
X34742447Y-41689501D01*
X34870499Y-41817553D01*
X35017006Y-41923996D01*
X35178361Y-42006211D01*
X35350591Y-42062171D01*
X35422136Y-42073502D01*
X35529451Y-42090500D01*
X35529454Y-42090500D01*
X35710549Y-42090500D01*
X35799977Y-42076335D01*
X35889409Y-42062171D01*
X36061639Y-42006211D01*
X36222994Y-41923996D01*
X36369501Y-41817553D01*
X36497553Y-41689501D01*
X36603996Y-41542994D01*
X36686211Y-41381639D01*
X36742171Y-41209409D01*
X36770500Y-41030546D01*
X36770500Y-40849454D01*
X36770500Y-40849450D01*
X36742171Y-40670593D01*
X36742171Y-40670591D01*
X36686211Y-40498361D01*
X36603996Y-40337006D01*
X36497553Y-40190499D01*
X36369501Y-40062447D01*
X36222994Y-39956004D01*
X36222993Y-39956003D01*
X36222991Y-39956002D01*
X36061637Y-39873788D01*
X35889406Y-39817828D01*
X35710549Y-39789500D01*
X35710546Y-39789500D01*
X35529454Y-39789500D01*
X35529451Y-39789500D01*
X35350593Y-39817828D01*
X35178362Y-39873788D01*
X35017008Y-39956002D01*
X34943752Y-40009225D01*
X34870499Y-40062447D01*
X34742447Y-40190499D01*
X34689225Y-40263752D01*
X34636002Y-40337008D01*
X34553788Y-40498362D01*
X34497828Y-40670593D01*
X34469500Y-40849450D01*
X34230500Y-40849450D01*
X34202171Y-40670593D01*
X34202171Y-40670591D01*
X34146211Y-40498361D01*
X34063996Y-40337006D01*
X33957553Y-40190499D01*
X33829501Y-40062447D01*
X33682994Y-39956004D01*
X33682993Y-39956003D01*
X33682991Y-39956002D01*
X33521637Y-39873788D01*
X33349406Y-39817828D01*
X33170549Y-39789500D01*
X33170546Y-39789500D01*
X32989454Y-39789500D01*
X32989451Y-39789500D01*
X32810593Y-39817828D01*
X32638362Y-39873788D01*
X32477008Y-39956002D01*
X32403752Y-40009225D01*
X32330499Y-40062447D01*
X32202447Y-40190499D01*
X32149225Y-40263752D01*
X32096002Y-40337008D01*
X32013788Y-40498362D01*
X31957828Y-40670593D01*
X31929500Y-40849450D01*
X31690500Y-40849450D01*
X31662171Y-40670593D01*
X31662171Y-40670591D01*
X31606211Y-40498361D01*
X31523996Y-40337006D01*
X31417553Y-40190499D01*
X31289501Y-40062447D01*
X31142994Y-39956004D01*
X31142993Y-39956003D01*
X31142991Y-39956002D01*
X30981637Y-39873788D01*
X30809406Y-39817828D01*
X30630549Y-39789500D01*
X30630546Y-39789500D01*
X30449454Y-39789500D01*
X30449451Y-39789500D01*
X30270593Y-39817828D01*
X30098362Y-39873788D01*
X29937008Y-39956002D01*
X29863752Y-40009225D01*
X29790499Y-40062447D01*
X29662447Y-40190499D01*
X29609225Y-40263752D01*
X29556002Y-40337008D01*
X29473788Y-40498362D01*
X29417828Y-40670593D01*
X29389500Y-40849450D01*
X29150500Y-40849450D01*
X29122171Y-40670593D01*
X29122171Y-40670591D01*
X29066211Y-40498361D01*
X28983996Y-40337006D01*
X28877553Y-40190499D01*
X28749501Y-40062447D01*
X28602994Y-39956004D01*
X28602993Y-39956003D01*
X28602991Y-39956002D01*
X28441637Y-39873788D01*
X28269406Y-39817828D01*
X28090549Y-39789500D01*
X28090546Y-39789500D01*
X27909454Y-39789500D01*
X27909451Y-39789500D01*
X27730593Y-39817828D01*
X27558362Y-39873788D01*
X27397008Y-39956002D01*
X27323752Y-40009225D01*
X27250499Y-40062447D01*
X27122447Y-40190499D01*
X27069225Y-40263752D01*
X27016002Y-40337008D01*
X26933788Y-40498362D01*
X26877828Y-40670593D01*
X26849500Y-40849450D01*
X600000Y-40849450D01*
X600000Y-38309450D01*
X26849500Y-38309450D01*
X26849500Y-38490549D01*
X26877828Y-38669406D01*
X26877829Y-38669409D01*
X26933789Y-38841639D01*
X27016004Y-39002994D01*
X27122447Y-39149501D01*
X27250499Y-39277553D01*
X27397006Y-39383996D01*
X27558361Y-39466211D01*
X27730591Y-39522171D01*
X27802136Y-39533502D01*
X27909451Y-39550500D01*
X27909454Y-39550500D01*
X28090549Y-39550500D01*
X28179977Y-39536335D01*
X28269409Y-39522171D01*
X28441639Y-39466211D01*
X28602994Y-39383996D01*
X28749501Y-39277553D01*
X28877553Y-39149501D01*
X28983996Y-39002994D01*
X29066211Y-38841639D01*
X29122171Y-38669409D01*
X29150500Y-38490546D01*
X29150500Y-38309454D01*
X29150500Y-38309450D01*
X29389500Y-38309450D01*
X29389500Y-38490549D01*
X29417828Y-38669406D01*
X29417829Y-38669409D01*
X29473789Y-38841639D01*
X29556004Y-39002994D01*
X29662447Y-39149501D01*
X29790499Y-39277553D01*
X29937006Y-39383996D01*
X30098361Y-39466211D01*
X30270591Y-39522171D01*
X30342136Y-39533502D01*
X30449451Y-39550500D01*
X30449454Y-39550500D01*
X30630549Y-39550500D01*
X30719977Y-39536335D01*
X30809409Y-39522171D01*
X30981639Y-39466211D01*
X31142994Y-39383996D01*
X31289501Y-39277553D01*
X31417553Y-39149501D01*
X31523996Y-39002994D01*
X31606211Y-38841639D01*
X31662171Y-38669409D01*
X31690500Y-38490546D01*
X31690500Y-38309454D01*
X31690500Y-38309450D01*
X31929500Y-38309450D01*
X31929500Y-38490549D01*
X31957828Y-38669406D01*
X31957829Y-38669409D01*
X32013789Y-38841639D01*
X32096004Y-39002994D01*
X32202447Y-39149501D01*
X32330499Y-39277553D01*
X32477006Y-39383996D01*
X32638361Y-39466211D01*
X32810591Y-39522171D01*
X32882136Y-39533502D01*
X32989451Y-39550500D01*
X32989454Y-39550500D01*
X33170549Y-39550500D01*
X33259977Y-39536335D01*
X33349409Y-39522171D01*
X33521639Y-39466211D01*
X33682994Y-39383996D01*
X33829501Y-39277553D01*
X33957553Y-39149501D01*
X34063996Y-39002994D01*
X34146211Y-38841639D01*
X34202171Y-38669409D01*
X34230500Y-38490546D01*
X34230500Y-38309454D01*
X34230500Y-38309450D01*
X34469500Y-38309450D01*
X34469500Y-38490549D01*
X34497828Y-38669406D01*
X34497829Y-38669409D01*
X34553789Y-38841639D01*
X34636004Y-39002994D01*
X34742447Y-39149501D01*
X34870499Y-39277553D01*
X35017006Y-39383996D01*
X35178361Y-39466211D01*
X35350591Y-39522171D01*
X35422136Y-39533502D01*
X35529451Y-39550500D01*
X35529454Y-39550500D01*
X35710549Y-39550500D01*
X35799977Y-39536335D01*
X35889409Y-39522171D01*
X36061639Y-39466211D01*
X36222994Y-39383996D01*
X36369501Y-39277553D01*
X36497553Y-39149501D01*
X36603996Y-39002994D01*
X36686211Y-38841639D01*
X36742171Y-38669409D01*
X36770500Y-38490546D01*
X36770500Y-38309454D01*
X36770500Y-38309450D01*
X36742171Y-38130593D01*
X36742171Y-38130591D01*
X36686211Y-37958361D01*
X36603996Y-37797006D01*
X36497553Y-37650499D01*
X36369501Y-37522447D01*
X36222994Y-37416004D01*
X36222993Y-37416003D01*
X36222991Y-37416002D01*
X36061637Y-37333788D01*
X35889406Y-37277828D01*
X35710549Y-37249500D01*
X35710546Y-37249500D01*
X35529454Y-37249500D01*
X35529451Y-37249500D01*
X35350593Y-37277828D01*
X35178362Y-37333788D01*
X35017008Y-37416002D01*
X34943752Y-37469225D01*
X34870499Y-37522447D01*
X34742447Y-37650499D01*
X34694185Y-37716926D01*
X34636002Y-37797008D01*
X34553788Y-37958362D01*
X34497828Y-38130593D01*
X34469500Y-38309450D01*
X34230500Y-38309450D01*
X34202171Y-38130593D01*
X34202171Y-38130591D01*
X34146211Y-37958361D01*
X34063996Y-37797006D01*
X33957553Y-37650499D01*
X33829501Y-37522447D01*
X33682994Y-37416004D01*
X33682993Y-37416003D01*
X33682991Y-37416002D01*
X33521637Y-37333788D01*
X33349406Y-37277828D01*
X33170549Y-37249500D01*
X33170546Y-37249500D01*
X32989454Y-37249500D01*
X32989451Y-37249500D01*
X32810593Y-37277828D01*
X32638362Y-37333788D01*
X32477008Y-37416002D01*
X32403752Y-37469225D01*
X32330499Y-37522447D01*
X32202447Y-37650499D01*
X32154185Y-37716926D01*
X32096002Y-37797008D01*
X32013788Y-37958362D01*
X31957828Y-38130593D01*
X31929500Y-38309450D01*
X31690500Y-38309450D01*
X31662171Y-38130593D01*
X31662171Y-38130591D01*
X31606211Y-37958361D01*
X31523996Y-37797006D01*
X31417553Y-37650499D01*
X31289501Y-37522447D01*
X31142994Y-37416004D01*
X31142993Y-37416003D01*
X31142991Y-37416002D01*
X30981637Y-37333788D01*
X30809406Y-37277828D01*
X30630549Y-37249500D01*
X30630546Y-37249500D01*
X30449454Y-37249500D01*
X30449451Y-37249500D01*
X30270593Y-37277828D01*
X30098362Y-37333788D01*
X29937008Y-37416002D01*
X29863752Y-37469225D01*
X29790499Y-37522447D01*
X29662447Y-37650499D01*
X29614185Y-37716926D01*
X29556002Y-37797008D01*
X29473788Y-37958362D01*
X29417828Y-38130593D01*
X29389500Y-38309450D01*
X29150500Y-38309450D01*
X29122171Y-38130593D01*
X29122171Y-38130591D01*
X29066211Y-37958361D01*
X28983996Y-37797006D01*
X28877553Y-37650499D01*
X28749501Y-37522447D01*
X28602994Y-37416004D01*
X28602993Y-37416003D01*
X28602991Y-37416002D01*
X28441637Y-37333788D01*
X28269406Y-37277828D01*
X28090549Y-37249500D01*
X28090546Y-37249500D01*
X27909454Y-37249500D01*
X27909451Y-37249500D01*
X27730593Y-37277828D01*
X27558362Y-37333788D01*
X27397008Y-37416002D01*
X27323752Y-37469225D01*
X27250499Y-37522447D01*
X27122447Y-37650499D01*
X27074185Y-37716926D01*
X27016002Y-37797008D01*
X26933788Y-37958362D01*
X26877828Y-38130593D01*
X26849500Y-38309450D01*
X600000Y-38309450D01*
X600000Y-36913385D01*
X1899500Y-36913385D01*
X1899500Y-37086614D01*
X1926597Y-37257702D01*
X1926598Y-37257706D01*
X1980123Y-37422438D01*
X1980125Y-37422441D01*
X1980126Y-37422444D01*
X1980127Y-37422445D01*
X2058768Y-37576788D01*
X2160586Y-37716928D01*
X2283072Y-37839414D01*
X2423212Y-37941232D01*
X2577555Y-38019873D01*
X2577557Y-38019873D01*
X2577558Y-38019874D01*
X2577561Y-38019876D01*
X2742293Y-38073401D01*
X2742297Y-38073402D01*
X2913386Y-38100500D01*
X2913389Y-38100500D01*
X3086614Y-38100500D01*
X3257702Y-38073402D01*
X3257706Y-38073401D01*
X3422438Y-38019876D01*
X3422440Y-38019874D01*
X3422445Y-38019873D01*
X3576788Y-37941232D01*
X3716928Y-37839414D01*
X3839414Y-37716928D01*
X3941232Y-37576788D01*
X4019873Y-37422445D01*
X4019874Y-37422440D01*
X4019876Y-37422438D01*
X4073401Y-37257706D01*
X4073402Y-37257702D01*
X4100500Y-37086614D01*
X4100500Y-36913387D01*
X4099851Y-36909291D01*
X4099851Y-36909289D01*
X4099850Y-36909285D01*
X4098013Y-36897684D01*
X6700000Y-36897684D01*
X6700000Y-37102315D01*
X6732008Y-37304412D01*
X6795243Y-37499027D01*
X6888139Y-37681348D01*
X6888143Y-37681353D01*
X6920523Y-37725920D01*
X6920524Y-37725920D01*
X7600000Y-37046444D01*
X7600000Y-37052661D01*
X7627259Y-37154394D01*
X7679920Y-37245606D01*
X7754394Y-37320080D01*
X7845606Y-37372741D01*
X7947339Y-37400000D01*
X7953553Y-37400000D01*
X7274078Y-38079475D01*
X7318647Y-38111858D01*
X7500972Y-38204756D01*
X7695587Y-38267991D01*
X7897685Y-38300000D01*
X8102315Y-38300000D01*
X8304412Y-38267991D01*
X8478554Y-38211409D01*
X8499027Y-38204756D01*
X8681342Y-38111863D01*
X8681350Y-38111858D01*
X8725920Y-38079475D01*
X8046445Y-37400000D01*
X8052661Y-37400000D01*
X8154394Y-37372741D01*
X8245606Y-37320080D01*
X8320080Y-37245606D01*
X8372741Y-37154394D01*
X8400000Y-37052661D01*
X8400000Y-37046445D01*
X9079475Y-37725920D01*
X9111858Y-37681350D01*
X9111863Y-37681342D01*
X9204756Y-37499027D01*
X9267991Y-37304412D01*
X9300000Y-37102315D01*
X9300000Y-36897684D01*
X9267991Y-36695587D01*
X9204756Y-36500972D01*
X9111858Y-36318647D01*
X9079475Y-36274078D01*
X8400000Y-36953553D01*
X8400000Y-36947339D01*
X8372741Y-36845606D01*
X8320080Y-36754394D01*
X8245606Y-36679920D01*
X8154394Y-36627259D01*
X8052661Y-36600000D01*
X8046445Y-36600000D01*
X8725920Y-35920524D01*
X8725920Y-35920523D01*
X8681353Y-35888143D01*
X8681348Y-35888139D01*
X8613901Y-35853774D01*
X8499027Y-35795243D01*
X8419645Y-35769450D01*
X26849500Y-35769450D01*
X26849500Y-35950549D01*
X26877828Y-36129406D01*
X26927756Y-36283073D01*
X26933789Y-36301639D01*
X27016004Y-36462994D01*
X27122447Y-36609501D01*
X27250499Y-36737553D01*
X27397006Y-36843996D01*
X27558361Y-36926211D01*
X27730591Y-36982171D01*
X27802136Y-36993502D01*
X27909451Y-37010500D01*
X27909454Y-37010500D01*
X28090549Y-37010500D01*
X28179977Y-36996335D01*
X28269409Y-36982171D01*
X28441639Y-36926211D01*
X28602994Y-36843996D01*
X28749501Y-36737553D01*
X28877553Y-36609501D01*
X28983996Y-36462994D01*
X29066211Y-36301639D01*
X29122171Y-36129409D01*
X29145815Y-35980125D01*
X29150500Y-35950549D01*
X29150500Y-35769450D01*
X29389500Y-35769450D01*
X29389500Y-35950549D01*
X29417828Y-36129406D01*
X29467756Y-36283073D01*
X29473789Y-36301639D01*
X29556004Y-36462994D01*
X29662447Y-36609501D01*
X29790499Y-36737553D01*
X29937006Y-36843996D01*
X30098361Y-36926211D01*
X30270591Y-36982171D01*
X30342136Y-36993502D01*
X30449451Y-37010500D01*
X30449454Y-37010500D01*
X30630549Y-37010500D01*
X30719977Y-36996335D01*
X30809409Y-36982171D01*
X30981639Y-36926211D01*
X31142994Y-36843996D01*
X31289501Y-36737553D01*
X31417553Y-36609501D01*
X31523996Y-36462994D01*
X31606211Y-36301639D01*
X31662171Y-36129409D01*
X31685815Y-35980125D01*
X31690500Y-35950549D01*
X31690500Y-35769450D01*
X31929500Y-35769450D01*
X31929500Y-35950549D01*
X31957828Y-36129406D01*
X32007756Y-36283073D01*
X32013789Y-36301639D01*
X32096004Y-36462994D01*
X32202447Y-36609501D01*
X32330499Y-36737553D01*
X32477006Y-36843996D01*
X32638361Y-36926211D01*
X32810591Y-36982171D01*
X32882136Y-36993502D01*
X32989451Y-37010500D01*
X32989454Y-37010500D01*
X33170549Y-37010500D01*
X33259977Y-36996335D01*
X33349409Y-36982171D01*
X33521639Y-36926211D01*
X33682994Y-36843996D01*
X33829501Y-36737553D01*
X33957553Y-36609501D01*
X34063996Y-36462994D01*
X34146211Y-36301639D01*
X34202171Y-36129409D01*
X34225815Y-35980125D01*
X34230500Y-35950549D01*
X34230500Y-35769450D01*
X34469500Y-35769450D01*
X34469500Y-35950549D01*
X34497828Y-36129406D01*
X34547756Y-36283073D01*
X34553789Y-36301639D01*
X34636004Y-36462994D01*
X34742447Y-36609501D01*
X34870499Y-36737553D01*
X35017006Y-36843996D01*
X35178361Y-36926211D01*
X35350591Y-36982171D01*
X35422136Y-36993502D01*
X35529451Y-37010500D01*
X35529454Y-37010500D01*
X35710549Y-37010500D01*
X35799977Y-36996335D01*
X35889409Y-36982171D01*
X36061639Y-36926211D01*
X36222994Y-36843996D01*
X36369501Y-36737553D01*
X36497553Y-36609501D01*
X36603996Y-36462994D01*
X36686211Y-36301639D01*
X36742171Y-36129409D01*
X36765815Y-35980125D01*
X36770500Y-35950549D01*
X36770500Y-35769450D01*
X36742171Y-35590593D01*
X36742171Y-35590591D01*
X36686211Y-35418361D01*
X36603996Y-35257006D01*
X36497553Y-35110499D01*
X36369501Y-34982447D01*
X36222994Y-34876004D01*
X36222993Y-34876003D01*
X36222991Y-34876002D01*
X36061637Y-34793788D01*
X35889406Y-34737828D01*
X35710549Y-34709500D01*
X35710546Y-34709500D01*
X35529454Y-34709500D01*
X35529451Y-34709500D01*
X35350593Y-34737828D01*
X35178362Y-34793788D01*
X35017008Y-34876002D01*
X34943752Y-34929225D01*
X34870499Y-34982447D01*
X34742447Y-35110499D01*
X34689225Y-35183752D01*
X34636002Y-35257008D01*
X34553788Y-35418362D01*
X34497828Y-35590593D01*
X34469500Y-35769450D01*
X34230500Y-35769450D01*
X34202171Y-35590593D01*
X34202171Y-35590591D01*
X34146211Y-35418361D01*
X34063996Y-35257006D01*
X33957553Y-35110499D01*
X33829501Y-34982447D01*
X33682994Y-34876004D01*
X33682993Y-34876003D01*
X33682991Y-34876002D01*
X33521637Y-34793788D01*
X33349406Y-34737828D01*
X33170549Y-34709500D01*
X33170546Y-34709500D01*
X32989454Y-34709500D01*
X32989451Y-34709500D01*
X32810593Y-34737828D01*
X32638362Y-34793788D01*
X32477008Y-34876002D01*
X32403752Y-34929225D01*
X32330499Y-34982447D01*
X32202447Y-35110499D01*
X32149225Y-35183752D01*
X32096002Y-35257008D01*
X32013788Y-35418362D01*
X31957828Y-35590593D01*
X31929500Y-35769450D01*
X31690500Y-35769450D01*
X31662171Y-35590593D01*
X31662171Y-35590591D01*
X31606211Y-35418361D01*
X31523996Y-35257006D01*
X31417553Y-35110499D01*
X31289501Y-34982447D01*
X31142994Y-34876004D01*
X31142993Y-34876003D01*
X31142991Y-34876002D01*
X30981637Y-34793788D01*
X30809406Y-34737828D01*
X30630549Y-34709500D01*
X30630546Y-34709500D01*
X30449454Y-34709500D01*
X30449451Y-34709500D01*
X30270593Y-34737828D01*
X30098362Y-34793788D01*
X29937008Y-34876002D01*
X29863752Y-34929225D01*
X29790499Y-34982447D01*
X29662447Y-35110499D01*
X29609225Y-35183752D01*
X29556002Y-35257008D01*
X29473788Y-35418362D01*
X29417828Y-35590593D01*
X29389500Y-35769450D01*
X29150500Y-35769450D01*
X29122171Y-35590593D01*
X29122171Y-35590591D01*
X29066211Y-35418361D01*
X28983996Y-35257006D01*
X28877553Y-35110499D01*
X28749501Y-34982447D01*
X28602994Y-34876004D01*
X28602993Y-34876003D01*
X28602991Y-34876002D01*
X28441637Y-34793788D01*
X28269406Y-34737828D01*
X28090549Y-34709500D01*
X28090546Y-34709500D01*
X27909454Y-34709500D01*
X27909451Y-34709500D01*
X27730593Y-34737828D01*
X27558362Y-34793788D01*
X27397008Y-34876002D01*
X27323752Y-34929225D01*
X27250499Y-34982447D01*
X27122447Y-35110499D01*
X27069225Y-35183752D01*
X27016002Y-35257008D01*
X26933788Y-35418362D01*
X26877828Y-35590593D01*
X26849500Y-35769450D01*
X8419645Y-35769450D01*
X8304412Y-35732008D01*
X8102315Y-35700000D01*
X7897685Y-35700000D01*
X7695587Y-35732008D01*
X7500972Y-35795243D01*
X7318651Y-35888139D01*
X7318647Y-35888141D01*
X7274078Y-35920523D01*
X7953555Y-36600000D01*
X7947339Y-36600000D01*
X7845606Y-36627259D01*
X7754394Y-36679920D01*
X7679920Y-36754394D01*
X7627259Y-36845606D01*
X7600000Y-36947339D01*
X7600000Y-36953555D01*
X6920523Y-36274078D01*
X6888141Y-36318647D01*
X6888139Y-36318651D01*
X6795243Y-36500972D01*
X6732008Y-36695587D01*
X6700000Y-36897684D01*
X4098013Y-36897684D01*
X4073402Y-36742297D01*
X4073401Y-36742293D01*
X4019876Y-36577561D01*
X4019874Y-36577558D01*
X4019873Y-36577557D01*
X4019873Y-36577555D01*
X3941232Y-36423212D01*
X3839414Y-36283072D01*
X3716928Y-36160586D01*
X3576788Y-36058768D01*
X3576787Y-36058767D01*
X3576785Y-36058766D01*
X3552642Y-36046465D01*
X3422441Y-35980125D01*
X3422438Y-35980123D01*
X3257706Y-35926598D01*
X3257702Y-35926597D01*
X3086614Y-35899500D01*
X3086611Y-35899500D01*
X2913389Y-35899500D01*
X2913386Y-35899500D01*
X2742297Y-35926597D01*
X2742293Y-35926598D01*
X2577561Y-35980123D01*
X2577558Y-35980125D01*
X2423214Y-36058766D01*
X2283073Y-36160585D01*
X2160585Y-36283073D01*
X2058766Y-36423214D01*
X1980125Y-36577558D01*
X1980123Y-36577561D01*
X1926598Y-36742293D01*
X1926597Y-36742297D01*
X1899500Y-36913385D01*
X600000Y-36913385D01*
X600000Y-32406893D01*
X12899500Y-32406893D01*
X12899500Y-33593106D01*
X12910123Y-33681565D01*
X12965637Y-33822339D01*
X12965638Y-33822341D01*
X12965639Y-33822342D01*
X13057078Y-33942922D01*
X13177658Y-34034361D01*
X13177659Y-34034361D01*
X13177660Y-34034362D01*
X13248047Y-34062119D01*
X13318436Y-34089877D01*
X13406898Y-34100500D01*
X13406900Y-34100500D01*
X14593100Y-34100500D01*
X14593102Y-34100500D01*
X14681564Y-34089877D01*
X14822342Y-34034361D01*
X14942922Y-33942922D01*
X15034361Y-33822342D01*
X15089877Y-33681564D01*
X15100500Y-33593102D01*
X15100500Y-33586953D01*
X15119407Y-33528762D01*
X15129496Y-33516949D01*
X15600000Y-33046444D01*
X15600000Y-33052661D01*
X15627259Y-33154394D01*
X15679920Y-33245606D01*
X15754394Y-33320080D01*
X15845606Y-33372741D01*
X15947339Y-33400000D01*
X15953553Y-33400000D01*
X15274078Y-34079475D01*
X15318647Y-34111858D01*
X15500972Y-34204756D01*
X15695587Y-34267991D01*
X15897685Y-34300000D01*
X16102315Y-34300000D01*
X16304412Y-34267991D01*
X16499027Y-34204756D01*
X16681342Y-34111863D01*
X16681350Y-34111858D01*
X16725920Y-34079475D01*
X16046445Y-33400000D01*
X16052661Y-33400000D01*
X16154394Y-33372741D01*
X16245606Y-33320080D01*
X16320080Y-33245606D01*
X16372741Y-33154394D01*
X16400000Y-33052661D01*
X16400000Y-33046445D01*
X17079475Y-33725920D01*
X17111858Y-33681350D01*
X17111863Y-33681342D01*
X17204756Y-33499027D01*
X17267991Y-33304412D01*
X17279864Y-33229450D01*
X26849500Y-33229450D01*
X26849500Y-33410549D01*
X26877828Y-33589406D01*
X26927135Y-33741162D01*
X26933789Y-33761639D01*
X27016004Y-33922994D01*
X27122447Y-34069501D01*
X27250499Y-34197553D01*
X27397006Y-34303996D01*
X27558361Y-34386211D01*
X27730591Y-34442171D01*
X27802136Y-34453502D01*
X27909451Y-34470500D01*
X27909454Y-34470500D01*
X28090549Y-34470500D01*
X28179977Y-34456335D01*
X28269409Y-34442171D01*
X28441639Y-34386211D01*
X28602994Y-34303996D01*
X28749501Y-34197553D01*
X28877553Y-34069501D01*
X28983996Y-33922994D01*
X29066211Y-33761639D01*
X29122171Y-33589409D01*
X29150500Y-33410546D01*
X29150500Y-33229454D01*
X29150500Y-33229450D01*
X29389500Y-33229450D01*
X29389500Y-33410549D01*
X29417828Y-33589406D01*
X29467135Y-33741162D01*
X29473789Y-33761639D01*
X29556004Y-33922994D01*
X29662447Y-34069501D01*
X29790499Y-34197553D01*
X29937006Y-34303996D01*
X30098361Y-34386211D01*
X30270591Y-34442171D01*
X30342136Y-34453502D01*
X30449451Y-34470500D01*
X30449454Y-34470500D01*
X30630549Y-34470500D01*
X30719977Y-34456335D01*
X30809409Y-34442171D01*
X30981639Y-34386211D01*
X31142994Y-34303996D01*
X31289501Y-34197553D01*
X31417553Y-34069501D01*
X31523996Y-33922994D01*
X31606211Y-33761639D01*
X31662171Y-33589409D01*
X31690500Y-33410546D01*
X31690500Y-33229454D01*
X31690500Y-33229450D01*
X31929500Y-33229450D01*
X31929500Y-33410549D01*
X31957828Y-33589406D01*
X32007135Y-33741162D01*
X32013789Y-33761639D01*
X32096004Y-33922994D01*
X32202447Y-34069501D01*
X32330499Y-34197553D01*
X32477006Y-34303996D01*
X32638361Y-34386211D01*
X32810591Y-34442171D01*
X32882136Y-34453502D01*
X32989451Y-34470500D01*
X32989454Y-34470500D01*
X33170549Y-34470500D01*
X33259977Y-34456335D01*
X33349409Y-34442171D01*
X33521639Y-34386211D01*
X33682994Y-34303996D01*
X33829501Y-34197553D01*
X33957553Y-34069501D01*
X34063996Y-33922994D01*
X34146211Y-33761639D01*
X34202171Y-33589409D01*
X34230500Y-33410546D01*
X34230500Y-33229454D01*
X34230500Y-33229450D01*
X34469500Y-33229450D01*
X34469500Y-33410549D01*
X34497828Y-33589406D01*
X34547135Y-33741162D01*
X34553789Y-33761639D01*
X34636004Y-33922994D01*
X34742447Y-34069501D01*
X34870499Y-34197553D01*
X35017006Y-34303996D01*
X35178361Y-34386211D01*
X35350591Y-34442171D01*
X35422136Y-34453502D01*
X35529451Y-34470500D01*
X35529454Y-34470500D01*
X35710549Y-34470500D01*
X35799977Y-34456335D01*
X35889409Y-34442171D01*
X36061639Y-34386211D01*
X36222994Y-34303996D01*
X36369501Y-34197553D01*
X36497553Y-34069501D01*
X36603996Y-33922994D01*
X36686211Y-33761639D01*
X36742171Y-33589409D01*
X36770500Y-33410546D01*
X36770500Y-33229454D01*
X36770500Y-33229450D01*
X36742171Y-33050593D01*
X36742171Y-33050591D01*
X36686211Y-32878361D01*
X36603996Y-32717006D01*
X36497553Y-32570499D01*
X36369501Y-32442447D01*
X36222994Y-32336004D01*
X36222993Y-32336003D01*
X36222991Y-32336002D01*
X36061637Y-32253788D01*
X35889406Y-32197828D01*
X35710549Y-32169500D01*
X35710546Y-32169500D01*
X35529454Y-32169500D01*
X35529451Y-32169500D01*
X35350593Y-32197828D01*
X35178362Y-32253788D01*
X35017008Y-32336002D01*
X34943752Y-32389225D01*
X34870499Y-32442447D01*
X34742447Y-32570499D01*
X34701209Y-32627259D01*
X34636002Y-32717008D01*
X34553788Y-32878362D01*
X34497828Y-33050593D01*
X34469500Y-33229450D01*
X34230500Y-33229450D01*
X34202171Y-33050593D01*
X34202171Y-33050591D01*
X34146211Y-32878361D01*
X34063996Y-32717006D01*
X33957553Y-32570499D01*
X33829501Y-32442447D01*
X33682994Y-32336004D01*
X33682993Y-32336003D01*
X33682991Y-32336002D01*
X33521637Y-32253788D01*
X33349406Y-32197828D01*
X33170549Y-32169500D01*
X33170546Y-32169500D01*
X32989454Y-32169500D01*
X32989451Y-32169500D01*
X32810593Y-32197828D01*
X32638362Y-32253788D01*
X32477008Y-32336002D01*
X32403752Y-32389225D01*
X32330499Y-32442447D01*
X32202447Y-32570499D01*
X32161209Y-32627259D01*
X32096002Y-32717008D01*
X32013788Y-32878362D01*
X31957828Y-33050593D01*
X31929500Y-33229450D01*
X31690500Y-33229450D01*
X31662171Y-33050593D01*
X31662171Y-33050591D01*
X31606211Y-32878361D01*
X31523996Y-32717006D01*
X31417553Y-32570499D01*
X31289501Y-32442447D01*
X31142994Y-32336004D01*
X31142993Y-32336003D01*
X31142991Y-32336002D01*
X30981637Y-32253788D01*
X30809406Y-32197828D01*
X30630549Y-32169500D01*
X30630546Y-32169500D01*
X30449454Y-32169500D01*
X30449451Y-32169500D01*
X30270593Y-32197828D01*
X30098362Y-32253788D01*
X29937008Y-32336002D01*
X29863752Y-32389225D01*
X29790499Y-32442447D01*
X29662447Y-32570499D01*
X29621209Y-32627259D01*
X29556002Y-32717008D01*
X29473788Y-32878362D01*
X29417828Y-33050593D01*
X29389500Y-33229450D01*
X29150500Y-33229450D01*
X29122171Y-33050593D01*
X29122171Y-33050591D01*
X29066211Y-32878361D01*
X28983996Y-32717006D01*
X28877553Y-32570499D01*
X28749501Y-32442447D01*
X28602994Y-32336004D01*
X28602993Y-32336003D01*
X28602991Y-32336002D01*
X28441637Y-32253788D01*
X28269406Y-32197828D01*
X28090549Y-32169500D01*
X28090546Y-32169500D01*
X27909454Y-32169500D01*
X27909451Y-32169500D01*
X27730593Y-32197828D01*
X27558362Y-32253788D01*
X27397008Y-32336002D01*
X27323752Y-32389225D01*
X27250499Y-32442447D01*
X27122447Y-32570499D01*
X27081209Y-32627259D01*
X27016002Y-32717008D01*
X26933788Y-32878362D01*
X26877828Y-33050593D01*
X26849500Y-33229450D01*
X17279864Y-33229450D01*
X17282932Y-33210077D01*
X17300000Y-33102315D01*
X17300000Y-32897684D01*
X17267991Y-32695587D01*
X17204756Y-32500972D01*
X17111858Y-32318647D01*
X17079475Y-32274078D01*
X16400000Y-32953553D01*
X16400000Y-32947339D01*
X16372741Y-32845606D01*
X16320080Y-32754394D01*
X16245606Y-32679920D01*
X16154394Y-32627259D01*
X16052661Y-32600000D01*
X16046445Y-32600000D01*
X16725920Y-31920524D01*
X16725920Y-31920523D01*
X16681353Y-31888143D01*
X16681348Y-31888139D01*
X16499027Y-31795243D01*
X16304412Y-31732008D01*
X16102315Y-31700000D01*
X15897685Y-31700000D01*
X15695587Y-31732008D01*
X15500972Y-31795243D01*
X15318651Y-31888139D01*
X15318647Y-31888141D01*
X15274078Y-31920523D01*
X15953555Y-32600000D01*
X15947339Y-32600000D01*
X15845606Y-32627259D01*
X15754394Y-32679920D01*
X15679920Y-32754394D01*
X15627259Y-32845606D01*
X15600000Y-32947339D01*
X15600000Y-32953554D01*
X15129496Y-32483050D01*
X15101719Y-32428533D01*
X15100500Y-32413046D01*
X15100500Y-32406899D01*
X15100499Y-32406893D01*
X15089877Y-32318436D01*
X15045047Y-32204756D01*
X15034362Y-32177660D01*
X15034361Y-32177659D01*
X15034361Y-32177658D01*
X14942922Y-32057078D01*
X14822342Y-31965639D01*
X14822341Y-31965638D01*
X14822339Y-31965637D01*
X14681565Y-31910123D01*
X14593106Y-31899500D01*
X14593102Y-31899500D01*
X13406898Y-31899500D01*
X13406893Y-31899500D01*
X13318434Y-31910123D01*
X13177660Y-31965637D01*
X13177656Y-31965640D01*
X13057081Y-32057075D01*
X13057075Y-32057081D01*
X12965640Y-32177656D01*
X12965637Y-32177660D01*
X12910123Y-32318434D01*
X12899500Y-32406893D01*
X600000Y-32406893D01*
X600000Y-30913385D01*
X1899500Y-30913385D01*
X1899500Y-31086614D01*
X1926597Y-31257702D01*
X1926598Y-31257706D01*
X1980123Y-31422438D01*
X1980125Y-31422441D01*
X2034674Y-31529502D01*
X2058768Y-31576788D01*
X2160586Y-31716928D01*
X2283072Y-31839414D01*
X2423212Y-31941232D01*
X2577555Y-32019873D01*
X2577557Y-32019873D01*
X2577558Y-32019874D01*
X2577561Y-32019876D01*
X2742293Y-32073401D01*
X2742297Y-32073402D01*
X2913386Y-32100500D01*
X2913389Y-32100500D01*
X3086614Y-32100500D01*
X3257702Y-32073402D01*
X3257706Y-32073401D01*
X3422438Y-32019876D01*
X3422440Y-32019874D01*
X3422445Y-32019873D01*
X3576788Y-31941232D01*
X3716928Y-31839414D01*
X3839414Y-31716928D01*
X3941232Y-31576788D01*
X4019873Y-31422445D01*
X4019874Y-31422440D01*
X4019876Y-31422438D01*
X4073401Y-31257706D01*
X4073402Y-31257702D01*
X4100500Y-31086614D01*
X4100500Y-30913387D01*
X4099851Y-30909291D01*
X4099851Y-30909289D01*
X4099850Y-30909285D01*
X4098013Y-30897684D01*
X6700000Y-30897684D01*
X6700000Y-31102315D01*
X6732008Y-31304412D01*
X6795243Y-31499027D01*
X6888139Y-31681348D01*
X6888143Y-31681353D01*
X6920523Y-31725920D01*
X6920524Y-31725920D01*
X7600000Y-31046444D01*
X7600000Y-31052661D01*
X7627259Y-31154394D01*
X7679920Y-31245606D01*
X7754394Y-31320080D01*
X7845606Y-31372741D01*
X7947339Y-31400000D01*
X7953553Y-31400000D01*
X7274078Y-32079475D01*
X7318647Y-32111858D01*
X7500972Y-32204756D01*
X7695587Y-32267991D01*
X7897685Y-32300000D01*
X8102315Y-32300000D01*
X8304412Y-32267991D01*
X8499027Y-32204756D01*
X8681342Y-32111863D01*
X8681350Y-32111858D01*
X8725920Y-32079475D01*
X8046445Y-31400000D01*
X8052661Y-31400000D01*
X8154394Y-31372741D01*
X8245606Y-31320080D01*
X8320080Y-31245606D01*
X8372741Y-31154394D01*
X8400000Y-31052661D01*
X8400000Y-31046445D01*
X9079475Y-31725920D01*
X9111858Y-31681350D01*
X9111863Y-31681342D01*
X9204756Y-31499027D01*
X9267991Y-31304412D01*
X9300000Y-31102315D01*
X9300000Y-30897684D01*
X9268857Y-30701051D01*
X9268857Y-30701050D01*
X9267991Y-30695589D01*
X9265996Y-30689450D01*
X26849500Y-30689450D01*
X26849500Y-30870549D01*
X26877828Y-31049406D01*
X26933788Y-31221637D01*
X27010779Y-31372741D01*
X27016004Y-31382994D01*
X27122447Y-31529501D01*
X27250499Y-31657553D01*
X27397006Y-31763996D01*
X27558361Y-31846211D01*
X27730591Y-31902171D01*
X27802136Y-31913502D01*
X27909451Y-31930500D01*
X27909454Y-31930500D01*
X28090549Y-31930500D01*
X28179977Y-31916335D01*
X28269409Y-31902171D01*
X28441639Y-31846211D01*
X28602994Y-31763996D01*
X28749501Y-31657553D01*
X28877553Y-31529501D01*
X28983996Y-31382994D01*
X29066211Y-31221639D01*
X29122171Y-31049409D01*
X29138337Y-30947339D01*
X29150500Y-30870549D01*
X29150500Y-30689450D01*
X29389500Y-30689450D01*
X29389500Y-30870549D01*
X29417828Y-31049406D01*
X29473788Y-31221637D01*
X29550779Y-31372741D01*
X29556004Y-31382994D01*
X29662447Y-31529501D01*
X29790499Y-31657553D01*
X29937006Y-31763996D01*
X30098361Y-31846211D01*
X30270591Y-31902171D01*
X30342136Y-31913502D01*
X30449451Y-31930500D01*
X30449454Y-31930500D01*
X30630549Y-31930500D01*
X30719977Y-31916335D01*
X30809409Y-31902171D01*
X30981639Y-31846211D01*
X31142994Y-31763996D01*
X31289501Y-31657553D01*
X31417553Y-31529501D01*
X31523996Y-31382994D01*
X31606211Y-31221639D01*
X31662171Y-31049409D01*
X31678337Y-30947339D01*
X31690500Y-30870549D01*
X31690500Y-30689450D01*
X31929500Y-30689450D01*
X31929500Y-30870549D01*
X31957828Y-31049406D01*
X32013788Y-31221637D01*
X32090779Y-31372741D01*
X32096004Y-31382994D01*
X32202447Y-31529501D01*
X32330499Y-31657553D01*
X32477006Y-31763996D01*
X32638361Y-31846211D01*
X32810591Y-31902171D01*
X32882136Y-31913502D01*
X32989451Y-31930500D01*
X32989454Y-31930500D01*
X33170549Y-31930500D01*
X33259977Y-31916335D01*
X33349409Y-31902171D01*
X33521639Y-31846211D01*
X33682994Y-31763996D01*
X33829501Y-31657553D01*
X33957553Y-31529501D01*
X34063996Y-31382994D01*
X34146211Y-31221639D01*
X34202171Y-31049409D01*
X34218337Y-30947339D01*
X34230500Y-30870549D01*
X34230500Y-30689450D01*
X34469500Y-30689450D01*
X34469500Y-30870549D01*
X34497828Y-31049406D01*
X34553788Y-31221637D01*
X34630779Y-31372741D01*
X34636004Y-31382994D01*
X34742447Y-31529501D01*
X34870499Y-31657553D01*
X35017006Y-31763996D01*
X35178361Y-31846211D01*
X35350591Y-31902171D01*
X35422136Y-31913502D01*
X35529451Y-31930500D01*
X35529454Y-31930500D01*
X35710549Y-31930500D01*
X35799977Y-31916335D01*
X35889409Y-31902171D01*
X36061639Y-31846211D01*
X36222994Y-31763996D01*
X36369501Y-31657553D01*
X36497553Y-31529501D01*
X36603996Y-31382994D01*
X36686211Y-31221639D01*
X36742171Y-31049409D01*
X36758337Y-30947339D01*
X36766180Y-30897824D01*
X44649999Y-30897824D01*
X44656401Y-30957370D01*
X44656403Y-30957381D01*
X44706646Y-31092088D01*
X44706647Y-31092090D01*
X44792807Y-31207184D01*
X44792815Y-31207192D01*
X44907909Y-31293352D01*
X44907911Y-31293353D01*
X45042618Y-31343596D01*
X45042629Y-31343598D01*
X45102176Y-31350000D01*
X45749999Y-31350000D01*
X45750000Y-31349999D01*
X45750000Y-30433012D01*
X45807007Y-30465925D01*
X45934174Y-30500000D01*
X46065826Y-30500000D01*
X46192993Y-30465925D01*
X46250000Y-30433012D01*
X46250000Y-31349999D01*
X46250001Y-31350000D01*
X46897824Y-31350000D01*
X46957370Y-31343598D01*
X46957381Y-31343596D01*
X47092088Y-31293353D01*
X47092090Y-31293352D01*
X47207184Y-31207192D01*
X47207192Y-31207184D01*
X47293352Y-31092090D01*
X47293353Y-31092088D01*
X47343596Y-30957381D01*
X47343598Y-30957370D01*
X47350000Y-30897824D01*
X47350000Y-30611053D01*
X47368907Y-30552862D01*
X47418407Y-30516898D01*
X47479593Y-30516898D01*
X47529093Y-30552862D01*
X47537210Y-30566109D01*
X47556000Y-30602988D01*
X47556001Y-30602990D01*
X47556002Y-30602991D01*
X47556004Y-30602994D01*
X47662447Y-30749501D01*
X47790499Y-30877553D01*
X47937006Y-30983996D01*
X48098361Y-31066211D01*
X48270591Y-31122171D01*
X48342136Y-31133502D01*
X48449451Y-31150500D01*
X48449454Y-31150500D01*
X48630549Y-31150500D01*
X48719977Y-31136335D01*
X48809409Y-31122171D01*
X48981639Y-31066211D01*
X49142994Y-30983996D01*
X49289501Y-30877553D01*
X49417553Y-30749501D01*
X49523996Y-30602994D01*
X49606211Y-30441639D01*
X49662171Y-30269409D01*
X49690500Y-30090546D01*
X49690500Y-29909454D01*
X49690500Y-29909450D01*
X49929500Y-29909450D01*
X49929500Y-30090549D01*
X49957828Y-30269406D01*
X50013788Y-30441637D01*
X50096001Y-30602990D01*
X50096004Y-30602994D01*
X50202447Y-30749501D01*
X50330499Y-30877553D01*
X50477006Y-30983996D01*
X50638361Y-31066211D01*
X50810591Y-31122171D01*
X50882136Y-31133502D01*
X50989451Y-31150500D01*
X50989454Y-31150500D01*
X51170549Y-31150500D01*
X51259977Y-31136335D01*
X51349409Y-31122171D01*
X51521639Y-31066211D01*
X51682994Y-30983996D01*
X51829501Y-30877553D01*
X51957553Y-30749501D01*
X52063996Y-30602994D01*
X52146211Y-30441639D01*
X52202171Y-30269409D01*
X52230500Y-30090546D01*
X52230500Y-29909454D01*
X52230500Y-29909450D01*
X52469500Y-29909450D01*
X52469500Y-30090549D01*
X52497828Y-30269406D01*
X52553788Y-30441637D01*
X52636001Y-30602990D01*
X52636004Y-30602994D01*
X52742447Y-30749501D01*
X52870499Y-30877553D01*
X53017006Y-30983996D01*
X53178361Y-31066211D01*
X53350591Y-31122171D01*
X53422136Y-31133502D01*
X53529451Y-31150500D01*
X53529454Y-31150500D01*
X53710549Y-31150500D01*
X53799977Y-31136335D01*
X53889409Y-31122171D01*
X54061639Y-31066211D01*
X54222994Y-30983996D01*
X54369501Y-30877553D01*
X54497553Y-30749501D01*
X54603996Y-30602994D01*
X54686211Y-30441639D01*
X54742171Y-30269409D01*
X54770500Y-30090546D01*
X54770500Y-29909454D01*
X54770500Y-29909450D01*
X55009500Y-29909450D01*
X55009500Y-30090549D01*
X55037828Y-30269406D01*
X55093788Y-30441637D01*
X55176001Y-30602990D01*
X55176004Y-30602994D01*
X55282447Y-30749501D01*
X55410499Y-30877553D01*
X55557006Y-30983996D01*
X55718361Y-31066211D01*
X55890591Y-31122171D01*
X55962136Y-31133502D01*
X56069451Y-31150500D01*
X56069454Y-31150500D01*
X56250549Y-31150500D01*
X56339977Y-31136335D01*
X56429409Y-31122171D01*
X56601639Y-31066211D01*
X56762994Y-30983996D01*
X56909501Y-30877553D01*
X57037553Y-30749501D01*
X57143996Y-30602994D01*
X57226211Y-30441639D01*
X57282171Y-30269409D01*
X57310500Y-30090546D01*
X57310500Y-29909454D01*
X57310500Y-29909450D01*
X57549500Y-29909450D01*
X57549500Y-30090549D01*
X57577828Y-30269406D01*
X57633788Y-30441637D01*
X57716001Y-30602990D01*
X57716004Y-30602994D01*
X57822447Y-30749501D01*
X57950499Y-30877553D01*
X58097006Y-30983996D01*
X58258361Y-31066211D01*
X58430591Y-31122171D01*
X58502136Y-31133502D01*
X58609451Y-31150500D01*
X58609454Y-31150500D01*
X58790549Y-31150500D01*
X58879977Y-31136335D01*
X58969409Y-31122171D01*
X59141639Y-31066211D01*
X59302994Y-30983996D01*
X59449501Y-30877553D01*
X59577553Y-30749501D01*
X59683996Y-30602994D01*
X59766211Y-30441639D01*
X59822171Y-30269409D01*
X59850500Y-30090546D01*
X59850500Y-29909454D01*
X59850500Y-29909450D01*
X59822171Y-29730593D01*
X59822171Y-29730591D01*
X59766211Y-29558361D01*
X59683996Y-29397006D01*
X59577553Y-29250499D01*
X59449501Y-29122447D01*
X59302994Y-29016004D01*
X59302993Y-29016003D01*
X59302991Y-29016002D01*
X59141637Y-28933788D01*
X58969406Y-28877828D01*
X58790549Y-28849500D01*
X58790546Y-28849500D01*
X58609454Y-28849500D01*
X58609451Y-28849500D01*
X58430593Y-28877828D01*
X58258362Y-28933788D01*
X58097008Y-29016002D01*
X58023752Y-29069225D01*
X57950499Y-29122447D01*
X57822447Y-29250499D01*
X57781970Y-29306211D01*
X57716002Y-29397008D01*
X57633788Y-29558362D01*
X57577828Y-29730593D01*
X57549500Y-29909450D01*
X57310500Y-29909450D01*
X57282171Y-29730593D01*
X57282171Y-29730591D01*
X57226211Y-29558361D01*
X57143996Y-29397006D01*
X57037553Y-29250499D01*
X56909501Y-29122447D01*
X56762994Y-29016004D01*
X56762993Y-29016003D01*
X56762991Y-29016002D01*
X56601637Y-28933788D01*
X56429406Y-28877828D01*
X56250549Y-28849500D01*
X56250546Y-28849500D01*
X56069454Y-28849500D01*
X56069451Y-28849500D01*
X55890593Y-28877828D01*
X55718362Y-28933788D01*
X55557008Y-29016002D01*
X55483752Y-29069225D01*
X55410499Y-29122447D01*
X55282447Y-29250499D01*
X55241970Y-29306211D01*
X55176002Y-29397008D01*
X55093788Y-29558362D01*
X55037828Y-29730593D01*
X55009500Y-29909450D01*
X54770500Y-29909450D01*
X54742171Y-29730593D01*
X54742171Y-29730591D01*
X54686211Y-29558361D01*
X54603996Y-29397006D01*
X54497553Y-29250499D01*
X54369501Y-29122447D01*
X54222994Y-29016004D01*
X54222993Y-29016003D01*
X54222991Y-29016002D01*
X54061637Y-28933788D01*
X53889406Y-28877828D01*
X53710549Y-28849500D01*
X53710546Y-28849500D01*
X53529454Y-28849500D01*
X53529451Y-28849500D01*
X53350593Y-28877828D01*
X53178362Y-28933788D01*
X53017008Y-29016002D01*
X52943752Y-29069225D01*
X52870499Y-29122447D01*
X52742447Y-29250499D01*
X52701970Y-29306211D01*
X52636002Y-29397008D01*
X52553788Y-29558362D01*
X52497828Y-29730593D01*
X52469500Y-29909450D01*
X52230500Y-29909450D01*
X52202171Y-29730593D01*
X52202171Y-29730591D01*
X52146211Y-29558361D01*
X52063996Y-29397006D01*
X51957553Y-29250499D01*
X51829501Y-29122447D01*
X51682994Y-29016004D01*
X51682993Y-29016003D01*
X51682991Y-29016002D01*
X51521637Y-28933788D01*
X51349406Y-28877828D01*
X51170549Y-28849500D01*
X51170546Y-28849500D01*
X50989454Y-28849500D01*
X50989451Y-28849500D01*
X50810593Y-28877828D01*
X50638362Y-28933788D01*
X50477008Y-29016002D01*
X50403752Y-29069225D01*
X50330499Y-29122447D01*
X50202447Y-29250499D01*
X50161970Y-29306211D01*
X50096002Y-29397008D01*
X50013788Y-29558362D01*
X49957828Y-29730593D01*
X49929500Y-29909450D01*
X49690500Y-29909450D01*
X49662171Y-29730593D01*
X49662171Y-29730591D01*
X49606211Y-29558361D01*
X49523996Y-29397006D01*
X49417553Y-29250499D01*
X49289501Y-29122447D01*
X49142994Y-29016004D01*
X49142993Y-29016003D01*
X49142991Y-29016002D01*
X48981637Y-28933788D01*
X48809406Y-28877828D01*
X48630549Y-28849500D01*
X48630546Y-28849500D01*
X48449454Y-28849500D01*
X48449451Y-28849500D01*
X48270593Y-28877828D01*
X48098362Y-28933788D01*
X47937008Y-29016002D01*
X47863752Y-29069225D01*
X47790499Y-29122447D01*
X47662447Y-29250499D01*
X47621970Y-29306211D01*
X47556002Y-29397008D01*
X47537210Y-29433891D01*
X47493945Y-29477156D01*
X47433513Y-29486727D01*
X47378996Y-29458949D01*
X47351219Y-29404433D01*
X47350000Y-29388946D01*
X47350000Y-29102175D01*
X47343598Y-29042629D01*
X47343596Y-29042618D01*
X47293353Y-28907911D01*
X47293352Y-28907909D01*
X47207192Y-28792815D01*
X47207184Y-28792807D01*
X47092090Y-28706647D01*
X47092088Y-28706646D01*
X46957381Y-28656403D01*
X46957370Y-28656401D01*
X46897824Y-28650000D01*
X46250001Y-28650000D01*
X46250000Y-28650001D01*
X46250000Y-29566988D01*
X46192993Y-29534075D01*
X46065826Y-29500000D01*
X45934174Y-29500000D01*
X45807007Y-29534075D01*
X45750000Y-29566988D01*
X45750000Y-28650001D01*
X45749999Y-28650000D01*
X45102176Y-28650000D01*
X45042629Y-28656401D01*
X45042618Y-28656403D01*
X44907911Y-28706646D01*
X44907909Y-28706647D01*
X44792815Y-28792807D01*
X44792807Y-28792815D01*
X44706647Y-28907909D01*
X44706646Y-28907911D01*
X44656403Y-29042618D01*
X44656401Y-29042629D01*
X44650000Y-29102175D01*
X44650000Y-29749999D01*
X44650001Y-29750000D01*
X45566988Y-29750000D01*
X45534075Y-29807007D01*
X45500000Y-29934174D01*
X45500000Y-30065826D01*
X45534075Y-30192993D01*
X45566988Y-30250000D01*
X44650001Y-30250000D01*
X44650000Y-30250001D01*
X44650000Y-30897824D01*
X44649999Y-30897824D01*
X36766180Y-30897824D01*
X36770500Y-30870549D01*
X36770500Y-30689450D01*
X36742171Y-30510593D01*
X36742171Y-30510591D01*
X36686211Y-30338361D01*
X36603996Y-30177006D01*
X36497553Y-30030499D01*
X36369501Y-29902447D01*
X36222994Y-29796004D01*
X36222993Y-29796003D01*
X36222991Y-29796002D01*
X36061637Y-29713788D01*
X35889406Y-29657828D01*
X35710549Y-29629500D01*
X35710546Y-29629500D01*
X35529454Y-29629500D01*
X35529451Y-29629500D01*
X35350593Y-29657828D01*
X35178362Y-29713788D01*
X35017008Y-29796002D01*
X34943752Y-29849225D01*
X34870499Y-29902447D01*
X34742447Y-30030499D01*
X34716781Y-30065826D01*
X34636002Y-30177008D01*
X34553788Y-30338362D01*
X34497828Y-30510593D01*
X34469500Y-30689450D01*
X34230500Y-30689450D01*
X34202171Y-30510593D01*
X34202171Y-30510591D01*
X34146211Y-30338361D01*
X34063996Y-30177006D01*
X33957553Y-30030499D01*
X33829501Y-29902447D01*
X33682994Y-29796004D01*
X33682993Y-29796003D01*
X33682991Y-29796002D01*
X33521637Y-29713788D01*
X33349406Y-29657828D01*
X33170549Y-29629500D01*
X33170546Y-29629500D01*
X32989454Y-29629500D01*
X32989451Y-29629500D01*
X32810593Y-29657828D01*
X32638362Y-29713788D01*
X32477008Y-29796002D01*
X32403752Y-29849225D01*
X32330499Y-29902447D01*
X32202447Y-30030499D01*
X32176781Y-30065826D01*
X32096002Y-30177008D01*
X32013788Y-30338362D01*
X31957828Y-30510593D01*
X31929500Y-30689450D01*
X31690500Y-30689450D01*
X31662171Y-30510593D01*
X31662171Y-30510591D01*
X31606211Y-30338361D01*
X31523996Y-30177006D01*
X31417553Y-30030499D01*
X31289501Y-29902447D01*
X31142994Y-29796004D01*
X31142993Y-29796003D01*
X31142991Y-29796002D01*
X30981637Y-29713788D01*
X30809406Y-29657828D01*
X30630549Y-29629500D01*
X30630546Y-29629500D01*
X30449454Y-29629500D01*
X30449451Y-29629500D01*
X30270593Y-29657828D01*
X30098362Y-29713788D01*
X29937008Y-29796002D01*
X29863752Y-29849225D01*
X29790499Y-29902447D01*
X29662447Y-30030499D01*
X29636781Y-30065826D01*
X29556002Y-30177008D01*
X29473788Y-30338362D01*
X29417828Y-30510593D01*
X29389500Y-30689450D01*
X29150500Y-30689450D01*
X29122171Y-30510593D01*
X29122171Y-30510591D01*
X29066211Y-30338361D01*
X28983996Y-30177006D01*
X28877553Y-30030499D01*
X28749501Y-29902447D01*
X28602994Y-29796004D01*
X28602993Y-29796003D01*
X28602991Y-29796002D01*
X28441637Y-29713788D01*
X28269406Y-29657828D01*
X28090549Y-29629500D01*
X28090546Y-29629500D01*
X27909454Y-29629500D01*
X27909451Y-29629500D01*
X27730593Y-29657828D01*
X27558362Y-29713788D01*
X27397008Y-29796002D01*
X27323752Y-29849225D01*
X27250499Y-29902447D01*
X27122447Y-30030499D01*
X27096781Y-30065826D01*
X27016002Y-30177008D01*
X26933788Y-30338362D01*
X26877828Y-30510593D01*
X26849500Y-30689450D01*
X9265996Y-30689450D01*
X9204756Y-30500972D01*
X9111858Y-30318647D01*
X9079475Y-30274078D01*
X8400000Y-30953553D01*
X8400000Y-30947339D01*
X8372741Y-30845606D01*
X8320080Y-30754394D01*
X8245606Y-30679920D01*
X8154394Y-30627259D01*
X8052661Y-30600000D01*
X8046445Y-30600000D01*
X8725920Y-29920524D01*
X8725920Y-29920523D01*
X8681353Y-29888143D01*
X8681348Y-29888139D01*
X8499027Y-29795243D01*
X8304412Y-29732008D01*
X8102315Y-29700000D01*
X7897685Y-29700000D01*
X7695587Y-29732008D01*
X7500972Y-29795243D01*
X7318651Y-29888139D01*
X7318647Y-29888141D01*
X7274078Y-29920523D01*
X7953555Y-30600000D01*
X7947339Y-30600000D01*
X7845606Y-30627259D01*
X7754394Y-30679920D01*
X7679920Y-30754394D01*
X7627259Y-30845606D01*
X7600000Y-30947339D01*
X7600000Y-30953555D01*
X6920523Y-30274078D01*
X6888141Y-30318647D01*
X6888139Y-30318651D01*
X6795243Y-30500972D01*
X6732008Y-30695587D01*
X6700000Y-30897684D01*
X4098013Y-30897684D01*
X4073402Y-30742297D01*
X4073401Y-30742293D01*
X4019876Y-30577561D01*
X4019874Y-30577558D01*
X4019873Y-30577557D01*
X4019873Y-30577555D01*
X3941232Y-30423212D01*
X3839414Y-30283072D01*
X3716928Y-30160586D01*
X3576788Y-30058768D01*
X3576787Y-30058767D01*
X3576785Y-30058766D01*
X3552642Y-30046465D01*
X3422441Y-29980125D01*
X3422438Y-29980123D01*
X3257706Y-29926598D01*
X3257702Y-29926597D01*
X3086614Y-29899500D01*
X3086611Y-29899500D01*
X2913389Y-29899500D01*
X2913386Y-29899500D01*
X2742297Y-29926597D01*
X2742293Y-29926598D01*
X2577561Y-29980123D01*
X2577558Y-29980125D01*
X2423214Y-30058766D01*
X2283073Y-30160585D01*
X2160585Y-30283073D01*
X2058766Y-30423214D01*
X1980125Y-30577558D01*
X1980123Y-30577561D01*
X1926598Y-30742293D01*
X1926597Y-30742297D01*
X1899500Y-30913385D01*
X600000Y-30913385D01*
X600000Y-28149450D01*
X26849500Y-28149450D01*
X26849500Y-28330549D01*
X26877828Y-28509406D01*
X26877829Y-28509409D01*
X26933789Y-28681639D01*
X27016004Y-28842994D01*
X27122447Y-28989501D01*
X27250499Y-29117553D01*
X27397006Y-29223996D01*
X27558361Y-29306211D01*
X27730591Y-29362171D01*
X27802136Y-29373502D01*
X27909451Y-29390500D01*
X27909454Y-29390500D01*
X28090549Y-29390500D01*
X28179977Y-29376335D01*
X28269409Y-29362171D01*
X28441639Y-29306211D01*
X28602994Y-29223996D01*
X28749501Y-29117553D01*
X28877553Y-28989501D01*
X28983996Y-28842994D01*
X29066211Y-28681639D01*
X29122171Y-28509409D01*
X29150500Y-28330546D01*
X29150500Y-28149454D01*
X29150500Y-28149450D01*
X29389500Y-28149450D01*
X29389500Y-28330549D01*
X29417828Y-28509406D01*
X29417829Y-28509409D01*
X29473789Y-28681639D01*
X29556004Y-28842994D01*
X29662447Y-28989501D01*
X29790499Y-29117553D01*
X29937006Y-29223996D01*
X30098361Y-29306211D01*
X30270591Y-29362171D01*
X30342136Y-29373502D01*
X30449451Y-29390500D01*
X30449454Y-29390500D01*
X30630549Y-29390500D01*
X30719977Y-29376335D01*
X30809409Y-29362171D01*
X30981639Y-29306211D01*
X31142994Y-29223996D01*
X31289501Y-29117553D01*
X31417553Y-28989501D01*
X31523996Y-28842994D01*
X31606211Y-28681639D01*
X31662171Y-28509409D01*
X31690500Y-28330546D01*
X31690500Y-28149454D01*
X31690500Y-28149450D01*
X31929500Y-28149450D01*
X31929500Y-28330549D01*
X31957828Y-28509406D01*
X31957829Y-28509409D01*
X32013789Y-28681639D01*
X32096004Y-28842994D01*
X32202447Y-28989501D01*
X32330499Y-29117553D01*
X32477006Y-29223996D01*
X32638361Y-29306211D01*
X32810591Y-29362171D01*
X32882136Y-29373502D01*
X32989451Y-29390500D01*
X32989454Y-29390500D01*
X33170549Y-29390500D01*
X33259977Y-29376335D01*
X33349409Y-29362171D01*
X33521639Y-29306211D01*
X33682994Y-29223996D01*
X33829501Y-29117553D01*
X33957553Y-28989501D01*
X34063996Y-28842994D01*
X34146211Y-28681639D01*
X34202171Y-28509409D01*
X34230500Y-28330546D01*
X34230500Y-28149454D01*
X34230500Y-28149450D01*
X34469500Y-28149450D01*
X34469500Y-28330549D01*
X34497828Y-28509406D01*
X34497829Y-28509409D01*
X34553789Y-28681639D01*
X34636004Y-28842994D01*
X34742447Y-28989501D01*
X34870499Y-29117553D01*
X35017006Y-29223996D01*
X35178361Y-29306211D01*
X35350591Y-29362171D01*
X35422136Y-29373502D01*
X35529451Y-29390500D01*
X35529454Y-29390500D01*
X35710549Y-29390500D01*
X35799977Y-29376335D01*
X35889409Y-29362171D01*
X36061639Y-29306211D01*
X36222994Y-29223996D01*
X36369501Y-29117553D01*
X36497553Y-28989501D01*
X36603996Y-28842994D01*
X36686211Y-28681639D01*
X36742171Y-28509409D01*
X36770500Y-28330546D01*
X36770500Y-28149454D01*
X36770500Y-28149450D01*
X36742171Y-27970593D01*
X36742171Y-27970591D01*
X36686211Y-27798361D01*
X36603996Y-27637006D01*
X36569076Y-27588943D01*
X52103700Y-27588943D01*
X52103700Y-27747057D01*
X52144623Y-27899784D01*
X52223680Y-28036716D01*
X52335484Y-28148520D01*
X52472416Y-28227577D01*
X52625143Y-28268500D01*
X52625145Y-28268500D01*
X52783255Y-28268500D01*
X52783257Y-28268500D01*
X52935984Y-28227577D01*
X53072916Y-28148520D01*
X53184720Y-28036716D01*
X53263777Y-27899784D01*
X53304700Y-27747057D01*
X53304700Y-27588943D01*
X53263777Y-27436216D01*
X53184720Y-27299284D01*
X53072916Y-27187480D01*
X52935984Y-27108423D01*
X52783257Y-27067500D01*
X52625143Y-27067500D01*
X52472416Y-27108423D01*
X52335484Y-27187480D01*
X52223680Y-27299284D01*
X52144623Y-27436216D01*
X52103700Y-27588943D01*
X36569076Y-27588943D01*
X36497553Y-27490499D01*
X36369501Y-27362447D01*
X36222994Y-27256004D01*
X36222993Y-27256003D01*
X36222991Y-27256002D01*
X36061637Y-27173788D01*
X35889406Y-27117828D01*
X35710549Y-27089500D01*
X35710546Y-27089500D01*
X35529454Y-27089500D01*
X35529451Y-27089500D01*
X35350593Y-27117828D01*
X35178362Y-27173788D01*
X35017008Y-27256002D01*
X34957436Y-27299284D01*
X34870499Y-27362447D01*
X34742447Y-27490499D01*
X34689225Y-27563752D01*
X34636002Y-27637008D01*
X34553788Y-27798362D01*
X34497828Y-27970593D01*
X34469500Y-28149450D01*
X34230500Y-28149450D01*
X34202171Y-27970593D01*
X34202171Y-27970591D01*
X34146211Y-27798361D01*
X34063996Y-27637006D01*
X33957553Y-27490499D01*
X33829501Y-27362447D01*
X33682994Y-27256004D01*
X33682993Y-27256003D01*
X33682991Y-27256002D01*
X33521637Y-27173788D01*
X33349406Y-27117828D01*
X33170549Y-27089500D01*
X33170546Y-27089500D01*
X32989454Y-27089500D01*
X32989451Y-27089500D01*
X32810593Y-27117828D01*
X32638362Y-27173788D01*
X32477008Y-27256002D01*
X32417436Y-27299284D01*
X32330499Y-27362447D01*
X32202447Y-27490499D01*
X32149225Y-27563752D01*
X32096002Y-27637008D01*
X32013788Y-27798362D01*
X31957828Y-27970593D01*
X31929500Y-28149450D01*
X31690500Y-28149450D01*
X31662171Y-27970593D01*
X31662171Y-27970591D01*
X31606211Y-27798361D01*
X31523996Y-27637006D01*
X31417553Y-27490499D01*
X31289501Y-27362447D01*
X31142994Y-27256004D01*
X31142993Y-27256003D01*
X31142991Y-27256002D01*
X30981637Y-27173788D01*
X30809406Y-27117828D01*
X30630549Y-27089500D01*
X30630546Y-27089500D01*
X30449454Y-27089500D01*
X30449451Y-27089500D01*
X30270593Y-27117828D01*
X30098362Y-27173788D01*
X29937008Y-27256002D01*
X29877436Y-27299284D01*
X29790499Y-27362447D01*
X29662447Y-27490499D01*
X29609225Y-27563752D01*
X29556002Y-27637008D01*
X29473788Y-27798362D01*
X29417828Y-27970593D01*
X29389500Y-28149450D01*
X29150500Y-28149450D01*
X29122171Y-27970593D01*
X29122171Y-27970591D01*
X29066211Y-27798361D01*
X28983996Y-27637006D01*
X28877553Y-27490499D01*
X28749501Y-27362447D01*
X28602994Y-27256004D01*
X28602993Y-27256003D01*
X28602991Y-27256002D01*
X28441637Y-27173788D01*
X28269406Y-27117828D01*
X28090549Y-27089500D01*
X28090546Y-27089500D01*
X27909454Y-27089500D01*
X27909451Y-27089500D01*
X27730593Y-27117828D01*
X27558362Y-27173788D01*
X27397008Y-27256002D01*
X27337436Y-27299284D01*
X27250499Y-27362447D01*
X27122447Y-27490499D01*
X27069225Y-27563752D01*
X27016002Y-27637008D01*
X26933788Y-27798362D01*
X26877828Y-27970593D01*
X26849500Y-28149450D01*
X600000Y-28149450D01*
X600000Y-24913385D01*
X1899500Y-24913385D01*
X1899500Y-25086614D01*
X1926597Y-25257702D01*
X1926598Y-25257706D01*
X1980123Y-25422438D01*
X1980125Y-25422441D01*
X2035853Y-25531816D01*
X2058768Y-25576788D01*
X2160586Y-25716928D01*
X2283072Y-25839414D01*
X2423212Y-25941232D01*
X2577555Y-26019873D01*
X2577557Y-26019873D01*
X2577558Y-26019874D01*
X2577561Y-26019876D01*
X2742293Y-26073401D01*
X2742297Y-26073402D01*
X2913386Y-26100500D01*
X2913389Y-26100500D01*
X3086614Y-26100500D01*
X3257702Y-26073402D01*
X3257706Y-26073401D01*
X3422438Y-26019876D01*
X3422440Y-26019874D01*
X3422445Y-26019873D01*
X3576788Y-25941232D01*
X3716928Y-25839414D01*
X3839414Y-25716928D01*
X3941232Y-25576788D01*
X4019873Y-25422445D01*
X4019874Y-25422440D01*
X4019876Y-25422438D01*
X4073401Y-25257706D01*
X4073402Y-25257702D01*
X4100500Y-25086614D01*
X4100500Y-24913385D01*
X9519500Y-24913385D01*
X9519500Y-25086614D01*
X9546597Y-25257702D01*
X9546598Y-25257706D01*
X9600123Y-25422438D01*
X9600125Y-25422441D01*
X9655853Y-25531816D01*
X9678768Y-25576788D01*
X9780586Y-25716928D01*
X9903072Y-25839414D01*
X10043212Y-25941232D01*
X10197555Y-26019873D01*
X10197557Y-26019873D01*
X10197558Y-26019874D01*
X10197561Y-26019876D01*
X10362293Y-26073401D01*
X10362297Y-26073402D01*
X10533386Y-26100500D01*
X10533389Y-26100500D01*
X10706614Y-26100500D01*
X10877702Y-26073402D01*
X10877706Y-26073401D01*
X11042438Y-26019876D01*
X11042440Y-26019874D01*
X11042445Y-26019873D01*
X11196788Y-25941232D01*
X11336928Y-25839414D01*
X11459414Y-25716928D01*
X11561232Y-25576788D01*
X11639873Y-25422445D01*
X11639874Y-25422440D01*
X11639876Y-25422438D01*
X11693401Y-25257706D01*
X11693402Y-25257702D01*
X11720500Y-25086614D01*
X11720500Y-24913384D01*
X11719254Y-24905515D01*
X12859500Y-24905515D01*
X12859500Y-25094484D01*
X12889058Y-25281113D01*
X12947453Y-25460832D01*
X13006533Y-25576785D01*
X13033240Y-25629199D01*
X13144310Y-25782073D01*
X13277927Y-25915690D01*
X13430801Y-26026760D01*
X13599168Y-26112547D01*
X13778882Y-26170940D01*
X13778883Y-26170940D01*
X13778886Y-26170941D01*
X13965516Y-26200500D01*
X13965519Y-26200500D01*
X14154484Y-26200500D01*
X14341113Y-26170941D01*
X14341114Y-26170940D01*
X14341118Y-26170940D01*
X14520832Y-26112547D01*
X14689199Y-26026760D01*
X14842073Y-25915690D01*
X14975690Y-25782073D01*
X15020909Y-25719834D01*
X15070407Y-25683872D01*
X15131592Y-25683872D01*
X15181093Y-25719836D01*
X15200000Y-25778027D01*
X15200000Y-25947824D01*
X15199999Y-25947824D01*
X15206401Y-26007370D01*
X15206403Y-26007381D01*
X15256646Y-26142088D01*
X15256647Y-26142090D01*
X15342807Y-26257184D01*
X15342815Y-26257192D01*
X15457909Y-26343352D01*
X15457911Y-26343353D01*
X15592618Y-26393596D01*
X15592629Y-26393598D01*
X15652176Y-26400000D01*
X16349999Y-26400000D01*
X16350000Y-26399999D01*
X16350000Y-25375277D01*
X16426306Y-25419333D01*
X16540756Y-25450000D01*
X16659244Y-25450000D01*
X16773694Y-25419333D01*
X16850000Y-25375277D01*
X16850000Y-26399999D01*
X16850001Y-26400000D01*
X17547824Y-26400000D01*
X17607370Y-26393598D01*
X17607381Y-26393596D01*
X17742088Y-26343353D01*
X17742090Y-26343352D01*
X17857184Y-26257192D01*
X17857192Y-26257184D01*
X17943352Y-26142090D01*
X17943353Y-26142088D01*
X17993596Y-26007381D01*
X17993598Y-26007370D01*
X18000000Y-25947824D01*
X18000000Y-25609450D01*
X26849500Y-25609450D01*
X26849500Y-25790549D01*
X26877828Y-25969406D01*
X26933788Y-26141637D01*
X26992666Y-26257192D01*
X27016004Y-26302994D01*
X27122447Y-26449501D01*
X27250499Y-26577553D01*
X27397006Y-26683996D01*
X27558361Y-26766211D01*
X27730591Y-26822171D01*
X27802136Y-26833502D01*
X27909451Y-26850500D01*
X27909454Y-26850500D01*
X28090549Y-26850500D01*
X28179977Y-26836335D01*
X28269409Y-26822171D01*
X28441639Y-26766211D01*
X28602994Y-26683996D01*
X28749501Y-26577553D01*
X28877553Y-26449501D01*
X28983996Y-26302994D01*
X29066211Y-26141639D01*
X29122171Y-25969409D01*
X29150500Y-25790546D01*
X29150500Y-25609454D01*
X29150500Y-25609450D01*
X29389500Y-25609450D01*
X29389500Y-25790549D01*
X29417828Y-25969406D01*
X29473788Y-26141637D01*
X29532666Y-26257192D01*
X29556004Y-26302994D01*
X29662447Y-26449501D01*
X29790499Y-26577553D01*
X29937006Y-26683996D01*
X30098361Y-26766211D01*
X30270591Y-26822171D01*
X30342136Y-26833502D01*
X30449451Y-26850500D01*
X30449454Y-26850500D01*
X30630549Y-26850500D01*
X30719977Y-26836335D01*
X30809409Y-26822171D01*
X30981639Y-26766211D01*
X31142994Y-26683996D01*
X31289501Y-26577553D01*
X31417553Y-26449501D01*
X31523996Y-26302994D01*
X31606211Y-26141639D01*
X31662171Y-25969409D01*
X31690500Y-25790546D01*
X31690500Y-25609454D01*
X31690500Y-25609450D01*
X31929500Y-25609450D01*
X31929500Y-25790549D01*
X31957828Y-25969406D01*
X32013788Y-26141637D01*
X32072666Y-26257192D01*
X32096004Y-26302994D01*
X32202447Y-26449501D01*
X32330499Y-26577553D01*
X32477006Y-26683996D01*
X32638361Y-26766211D01*
X32810591Y-26822171D01*
X32882136Y-26833502D01*
X32989451Y-26850500D01*
X32989454Y-26850500D01*
X33170549Y-26850500D01*
X33259977Y-26836335D01*
X33349409Y-26822171D01*
X33521639Y-26766211D01*
X33682994Y-26683996D01*
X33829501Y-26577553D01*
X33957553Y-26449501D01*
X34063996Y-26302994D01*
X34146211Y-26141639D01*
X34202171Y-25969409D01*
X34230500Y-25790546D01*
X34230500Y-25609454D01*
X34230500Y-25609450D01*
X34469500Y-25609450D01*
X34469500Y-25790549D01*
X34497828Y-25969406D01*
X34553788Y-26141637D01*
X34612666Y-26257192D01*
X34636004Y-26302994D01*
X34742447Y-26449501D01*
X34870499Y-26577553D01*
X35017006Y-26683996D01*
X35178361Y-26766211D01*
X35350591Y-26822171D01*
X35422136Y-26833502D01*
X35529451Y-26850500D01*
X35529454Y-26850500D01*
X35710549Y-26850500D01*
X35799977Y-26836335D01*
X35889409Y-26822171D01*
X36061639Y-26766211D01*
X36222994Y-26683996D01*
X36369501Y-26577553D01*
X36497553Y-26449501D01*
X36603996Y-26302994D01*
X36686211Y-26141639D01*
X36742171Y-25969409D01*
X36770500Y-25790546D01*
X36770500Y-25609454D01*
X36770500Y-25609450D01*
X36742171Y-25430593D01*
X36742171Y-25430591D01*
X36686211Y-25258361D01*
X36686210Y-25258359D01*
X36686208Y-25258353D01*
X36616986Y-25122499D01*
X36616985Y-25122498D01*
X36603999Y-25097010D01*
X36603998Y-25097009D01*
X36603996Y-25097006D01*
X36594578Y-25084043D01*
X48657600Y-25084043D01*
X48657600Y-25242157D01*
X48698523Y-25394884D01*
X48777580Y-25531816D01*
X48889384Y-25643620D01*
X49026316Y-25722677D01*
X49179043Y-25763600D01*
X49179045Y-25763600D01*
X49337155Y-25763600D01*
X49337157Y-25763600D01*
X49489884Y-25722677D01*
X49626816Y-25643620D01*
X49738620Y-25531816D01*
X49817677Y-25394884D01*
X49858600Y-25242157D01*
X49858600Y-25084043D01*
X49817677Y-24931316D01*
X49738620Y-24794384D01*
X49626816Y-24682580D01*
X49489884Y-24603523D01*
X49337157Y-24562600D01*
X49179043Y-24562600D01*
X49026316Y-24603523D01*
X48889384Y-24682580D01*
X48777580Y-24794384D01*
X48698523Y-24931316D01*
X48657600Y-25084043D01*
X36594578Y-25084043D01*
X36497553Y-24950499D01*
X36369501Y-24822447D01*
X36222994Y-24716004D01*
X36222993Y-24716003D01*
X36222991Y-24716002D01*
X36061637Y-24633788D01*
X35889406Y-24577828D01*
X35710549Y-24549500D01*
X35710546Y-24549500D01*
X35529454Y-24549500D01*
X35529451Y-24549500D01*
X35350593Y-24577828D01*
X35178362Y-24633788D01*
X35017008Y-24716002D01*
X34970214Y-24750000D01*
X34870499Y-24822447D01*
X34742447Y-24950499D01*
X34689225Y-25023752D01*
X34636002Y-25097008D01*
X34553788Y-25258362D01*
X34497828Y-25430593D01*
X34469500Y-25609450D01*
X34230500Y-25609450D01*
X34202171Y-25430593D01*
X34202171Y-25430591D01*
X34146211Y-25258361D01*
X34063996Y-25097006D01*
X33957553Y-24950499D01*
X33829501Y-24822447D01*
X33682994Y-24716004D01*
X33682993Y-24716003D01*
X33682991Y-24716002D01*
X33521637Y-24633788D01*
X33349406Y-24577828D01*
X33170549Y-24549500D01*
X33170546Y-24549500D01*
X32989454Y-24549500D01*
X32989451Y-24549500D01*
X32810593Y-24577828D01*
X32638362Y-24633788D01*
X32477008Y-24716002D01*
X32430214Y-24750000D01*
X32330499Y-24822447D01*
X32202447Y-24950499D01*
X32149225Y-25023752D01*
X32096002Y-25097008D01*
X32013788Y-25258362D01*
X31957828Y-25430593D01*
X31929500Y-25609450D01*
X31690500Y-25609450D01*
X31662171Y-25430593D01*
X31662171Y-25430591D01*
X31606211Y-25258361D01*
X31523996Y-25097006D01*
X31417553Y-24950499D01*
X31289501Y-24822447D01*
X31142994Y-24716004D01*
X31142993Y-24716003D01*
X31142991Y-24716002D01*
X30981637Y-24633788D01*
X30809406Y-24577828D01*
X30630549Y-24549500D01*
X30630546Y-24549500D01*
X30449454Y-24549500D01*
X30449451Y-24549500D01*
X30270593Y-24577828D01*
X30098362Y-24633788D01*
X29937008Y-24716002D01*
X29890214Y-24750000D01*
X29790499Y-24822447D01*
X29662447Y-24950499D01*
X29609225Y-25023752D01*
X29556002Y-25097008D01*
X29473788Y-25258362D01*
X29417828Y-25430593D01*
X29389500Y-25609450D01*
X29150500Y-25609450D01*
X29122171Y-25430593D01*
X29122171Y-25430591D01*
X29066211Y-25258361D01*
X28983996Y-25097006D01*
X28877553Y-24950499D01*
X28749501Y-24822447D01*
X28602994Y-24716004D01*
X28602993Y-24716003D01*
X28602991Y-24716002D01*
X28441637Y-24633788D01*
X28269406Y-24577828D01*
X28090549Y-24549500D01*
X28090546Y-24549500D01*
X27909454Y-24549500D01*
X27909451Y-24549500D01*
X27730593Y-24577828D01*
X27558362Y-24633788D01*
X27397008Y-24716002D01*
X27350214Y-24750000D01*
X27250499Y-24822447D01*
X27122447Y-24950499D01*
X27069225Y-25023752D01*
X27016002Y-25097008D01*
X26933788Y-25258362D01*
X26877828Y-25430593D01*
X26849500Y-25609450D01*
X18000000Y-25609450D01*
X18000000Y-25250001D01*
X17999999Y-25250000D01*
X16975278Y-25250000D01*
X17019333Y-25173694D01*
X17050000Y-25059244D01*
X17050000Y-24940756D01*
X17019333Y-24826306D01*
X16975278Y-24750000D01*
X17999999Y-24750000D01*
X18000000Y-24749999D01*
X18000000Y-24052175D01*
X17993598Y-23992629D01*
X17993596Y-23992618D01*
X17943353Y-23857911D01*
X17943352Y-23857909D01*
X17857192Y-23742815D01*
X17857184Y-23742807D01*
X17742090Y-23656647D01*
X17742088Y-23656646D01*
X17607381Y-23606403D01*
X17607370Y-23606401D01*
X17547824Y-23600000D01*
X16850001Y-23600000D01*
X16850000Y-23600001D01*
X16850000Y-24624722D01*
X16773694Y-24580667D01*
X16659244Y-24550000D01*
X16540756Y-24550000D01*
X16426306Y-24580667D01*
X16350000Y-24624722D01*
X16350000Y-23600001D01*
X16349999Y-23600000D01*
X15652176Y-23600000D01*
X15592629Y-23606401D01*
X15592618Y-23606403D01*
X15457911Y-23656646D01*
X15457909Y-23656647D01*
X15342815Y-23742807D01*
X15342807Y-23742815D01*
X15256647Y-23857909D01*
X15256646Y-23857911D01*
X15206403Y-23992618D01*
X15206401Y-23992629D01*
X15200000Y-24052175D01*
X15200000Y-24221972D01*
X15181093Y-24280163D01*
X15131593Y-24316127D01*
X15070407Y-24316127D01*
X15020908Y-24280163D01*
X14975694Y-24217932D01*
X14975692Y-24217930D01*
X14975690Y-24217927D01*
X14842073Y-24084310D01*
X14689199Y-23973240D01*
X14689198Y-23973239D01*
X14689196Y-23973238D01*
X14520832Y-23887453D01*
X14341113Y-23829058D01*
X14154484Y-23799500D01*
X14154481Y-23799500D01*
X13965519Y-23799500D01*
X13965516Y-23799500D01*
X13778886Y-23829058D01*
X13599167Y-23887453D01*
X13430803Y-23973238D01*
X13277928Y-24084309D01*
X13144309Y-24217928D01*
X13033238Y-24370803D01*
X12947453Y-24539167D01*
X12889058Y-24718886D01*
X12859500Y-24905515D01*
X11719254Y-24905515D01*
X11693402Y-24742297D01*
X11693401Y-24742293D01*
X11639876Y-24577561D01*
X11639874Y-24577558D01*
X11639873Y-24577557D01*
X11639873Y-24577555D01*
X11561232Y-24423212D01*
X11459414Y-24283072D01*
X11336928Y-24160586D01*
X11196788Y-24058768D01*
X11196787Y-24058767D01*
X11196785Y-24058766D01*
X11042441Y-23980125D01*
X11042438Y-23980123D01*
X10877706Y-23926598D01*
X10877702Y-23926597D01*
X10706614Y-23899500D01*
X10706611Y-23899500D01*
X10533389Y-23899500D01*
X10533386Y-23899500D01*
X10362297Y-23926597D01*
X10362293Y-23926598D01*
X10197561Y-23980123D01*
X10197558Y-23980125D01*
X10043214Y-24058766D01*
X9903073Y-24160585D01*
X9780585Y-24283073D01*
X9678766Y-24423214D01*
X9600125Y-24577558D01*
X9600123Y-24577561D01*
X9546598Y-24742293D01*
X9546597Y-24742297D01*
X9519500Y-24913385D01*
X4100500Y-24913385D01*
X4073402Y-24742297D01*
X4073401Y-24742293D01*
X4019876Y-24577561D01*
X4019874Y-24577558D01*
X4019873Y-24577557D01*
X4019873Y-24577555D01*
X3941232Y-24423212D01*
X3839414Y-24283072D01*
X3716928Y-24160586D01*
X3576788Y-24058768D01*
X3576787Y-24058767D01*
X3576785Y-24058766D01*
X3422441Y-23980125D01*
X3422438Y-23980123D01*
X3257706Y-23926598D01*
X3257702Y-23926597D01*
X3086614Y-23899500D01*
X3086611Y-23899500D01*
X2913389Y-23899500D01*
X2913386Y-23899500D01*
X2742297Y-23926597D01*
X2742293Y-23926598D01*
X2577561Y-23980123D01*
X2577558Y-23980125D01*
X2423214Y-24058766D01*
X2283073Y-24160585D01*
X2160585Y-24283073D01*
X2058766Y-24423214D01*
X1980125Y-24577558D01*
X1980123Y-24577561D01*
X1926598Y-24742293D01*
X1926597Y-24742297D01*
X1899500Y-24913385D01*
X600000Y-24913385D01*
X600000Y-23069450D01*
X26849500Y-23069450D01*
X26849500Y-23250549D01*
X26877828Y-23429406D01*
X26933788Y-23601637D01*
X26961816Y-23656646D01*
X27016004Y-23762994D01*
X27122447Y-23909501D01*
X27250499Y-24037553D01*
X27397006Y-24143996D01*
X27558361Y-24226211D01*
X27730591Y-24282171D01*
X27802136Y-24293502D01*
X27909451Y-24310500D01*
X27909454Y-24310500D01*
X28090549Y-24310500D01*
X28179977Y-24296335D01*
X28269409Y-24282171D01*
X28441639Y-24226211D01*
X28602994Y-24143996D01*
X28749501Y-24037553D01*
X28877553Y-23909501D01*
X28983996Y-23762994D01*
X29066211Y-23601639D01*
X29122171Y-23429409D01*
X29150500Y-23250546D01*
X29150500Y-23069454D01*
X29150500Y-23069450D01*
X29389500Y-23069450D01*
X29389500Y-23250549D01*
X29417828Y-23429406D01*
X29473788Y-23601637D01*
X29501816Y-23656646D01*
X29556004Y-23762994D01*
X29662447Y-23909501D01*
X29790499Y-24037553D01*
X29937006Y-24143996D01*
X30098361Y-24226211D01*
X30270591Y-24282171D01*
X30342136Y-24293502D01*
X30449451Y-24310500D01*
X30449454Y-24310500D01*
X30630549Y-24310500D01*
X30719977Y-24296335D01*
X30809409Y-24282171D01*
X30981639Y-24226211D01*
X31142994Y-24143996D01*
X31289501Y-24037553D01*
X31417553Y-23909501D01*
X31523996Y-23762994D01*
X31606211Y-23601639D01*
X31662171Y-23429409D01*
X31690500Y-23250546D01*
X31690500Y-23069454D01*
X31690500Y-23069450D01*
X31929500Y-23069450D01*
X31929500Y-23250549D01*
X31957828Y-23429406D01*
X32013788Y-23601637D01*
X32041816Y-23656646D01*
X32096004Y-23762994D01*
X32202447Y-23909501D01*
X32330499Y-24037553D01*
X32477006Y-24143996D01*
X32638361Y-24226211D01*
X32810591Y-24282171D01*
X32882136Y-24293502D01*
X32989451Y-24310500D01*
X32989454Y-24310500D01*
X33170549Y-24310500D01*
X33259977Y-24296335D01*
X33349409Y-24282171D01*
X33521639Y-24226211D01*
X33682994Y-24143996D01*
X33829501Y-24037553D01*
X33957553Y-23909501D01*
X34063996Y-23762994D01*
X34146211Y-23601639D01*
X34202171Y-23429409D01*
X34230500Y-23250546D01*
X34230500Y-23069454D01*
X34230500Y-23069450D01*
X34469500Y-23069450D01*
X34469500Y-23250549D01*
X34497828Y-23429406D01*
X34553788Y-23601637D01*
X34581816Y-23656646D01*
X34636004Y-23762994D01*
X34742447Y-23909501D01*
X34870499Y-24037553D01*
X35017006Y-24143996D01*
X35178361Y-24226211D01*
X35350591Y-24282171D01*
X35422136Y-24293502D01*
X35529451Y-24310500D01*
X35529454Y-24310500D01*
X35710549Y-24310500D01*
X35799977Y-24296335D01*
X35889409Y-24282171D01*
X36061639Y-24226211D01*
X36222994Y-24143996D01*
X36369501Y-24037553D01*
X36497553Y-23909501D01*
X36603996Y-23762994D01*
X36686211Y-23601639D01*
X36742171Y-23429409D01*
X36770500Y-23250546D01*
X36770500Y-23069454D01*
X36770500Y-23069450D01*
X36746827Y-22919988D01*
X36742171Y-22890591D01*
X36686211Y-22718361D01*
X36603996Y-22557006D01*
X36497553Y-22410499D01*
X36369501Y-22282447D01*
X36222994Y-22176004D01*
X36222993Y-22176003D01*
X36222991Y-22176002D01*
X36061637Y-22093788D01*
X35889406Y-22037828D01*
X35710549Y-22009500D01*
X35710546Y-22009500D01*
X35529454Y-22009500D01*
X35529451Y-22009500D01*
X35350593Y-22037828D01*
X35178362Y-22093788D01*
X35017008Y-22176002D01*
X34943752Y-22229225D01*
X34870499Y-22282447D01*
X34742447Y-22410499D01*
X34719823Y-22441639D01*
X34636002Y-22557008D01*
X34553788Y-22718362D01*
X34497828Y-22890593D01*
X34469500Y-23069450D01*
X34230500Y-23069450D01*
X34206827Y-22919988D01*
X34202171Y-22890591D01*
X34146211Y-22718361D01*
X34063996Y-22557006D01*
X33957553Y-22410499D01*
X33829501Y-22282447D01*
X33682994Y-22176004D01*
X33682993Y-22176003D01*
X33682991Y-22176002D01*
X33521637Y-22093788D01*
X33349406Y-22037828D01*
X33170549Y-22009500D01*
X33170546Y-22009500D01*
X32989454Y-22009500D01*
X32989451Y-22009500D01*
X32810593Y-22037828D01*
X32638362Y-22093788D01*
X32477008Y-22176002D01*
X32403752Y-22229225D01*
X32330499Y-22282447D01*
X32202447Y-22410499D01*
X32179823Y-22441639D01*
X32096002Y-22557008D01*
X32013788Y-22718362D01*
X31957828Y-22890593D01*
X31929500Y-23069450D01*
X31690500Y-23069450D01*
X31666827Y-22919988D01*
X31662171Y-22890591D01*
X31606211Y-22718361D01*
X31523996Y-22557006D01*
X31417553Y-22410499D01*
X31289501Y-22282447D01*
X31142994Y-22176004D01*
X31142993Y-22176003D01*
X31142991Y-22176002D01*
X30981637Y-22093788D01*
X30809406Y-22037828D01*
X30630549Y-22009500D01*
X30630546Y-22009500D01*
X30449454Y-22009500D01*
X30449451Y-22009500D01*
X30270593Y-22037828D01*
X30098362Y-22093788D01*
X29937008Y-22176002D01*
X29863752Y-22229225D01*
X29790499Y-22282447D01*
X29662447Y-22410499D01*
X29639823Y-22441639D01*
X29556002Y-22557008D01*
X29473788Y-22718362D01*
X29417828Y-22890593D01*
X29389500Y-23069450D01*
X29150500Y-23069450D01*
X29126827Y-22919988D01*
X29122171Y-22890591D01*
X29066211Y-22718361D01*
X28983996Y-22557006D01*
X28877553Y-22410499D01*
X28749501Y-22282447D01*
X28602994Y-22176004D01*
X28602993Y-22176003D01*
X28602991Y-22176002D01*
X28441637Y-22093788D01*
X28269406Y-22037828D01*
X28090549Y-22009500D01*
X28090546Y-22009500D01*
X27909454Y-22009500D01*
X27909451Y-22009500D01*
X27730593Y-22037828D01*
X27558362Y-22093788D01*
X27397008Y-22176002D01*
X27323752Y-22229225D01*
X27250499Y-22282447D01*
X27122447Y-22410499D01*
X27099823Y-22441639D01*
X27016002Y-22557008D01*
X26933788Y-22718362D01*
X26877828Y-22890593D01*
X26849500Y-23069450D01*
X600000Y-23069450D01*
X600000Y-20529450D01*
X26849500Y-20529450D01*
X26849500Y-20710549D01*
X26877828Y-20889406D01*
X26918961Y-21016004D01*
X26933789Y-21061639D01*
X27016004Y-21222994D01*
X27122447Y-21369501D01*
X27250499Y-21497553D01*
X27397006Y-21603996D01*
X27558361Y-21686211D01*
X27730591Y-21742171D01*
X27802136Y-21753502D01*
X27909451Y-21770500D01*
X27909454Y-21770500D01*
X28090549Y-21770500D01*
X28179977Y-21756335D01*
X28269409Y-21742171D01*
X28441639Y-21686211D01*
X28602994Y-21603996D01*
X28749501Y-21497553D01*
X28877553Y-21369501D01*
X28983996Y-21222994D01*
X29066211Y-21061639D01*
X29122171Y-20889409D01*
X29150500Y-20710546D01*
X29150500Y-20529454D01*
X29150500Y-20529450D01*
X29389500Y-20529450D01*
X29389500Y-20710549D01*
X29417828Y-20889406D01*
X29458961Y-21016004D01*
X29473789Y-21061639D01*
X29556004Y-21222994D01*
X29662447Y-21369501D01*
X29790499Y-21497553D01*
X29937006Y-21603996D01*
X30098361Y-21686211D01*
X30270591Y-21742171D01*
X30342136Y-21753502D01*
X30449451Y-21770500D01*
X30449454Y-21770500D01*
X30630549Y-21770500D01*
X30719977Y-21756335D01*
X30809409Y-21742171D01*
X30981639Y-21686211D01*
X31142994Y-21603996D01*
X31289501Y-21497553D01*
X31417553Y-21369501D01*
X31523996Y-21222994D01*
X31606211Y-21061639D01*
X31662171Y-20889409D01*
X31690500Y-20710546D01*
X31690500Y-20529454D01*
X31690500Y-20529450D01*
X31929500Y-20529450D01*
X31929500Y-20710549D01*
X31957828Y-20889406D01*
X31998961Y-21016004D01*
X32013789Y-21061639D01*
X32096004Y-21222994D01*
X32202447Y-21369501D01*
X32330499Y-21497553D01*
X32477006Y-21603996D01*
X32638361Y-21686211D01*
X32810591Y-21742171D01*
X32882136Y-21753502D01*
X32989451Y-21770500D01*
X32989454Y-21770500D01*
X33170549Y-21770500D01*
X33259977Y-21756335D01*
X33349409Y-21742171D01*
X33521639Y-21686211D01*
X33682994Y-21603996D01*
X33829501Y-21497553D01*
X33957553Y-21369501D01*
X34063996Y-21222994D01*
X34146211Y-21061639D01*
X34202171Y-20889409D01*
X34230500Y-20710546D01*
X34230500Y-20529454D01*
X34230500Y-20529450D01*
X34469500Y-20529450D01*
X34469500Y-20710549D01*
X34497828Y-20889406D01*
X34538961Y-21016004D01*
X34553789Y-21061639D01*
X34636004Y-21222994D01*
X34742447Y-21369501D01*
X34870499Y-21497553D01*
X35017006Y-21603996D01*
X35178361Y-21686211D01*
X35350591Y-21742171D01*
X35422136Y-21753502D01*
X35529451Y-21770500D01*
X35529454Y-21770500D01*
X35710549Y-21770500D01*
X35799977Y-21756335D01*
X35889409Y-21742171D01*
X36061639Y-21686211D01*
X36222994Y-21603996D01*
X36369501Y-21497553D01*
X36497553Y-21369501D01*
X36603996Y-21222994D01*
X36664051Y-21105130D01*
X42849500Y-21105130D01*
X42849500Y-22894860D01*
X42849501Y-22894863D01*
X42852414Y-22919990D01*
X42877756Y-22977385D01*
X42897794Y-23022765D01*
X42977235Y-23102206D01*
X43080009Y-23147585D01*
X43105135Y-23150500D01*
X44894864Y-23150499D01*
X44919991Y-23147585D01*
X45022765Y-23102206D01*
X45102206Y-23022765D01*
X45147585Y-22919991D01*
X45150500Y-22894865D01*
X45150499Y-21909450D01*
X45389500Y-21909450D01*
X45389500Y-22090549D01*
X45417828Y-22269406D01*
X45473788Y-22441637D01*
X45533850Y-22559516D01*
X45556004Y-22602994D01*
X45662447Y-22749501D01*
X45790499Y-22877553D01*
X45937006Y-22983996D01*
X46098361Y-23066211D01*
X46270591Y-23122171D01*
X46342136Y-23133502D01*
X46449451Y-23150500D01*
X46449454Y-23150500D01*
X46630549Y-23150500D01*
X46719977Y-23136335D01*
X46809409Y-23122171D01*
X46981639Y-23066211D01*
X47142994Y-22983996D01*
X47289501Y-22877553D01*
X47417553Y-22749501D01*
X47523996Y-22602994D01*
X47606211Y-22441639D01*
X47639734Y-22338463D01*
X47675696Y-22288965D01*
X47733887Y-22270057D01*
X47792078Y-22288964D01*
X47828042Y-22338463D01*
X47829513Y-22343429D01*
X47850723Y-22422584D01*
X47929780Y-22559516D01*
X48041584Y-22671320D01*
X48178516Y-22750377D01*
X48331243Y-22791300D01*
X48331245Y-22791300D01*
X48489355Y-22791300D01*
X48489357Y-22791300D01*
X48642084Y-22750377D01*
X48779016Y-22671320D01*
X48890820Y-22559516D01*
X48969877Y-22422584D01*
X49010800Y-22269857D01*
X49010800Y-22111743D01*
X48969877Y-21959016D01*
X48890820Y-21822084D01*
X48779016Y-21710280D01*
X48642084Y-21631223D01*
X48489357Y-21590300D01*
X48331243Y-21590300D01*
X48178516Y-21631223D01*
X48041584Y-21710280D01*
X47929778Y-21822086D01*
X47870935Y-21924006D01*
X47825466Y-21964947D01*
X47764616Y-21971343D01*
X47711628Y-21940750D01*
X47687418Y-21889993D01*
X47662171Y-21730593D01*
X47662171Y-21730591D01*
X47606211Y-21558361D01*
X47523996Y-21397006D01*
X47417553Y-21250499D01*
X47289501Y-21122447D01*
X47142994Y-21016004D01*
X47142993Y-21016003D01*
X47142991Y-21016002D01*
X46981637Y-20933788D01*
X46809406Y-20877828D01*
X46630549Y-20849500D01*
X46630546Y-20849500D01*
X46449454Y-20849500D01*
X46449451Y-20849500D01*
X46270593Y-20877828D01*
X46098362Y-20933788D01*
X45937008Y-21016002D01*
X45874197Y-21061637D01*
X45790499Y-21122447D01*
X45662447Y-21250499D01*
X45609225Y-21323752D01*
X45556002Y-21397008D01*
X45473788Y-21558362D01*
X45417828Y-21730593D01*
X45389500Y-21909450D01*
X45150499Y-21909450D01*
X45150499Y-21105136D01*
X45147585Y-21080009D01*
X45102206Y-20977235D01*
X45022765Y-20897794D01*
X44919991Y-20852415D01*
X44919990Y-20852414D01*
X44919988Y-20852414D01*
X44894868Y-20849500D01*
X43105139Y-20849500D01*
X43105136Y-20849501D01*
X43080009Y-20852414D01*
X42977235Y-20897794D01*
X42897794Y-20977235D01*
X42852414Y-21080011D01*
X42849500Y-21105130D01*
X36664051Y-21105130D01*
X36686211Y-21061639D01*
X36742171Y-20889409D01*
X36770500Y-20710546D01*
X36770500Y-20529454D01*
X36770500Y-20529450D01*
X36742171Y-20350593D01*
X36742171Y-20350591D01*
X36686211Y-20178361D01*
X36603996Y-20017006D01*
X36497553Y-19870499D01*
X36369501Y-19742447D01*
X36222994Y-19636004D01*
X36222993Y-19636003D01*
X36222991Y-19636002D01*
X36061637Y-19553788D01*
X35889406Y-19497828D01*
X35710549Y-19469500D01*
X35710546Y-19469500D01*
X35529454Y-19469500D01*
X35529451Y-19469500D01*
X35350593Y-19497828D01*
X35178362Y-19553788D01*
X35017008Y-19636002D01*
X34943752Y-19689225D01*
X34870499Y-19742447D01*
X34742447Y-19870499D01*
X34689225Y-19943752D01*
X34636002Y-20017008D01*
X34553788Y-20178362D01*
X34497828Y-20350593D01*
X34469500Y-20529450D01*
X34230500Y-20529450D01*
X34202171Y-20350593D01*
X34202171Y-20350591D01*
X34146211Y-20178361D01*
X34063996Y-20017006D01*
X33957553Y-19870499D01*
X33829501Y-19742447D01*
X33682994Y-19636004D01*
X33682993Y-19636003D01*
X33682991Y-19636002D01*
X33521637Y-19553788D01*
X33349406Y-19497828D01*
X33170549Y-19469500D01*
X33170546Y-19469500D01*
X32989454Y-19469500D01*
X32989451Y-19469500D01*
X32810593Y-19497828D01*
X32638362Y-19553788D01*
X32477008Y-19636002D01*
X32403752Y-19689225D01*
X32330499Y-19742447D01*
X32202447Y-19870499D01*
X32149225Y-19943752D01*
X32096002Y-20017008D01*
X32013788Y-20178362D01*
X31957828Y-20350593D01*
X31929500Y-20529450D01*
X31690500Y-20529450D01*
X31662171Y-20350593D01*
X31662171Y-20350591D01*
X31606211Y-20178361D01*
X31523996Y-20017006D01*
X31417553Y-19870499D01*
X31289501Y-19742447D01*
X31142994Y-19636004D01*
X31142993Y-19636003D01*
X31142991Y-19636002D01*
X30981637Y-19553788D01*
X30809406Y-19497828D01*
X30630549Y-19469500D01*
X30630546Y-19469500D01*
X30449454Y-19469500D01*
X30449451Y-19469500D01*
X30270593Y-19497828D01*
X30098362Y-19553788D01*
X29937008Y-19636002D01*
X29863752Y-19689225D01*
X29790499Y-19742447D01*
X29662447Y-19870499D01*
X29609225Y-19943752D01*
X29556002Y-20017008D01*
X29473788Y-20178362D01*
X29417828Y-20350593D01*
X29389500Y-20529450D01*
X29150500Y-20529450D01*
X29122171Y-20350593D01*
X29122171Y-20350591D01*
X29066211Y-20178361D01*
X28983996Y-20017006D01*
X28877553Y-19870499D01*
X28749501Y-19742447D01*
X28602994Y-19636004D01*
X28602993Y-19636003D01*
X28602991Y-19636002D01*
X28441637Y-19553788D01*
X28269406Y-19497828D01*
X28090549Y-19469500D01*
X28090546Y-19469500D01*
X27909454Y-19469500D01*
X27909451Y-19469500D01*
X27730593Y-19497828D01*
X27558362Y-19553788D01*
X27397008Y-19636002D01*
X27323752Y-19689225D01*
X27250499Y-19742447D01*
X27122447Y-19870499D01*
X27069225Y-19943752D01*
X27016002Y-20017008D01*
X26933788Y-20178362D01*
X26877828Y-20350593D01*
X26849500Y-20529450D01*
X600000Y-20529450D01*
X600000Y-17989450D01*
X26849500Y-17989450D01*
X26849500Y-18170549D01*
X26877828Y-18349406D01*
X26877829Y-18349409D01*
X26933789Y-18521639D01*
X27016004Y-18682994D01*
X27122447Y-18829501D01*
X27250499Y-18957553D01*
X27397006Y-19063996D01*
X27558361Y-19146211D01*
X27730591Y-19202171D01*
X27802136Y-19213502D01*
X27909451Y-19230500D01*
X27909454Y-19230500D01*
X28090549Y-19230500D01*
X28179977Y-19216335D01*
X28269409Y-19202171D01*
X28441639Y-19146211D01*
X28602994Y-19063996D01*
X28749501Y-18957553D01*
X28877553Y-18829501D01*
X28983996Y-18682994D01*
X29066211Y-18521639D01*
X29122171Y-18349409D01*
X29150500Y-18170546D01*
X29150500Y-17989454D01*
X29150500Y-17989450D01*
X29389500Y-17989450D01*
X29389500Y-18170549D01*
X29417828Y-18349406D01*
X29417829Y-18349409D01*
X29473789Y-18521639D01*
X29556004Y-18682994D01*
X29662447Y-18829501D01*
X29790499Y-18957553D01*
X29937006Y-19063996D01*
X30098361Y-19146211D01*
X30270591Y-19202171D01*
X30342136Y-19213502D01*
X30449451Y-19230500D01*
X30449454Y-19230500D01*
X30630549Y-19230500D01*
X30719977Y-19216335D01*
X30809409Y-19202171D01*
X30981639Y-19146211D01*
X31142994Y-19063996D01*
X31289501Y-18957553D01*
X31417553Y-18829501D01*
X31523996Y-18682994D01*
X31606211Y-18521639D01*
X31662171Y-18349409D01*
X31690500Y-18170546D01*
X31690500Y-17989454D01*
X31690500Y-17989450D01*
X31929500Y-17989450D01*
X31929500Y-18170549D01*
X31957828Y-18349406D01*
X31957829Y-18349409D01*
X32013789Y-18521639D01*
X32096004Y-18682994D01*
X32202447Y-18829501D01*
X32330499Y-18957553D01*
X32477006Y-19063996D01*
X32638361Y-19146211D01*
X32810591Y-19202171D01*
X32882136Y-19213502D01*
X32989451Y-19230500D01*
X32989454Y-19230500D01*
X33170549Y-19230500D01*
X33259977Y-19216335D01*
X33349409Y-19202171D01*
X33521639Y-19146211D01*
X33682994Y-19063996D01*
X33829501Y-18957553D01*
X33957553Y-18829501D01*
X34063996Y-18682994D01*
X34146211Y-18521639D01*
X34202171Y-18349409D01*
X34230500Y-18170546D01*
X34230500Y-17989454D01*
X34230500Y-17989450D01*
X34469500Y-17989450D01*
X34469500Y-18170549D01*
X34497828Y-18349406D01*
X34497829Y-18349409D01*
X34553789Y-18521639D01*
X34636004Y-18682994D01*
X34742447Y-18829501D01*
X34870499Y-18957553D01*
X35017006Y-19063996D01*
X35178361Y-19146211D01*
X35350591Y-19202171D01*
X35422136Y-19213502D01*
X35529451Y-19230500D01*
X35529454Y-19230500D01*
X35710549Y-19230500D01*
X35799977Y-19216335D01*
X35889409Y-19202171D01*
X36061639Y-19146211D01*
X36222994Y-19063996D01*
X36369501Y-18957553D01*
X36497553Y-18829501D01*
X36603996Y-18682994D01*
X36686211Y-18521639D01*
X36742171Y-18349409D01*
X36770500Y-18170546D01*
X36770500Y-17989454D01*
X36770500Y-17989450D01*
X36742171Y-17810593D01*
X36742171Y-17810591D01*
X36686211Y-17638361D01*
X36603996Y-17477006D01*
X36497553Y-17330499D01*
X36369501Y-17202447D01*
X36222994Y-17096004D01*
X36222993Y-17096003D01*
X36222991Y-17096002D01*
X36061637Y-17013788D01*
X35889406Y-16957828D01*
X35710549Y-16929500D01*
X35710546Y-16929500D01*
X35529454Y-16929500D01*
X35529451Y-16929500D01*
X35350593Y-16957828D01*
X35178362Y-17013788D01*
X35017008Y-17096002D01*
X34994236Y-17112547D01*
X34870499Y-17202447D01*
X34742447Y-17330499D01*
X34696605Y-17393596D01*
X34636002Y-17477008D01*
X34553788Y-17638362D01*
X34497828Y-17810593D01*
X34469500Y-17989450D01*
X34230500Y-17989450D01*
X34202171Y-17810593D01*
X34202171Y-17810591D01*
X34146211Y-17638361D01*
X34063996Y-17477006D01*
X33957553Y-17330499D01*
X33829501Y-17202447D01*
X33682994Y-17096004D01*
X33682993Y-17096003D01*
X33682991Y-17096002D01*
X33521637Y-17013788D01*
X33349406Y-16957828D01*
X33170549Y-16929500D01*
X33170546Y-16929500D01*
X32989454Y-16929500D01*
X32989451Y-16929500D01*
X32810593Y-16957828D01*
X32638362Y-17013788D01*
X32477008Y-17096002D01*
X32454236Y-17112547D01*
X32330499Y-17202447D01*
X32202447Y-17330499D01*
X32156605Y-17393596D01*
X32096002Y-17477008D01*
X32013788Y-17638362D01*
X31957828Y-17810593D01*
X31929500Y-17989450D01*
X31690500Y-17989450D01*
X31662171Y-17810593D01*
X31662171Y-17810591D01*
X31606211Y-17638361D01*
X31523996Y-17477006D01*
X31417553Y-17330499D01*
X31289501Y-17202447D01*
X31142994Y-17096004D01*
X31142993Y-17096003D01*
X31142991Y-17096002D01*
X30981637Y-17013788D01*
X30809406Y-16957828D01*
X30630549Y-16929500D01*
X30630546Y-16929500D01*
X30449454Y-16929500D01*
X30449451Y-16929500D01*
X30270593Y-16957828D01*
X30098362Y-17013788D01*
X29937008Y-17096002D01*
X29914236Y-17112547D01*
X29790499Y-17202447D01*
X29662447Y-17330499D01*
X29616605Y-17393596D01*
X29556002Y-17477008D01*
X29473788Y-17638362D01*
X29417828Y-17810593D01*
X29389500Y-17989450D01*
X29150500Y-17989450D01*
X29122171Y-17810593D01*
X29122171Y-17810591D01*
X29066211Y-17638361D01*
X28983996Y-17477006D01*
X28877553Y-17330499D01*
X28749501Y-17202447D01*
X28602994Y-17096004D01*
X28602993Y-17096003D01*
X28602991Y-17096002D01*
X28441637Y-17013788D01*
X28269406Y-16957828D01*
X28090549Y-16929500D01*
X28090546Y-16929500D01*
X27909454Y-16929500D01*
X27909451Y-16929500D01*
X27730593Y-16957828D01*
X27558362Y-17013788D01*
X27397008Y-17096002D01*
X27374236Y-17112547D01*
X27250499Y-17202447D01*
X27122447Y-17330499D01*
X27076605Y-17393596D01*
X27016002Y-17477008D01*
X26933788Y-17638362D01*
X26877828Y-17810593D01*
X26849500Y-17989450D01*
X600000Y-17989450D01*
X600000Y-15913385D01*
X1899500Y-15913385D01*
X1899500Y-16086614D01*
X1926597Y-16257702D01*
X1926598Y-16257706D01*
X1980123Y-16422438D01*
X1980125Y-16422441D01*
X1980126Y-16422444D01*
X1980127Y-16422445D01*
X2058768Y-16576788D01*
X2160586Y-16716928D01*
X2283072Y-16839414D01*
X2423212Y-16941232D01*
X2577555Y-17019873D01*
X2577557Y-17019873D01*
X2577558Y-17019874D01*
X2577561Y-17019876D01*
X2742293Y-17073401D01*
X2742297Y-17073402D01*
X2913386Y-17100500D01*
X2913389Y-17100500D01*
X3086614Y-17100500D01*
X3257702Y-17073402D01*
X3257706Y-17073401D01*
X3422438Y-17019876D01*
X3422440Y-17019874D01*
X3422445Y-17019873D01*
X3576788Y-16941232D01*
X3716928Y-16839414D01*
X3839414Y-16716928D01*
X3941232Y-16576788D01*
X4019873Y-16422445D01*
X4019874Y-16422440D01*
X4019876Y-16422438D01*
X4073401Y-16257706D01*
X4073402Y-16257702D01*
X4100500Y-16086614D01*
X4100500Y-15913385D01*
X9519500Y-15913385D01*
X9519500Y-16086614D01*
X9546597Y-16257702D01*
X9546598Y-16257706D01*
X9600123Y-16422438D01*
X9600125Y-16422441D01*
X9600126Y-16422444D01*
X9600127Y-16422445D01*
X9678768Y-16576788D01*
X9780586Y-16716928D01*
X9903072Y-16839414D01*
X10043212Y-16941232D01*
X10197555Y-17019873D01*
X10197557Y-17019873D01*
X10197558Y-17019874D01*
X10197561Y-17019876D01*
X10362293Y-17073401D01*
X10362297Y-17073402D01*
X10533386Y-17100500D01*
X10533389Y-17100500D01*
X10706614Y-17100500D01*
X10877702Y-17073402D01*
X10877706Y-17073401D01*
X11042438Y-17019876D01*
X11042440Y-17019874D01*
X11042445Y-17019873D01*
X11196788Y-16941232D01*
X11336928Y-16839414D01*
X11459414Y-16716928D01*
X11561232Y-16576788D01*
X11639873Y-16422445D01*
X11639874Y-16422440D01*
X11639876Y-16422438D01*
X11693401Y-16257706D01*
X11693402Y-16257702D01*
X11720500Y-16086614D01*
X11720500Y-15913384D01*
X11719254Y-15905515D01*
X12859500Y-15905515D01*
X12859500Y-16094484D01*
X12889058Y-16281113D01*
X12947453Y-16460832D01*
X13006533Y-16576785D01*
X13033240Y-16629199D01*
X13144310Y-16782073D01*
X13277927Y-16915690D01*
X13430801Y-17026760D01*
X13599168Y-17112547D01*
X13778882Y-17170940D01*
X13778883Y-17170940D01*
X13778886Y-17170941D01*
X13965516Y-17200500D01*
X13965519Y-17200500D01*
X14154484Y-17200500D01*
X14341113Y-17170941D01*
X14341114Y-17170940D01*
X14341118Y-17170940D01*
X14520832Y-17112547D01*
X14689199Y-17026760D01*
X14842073Y-16915690D01*
X14975690Y-16782073D01*
X15020909Y-16719834D01*
X15070407Y-16683872D01*
X15131592Y-16683872D01*
X15181093Y-16719836D01*
X15200000Y-16778027D01*
X15200000Y-16947824D01*
X15199999Y-16947824D01*
X15206401Y-17007370D01*
X15206403Y-17007381D01*
X15256646Y-17142088D01*
X15256647Y-17142090D01*
X15342807Y-17257184D01*
X15342815Y-17257192D01*
X15457909Y-17343352D01*
X15457911Y-17343353D01*
X15592618Y-17393596D01*
X15592629Y-17393598D01*
X15652176Y-17400000D01*
X16349999Y-17400000D01*
X16350000Y-17399999D01*
X16350000Y-16375277D01*
X16426306Y-16419333D01*
X16540756Y-16450000D01*
X16659244Y-16450000D01*
X16773694Y-16419333D01*
X16850000Y-16375277D01*
X16850000Y-17399999D01*
X16850001Y-17400000D01*
X17547824Y-17400000D01*
X17607370Y-17393598D01*
X17607381Y-17393596D01*
X17742088Y-17343353D01*
X17742090Y-17343352D01*
X17857184Y-17257192D01*
X17857192Y-17257184D01*
X17943352Y-17142090D01*
X17943353Y-17142088D01*
X17993596Y-17007381D01*
X17993598Y-17007370D01*
X18000000Y-16947824D01*
X18000000Y-16250001D01*
X17999999Y-16250000D01*
X16975278Y-16250000D01*
X17019333Y-16173694D01*
X17050000Y-16059244D01*
X17050000Y-15940756D01*
X17019333Y-15826306D01*
X16975278Y-15750000D01*
X17999999Y-15750000D01*
X18000000Y-15749999D01*
X18000000Y-15449450D01*
X26849500Y-15449450D01*
X26849500Y-15630549D01*
X26877828Y-15809406D01*
X26933788Y-15981637D01*
X26991286Y-16094484D01*
X27016004Y-16142994D01*
X27122447Y-16289501D01*
X27250499Y-16417553D01*
X27397006Y-16523996D01*
X27558361Y-16606211D01*
X27730591Y-16662171D01*
X27802136Y-16673502D01*
X27909451Y-16690500D01*
X27909454Y-16690500D01*
X28090549Y-16690500D01*
X28179977Y-16676335D01*
X28269409Y-16662171D01*
X28441639Y-16606211D01*
X28602994Y-16523996D01*
X28749501Y-16417553D01*
X28877553Y-16289501D01*
X28983996Y-16142994D01*
X29066211Y-15981639D01*
X29122171Y-15809409D01*
X29150500Y-15630546D01*
X29150500Y-15449454D01*
X29150500Y-15449450D01*
X29389500Y-15449450D01*
X29389500Y-15630549D01*
X29417828Y-15809406D01*
X29473788Y-15981637D01*
X29531286Y-16094484D01*
X29556004Y-16142994D01*
X29662447Y-16289501D01*
X29790499Y-16417553D01*
X29937006Y-16523996D01*
X30098361Y-16606211D01*
X30270591Y-16662171D01*
X30342136Y-16673502D01*
X30449451Y-16690500D01*
X30449454Y-16690500D01*
X30630549Y-16690500D01*
X30719977Y-16676335D01*
X30809409Y-16662171D01*
X30981639Y-16606211D01*
X31142994Y-16523996D01*
X31289501Y-16417553D01*
X31417553Y-16289501D01*
X31523996Y-16142994D01*
X31606211Y-15981639D01*
X31662171Y-15809409D01*
X31690500Y-15630546D01*
X31690500Y-15449454D01*
X31690500Y-15449450D01*
X31929500Y-15449450D01*
X31929500Y-15630549D01*
X31957828Y-15809406D01*
X32013788Y-15981637D01*
X32071286Y-16094484D01*
X32096004Y-16142994D01*
X32202447Y-16289501D01*
X32330499Y-16417553D01*
X32477006Y-16523996D01*
X32638361Y-16606211D01*
X32810591Y-16662171D01*
X32882136Y-16673502D01*
X32989451Y-16690500D01*
X32989454Y-16690500D01*
X33170549Y-16690500D01*
X33259977Y-16676335D01*
X33349409Y-16662171D01*
X33521639Y-16606211D01*
X33682994Y-16523996D01*
X33829501Y-16417553D01*
X33957553Y-16289501D01*
X34063996Y-16142994D01*
X34146211Y-15981639D01*
X34202171Y-15809409D01*
X34230500Y-15630546D01*
X34230500Y-15449454D01*
X34230500Y-15449450D01*
X34469500Y-15449450D01*
X34469500Y-15630549D01*
X34497828Y-15809406D01*
X34553788Y-15981637D01*
X34611286Y-16094484D01*
X34636004Y-16142994D01*
X34742447Y-16289501D01*
X34870499Y-16417553D01*
X35017006Y-16523996D01*
X35178361Y-16606211D01*
X35350591Y-16662171D01*
X35422136Y-16673502D01*
X35529451Y-16690500D01*
X35529454Y-16690500D01*
X35710549Y-16690500D01*
X35799977Y-16676335D01*
X35889409Y-16662171D01*
X36061639Y-16606211D01*
X36222994Y-16523996D01*
X36369501Y-16417553D01*
X36497553Y-16289501D01*
X36603996Y-16142994D01*
X36686211Y-15981639D01*
X36742171Y-15809409D01*
X36770500Y-15630546D01*
X36770500Y-15449454D01*
X36770500Y-15449450D01*
X36742171Y-15270593D01*
X36742171Y-15270591D01*
X36686211Y-15098361D01*
X36603996Y-14937006D01*
X36497553Y-14790499D01*
X36369501Y-14662447D01*
X36222994Y-14556004D01*
X36222993Y-14556003D01*
X36222991Y-14556002D01*
X36061637Y-14473788D01*
X35889406Y-14417828D01*
X35710549Y-14389500D01*
X35710546Y-14389500D01*
X35529454Y-14389500D01*
X35529451Y-14389500D01*
X35350593Y-14417828D01*
X35178362Y-14473788D01*
X35017008Y-14556002D01*
X34956450Y-14600000D01*
X34870499Y-14662447D01*
X34742447Y-14790499D01*
X34714431Y-14829060D01*
X34636002Y-14937008D01*
X34553788Y-15098362D01*
X34497828Y-15270593D01*
X34469500Y-15449450D01*
X34230500Y-15449450D01*
X34202171Y-15270593D01*
X34202171Y-15270591D01*
X34146211Y-15098361D01*
X34063996Y-14937006D01*
X33957553Y-14790499D01*
X33829501Y-14662447D01*
X33682994Y-14556004D01*
X33682993Y-14556003D01*
X33682991Y-14556002D01*
X33521637Y-14473788D01*
X33349406Y-14417828D01*
X33170549Y-14389500D01*
X33170546Y-14389500D01*
X32989454Y-14389500D01*
X32989451Y-14389500D01*
X32810593Y-14417828D01*
X32638362Y-14473788D01*
X32477008Y-14556002D01*
X32416450Y-14600000D01*
X32330499Y-14662447D01*
X32202447Y-14790499D01*
X32174431Y-14829060D01*
X32096002Y-14937008D01*
X32013788Y-15098362D01*
X31957828Y-15270593D01*
X31929500Y-15449450D01*
X31690500Y-15449450D01*
X31662171Y-15270593D01*
X31662171Y-15270591D01*
X31606211Y-15098361D01*
X31523996Y-14937006D01*
X31417553Y-14790499D01*
X31289501Y-14662447D01*
X31142994Y-14556004D01*
X31142993Y-14556003D01*
X31142991Y-14556002D01*
X30981637Y-14473788D01*
X30809406Y-14417828D01*
X30630549Y-14389500D01*
X30630546Y-14389500D01*
X30449454Y-14389500D01*
X30449451Y-14389500D01*
X30270593Y-14417828D01*
X30098362Y-14473788D01*
X29937008Y-14556002D01*
X29876450Y-14600000D01*
X29790499Y-14662447D01*
X29662447Y-14790499D01*
X29634431Y-14829060D01*
X29556002Y-14937008D01*
X29473788Y-15098362D01*
X29417828Y-15270593D01*
X29389500Y-15449450D01*
X29150500Y-15449450D01*
X29122171Y-15270593D01*
X29122171Y-15270591D01*
X29066211Y-15098361D01*
X28983996Y-14937006D01*
X28877553Y-14790499D01*
X28749501Y-14662447D01*
X28602994Y-14556004D01*
X28602993Y-14556003D01*
X28602991Y-14556002D01*
X28441637Y-14473788D01*
X28269406Y-14417828D01*
X28090549Y-14389500D01*
X28090546Y-14389500D01*
X27909454Y-14389500D01*
X27909451Y-14389500D01*
X27730593Y-14417828D01*
X27558362Y-14473788D01*
X27397008Y-14556002D01*
X27336450Y-14600000D01*
X27250499Y-14662447D01*
X27122447Y-14790499D01*
X27094431Y-14829060D01*
X27016002Y-14937008D01*
X26933788Y-15098362D01*
X26877828Y-15270593D01*
X26849500Y-15449450D01*
X18000000Y-15449450D01*
X18000000Y-15052175D01*
X17993598Y-14992629D01*
X17993596Y-14992618D01*
X17943353Y-14857911D01*
X17943352Y-14857909D01*
X17857192Y-14742815D01*
X17857184Y-14742807D01*
X17742090Y-14656647D01*
X17742088Y-14656646D01*
X17607381Y-14606403D01*
X17607370Y-14606401D01*
X17547824Y-14600000D01*
X16850001Y-14600000D01*
X16850000Y-14600001D01*
X16850000Y-15624722D01*
X16773694Y-15580667D01*
X16659244Y-15550000D01*
X16540756Y-15550000D01*
X16426306Y-15580667D01*
X16350000Y-15624722D01*
X16350000Y-14600001D01*
X16349999Y-14600000D01*
X15652176Y-14600000D01*
X15592629Y-14606401D01*
X15592618Y-14606403D01*
X15457911Y-14656646D01*
X15457909Y-14656647D01*
X15342815Y-14742807D01*
X15342807Y-14742815D01*
X15256647Y-14857909D01*
X15256646Y-14857911D01*
X15206403Y-14992618D01*
X15206401Y-14992629D01*
X15200000Y-15052175D01*
X15200000Y-15221972D01*
X15181093Y-15280163D01*
X15131593Y-15316127D01*
X15070407Y-15316127D01*
X15020908Y-15280163D01*
X14975694Y-15217932D01*
X14975692Y-15217930D01*
X14975690Y-15217927D01*
X14842073Y-15084310D01*
X14689199Y-14973240D01*
X14689198Y-14973239D01*
X14689196Y-14973238D01*
X14520832Y-14887453D01*
X14341113Y-14829058D01*
X14154484Y-14799500D01*
X14154481Y-14799500D01*
X13965519Y-14799500D01*
X13965516Y-14799500D01*
X13778886Y-14829058D01*
X13599167Y-14887453D01*
X13430803Y-14973238D01*
X13277928Y-15084309D01*
X13144309Y-15217928D01*
X13033238Y-15370803D01*
X12947453Y-15539167D01*
X12889058Y-15718886D01*
X12859500Y-15905515D01*
X11719254Y-15905515D01*
X11693402Y-15742297D01*
X11693401Y-15742293D01*
X11639876Y-15577561D01*
X11639874Y-15577558D01*
X11639873Y-15577557D01*
X11639873Y-15577555D01*
X11561232Y-15423212D01*
X11459414Y-15283072D01*
X11336928Y-15160586D01*
X11196788Y-15058768D01*
X11196787Y-15058767D01*
X11196785Y-15058766D01*
X11042441Y-14980125D01*
X11042438Y-14980123D01*
X10877706Y-14926598D01*
X10877702Y-14926597D01*
X10706614Y-14899500D01*
X10706611Y-14899500D01*
X10533389Y-14899500D01*
X10533386Y-14899500D01*
X10362297Y-14926597D01*
X10362293Y-14926598D01*
X10197561Y-14980123D01*
X10197558Y-14980125D01*
X10043214Y-15058766D01*
X9903073Y-15160585D01*
X9780585Y-15283073D01*
X9678766Y-15423214D01*
X9600125Y-15577558D01*
X9600123Y-15577561D01*
X9546598Y-15742293D01*
X9546597Y-15742297D01*
X9519500Y-15913385D01*
X4100500Y-15913385D01*
X4073402Y-15742297D01*
X4073401Y-15742293D01*
X4019876Y-15577561D01*
X4019874Y-15577558D01*
X4019873Y-15577557D01*
X4019873Y-15577555D01*
X3941232Y-15423212D01*
X3839414Y-15283072D01*
X3716928Y-15160586D01*
X3576788Y-15058768D01*
X3576787Y-15058767D01*
X3576785Y-15058766D01*
X3422441Y-14980125D01*
X3422438Y-14980123D01*
X3257706Y-14926598D01*
X3257702Y-14926597D01*
X3086614Y-14899500D01*
X3086611Y-14899500D01*
X2913389Y-14899500D01*
X2913386Y-14899500D01*
X2742297Y-14926597D01*
X2742293Y-14926598D01*
X2577561Y-14980123D01*
X2577558Y-14980125D01*
X2423214Y-15058766D01*
X2283073Y-15160585D01*
X2160585Y-15283073D01*
X2058766Y-15423214D01*
X1980125Y-15577558D01*
X1980123Y-15577561D01*
X1926598Y-15742293D01*
X1926597Y-15742297D01*
X1899500Y-15913385D01*
X600000Y-15913385D01*
X600000Y-12381943D01*
X1500000Y-12381943D01*
X1500000Y-12618056D01*
X1536934Y-12851252D01*
X1536935Y-12851256D01*
X1609892Y-13075793D01*
X1609894Y-13075796D01*
X1717084Y-13286169D01*
X1777339Y-13369105D01*
X2476211Y-12670232D01*
X2487482Y-12712292D01*
X2559890Y-12837708D01*
X2662292Y-12940110D01*
X2787708Y-13012518D01*
X2829765Y-13023787D01*
X2130893Y-13722659D01*
X2213825Y-13782913D01*
X2213829Y-13782915D01*
X2424203Y-13890105D01*
X2424206Y-13890107D01*
X2648743Y-13963064D01*
X2648747Y-13963065D01*
X2881944Y-14000000D01*
X3118056Y-14000000D01*
X3351252Y-13963065D01*
X3351256Y-13963064D01*
X3575793Y-13890107D01*
X3575796Y-13890105D01*
X3786170Y-13782915D01*
X3786176Y-13782911D01*
X3869105Y-13722659D01*
X3869105Y-13722658D01*
X3170234Y-13023787D01*
X3212292Y-13012518D01*
X3337708Y-12940110D01*
X3440110Y-12837708D01*
X3512518Y-12712292D01*
X3523787Y-12670234D01*
X4222658Y-13369105D01*
X4222659Y-13369105D01*
X4282911Y-13286176D01*
X4282915Y-13286170D01*
X4390105Y-13075796D01*
X4390107Y-13075793D01*
X4463064Y-12851256D01*
X4463065Y-12851252D01*
X4500000Y-12618056D01*
X4500000Y-12381943D01*
X8000000Y-12381943D01*
X8000000Y-12618056D01*
X8036934Y-12851252D01*
X8036935Y-12851256D01*
X8109892Y-13075793D01*
X8109894Y-13075796D01*
X8217084Y-13286169D01*
X8277339Y-13369105D01*
X8976211Y-12670232D01*
X8987482Y-12712292D01*
X9059890Y-12837708D01*
X9162292Y-12940110D01*
X9287708Y-13012518D01*
X9329765Y-13023787D01*
X8630893Y-13722659D01*
X8713825Y-13782913D01*
X8713829Y-13782915D01*
X8924203Y-13890105D01*
X8924206Y-13890107D01*
X9148743Y-13963064D01*
X9148747Y-13963065D01*
X9381944Y-14000000D01*
X9618056Y-14000000D01*
X9851252Y-13963065D01*
X9851256Y-13963064D01*
X10075793Y-13890107D01*
X10075796Y-13890105D01*
X10286170Y-13782915D01*
X10286176Y-13782911D01*
X10369105Y-13722659D01*
X10369105Y-13722658D01*
X9670234Y-13023787D01*
X9712292Y-13012518D01*
X9837708Y-12940110D01*
X9940110Y-12837708D01*
X10012518Y-12712292D01*
X10023787Y-12670234D01*
X10722658Y-13369105D01*
X10722659Y-13369105D01*
X10782911Y-13286176D01*
X10782915Y-13286170D01*
X10890105Y-13075796D01*
X10890107Y-13075793D01*
X10963064Y-12851256D01*
X10963065Y-12851252D01*
X11000000Y-12618056D01*
X11000000Y-12381943D01*
X10963065Y-12148747D01*
X10957906Y-12132870D01*
X10957905Y-12132869D01*
X10948892Y-12105130D01*
X26849500Y-12105130D01*
X26849500Y-13894860D01*
X26849501Y-13894863D01*
X26852414Y-13919990D01*
X26871434Y-13963065D01*
X26897794Y-14022765D01*
X26977235Y-14102206D01*
X27080009Y-14147585D01*
X27105135Y-14150500D01*
X28894864Y-14150499D01*
X28919991Y-14147585D01*
X29022765Y-14102206D01*
X29102206Y-14022765D01*
X29147585Y-13919991D01*
X29150500Y-13894865D01*
X29150499Y-12105136D01*
X29150498Y-12105130D01*
X29389500Y-12105130D01*
X29389500Y-13894860D01*
X29389501Y-13894863D01*
X29392414Y-13919990D01*
X29411434Y-13963065D01*
X29437794Y-14022765D01*
X29517235Y-14102206D01*
X29620009Y-14147585D01*
X29645135Y-14150500D01*
X31434864Y-14150499D01*
X31459991Y-14147585D01*
X31562765Y-14102206D01*
X31642206Y-14022765D01*
X31687585Y-13919991D01*
X31690500Y-13894865D01*
X31690499Y-12105136D01*
X31690498Y-12105130D01*
X31929500Y-12105130D01*
X31929500Y-13894860D01*
X31929501Y-13894863D01*
X31932414Y-13919990D01*
X31951434Y-13963065D01*
X31977794Y-14022765D01*
X32057235Y-14102206D01*
X32160009Y-14147585D01*
X32185135Y-14150500D01*
X33974864Y-14150499D01*
X33999991Y-14147585D01*
X34102765Y-14102206D01*
X34182206Y-14022765D01*
X34227585Y-13919991D01*
X34230500Y-13894865D01*
X34230499Y-12105136D01*
X34230498Y-12105130D01*
X34469500Y-12105130D01*
X34469500Y-13894860D01*
X34469501Y-13894863D01*
X34472414Y-13919990D01*
X34491434Y-13963065D01*
X34517794Y-14022765D01*
X34597235Y-14102206D01*
X34700009Y-14147585D01*
X34725135Y-14150500D01*
X36514864Y-14150499D01*
X36539991Y-14147585D01*
X36642765Y-14102206D01*
X36722206Y-14022765D01*
X36767585Y-13919991D01*
X36770500Y-13894865D01*
X36770499Y-12105136D01*
X36767585Y-12080009D01*
X36722206Y-11977235D01*
X36642765Y-11897794D01*
X36539991Y-11852415D01*
X36539990Y-11852414D01*
X36539988Y-11852414D01*
X36514868Y-11849500D01*
X34725139Y-11849500D01*
X34725136Y-11849501D01*
X34700009Y-11852414D01*
X34597235Y-11897794D01*
X34517794Y-11977235D01*
X34472414Y-12080011D01*
X34469500Y-12105130D01*
X34230498Y-12105130D01*
X34227585Y-12080009D01*
X34182206Y-11977235D01*
X34102765Y-11897794D01*
X33999991Y-11852415D01*
X33999990Y-11852414D01*
X33999988Y-11852414D01*
X33974868Y-11849500D01*
X32185139Y-11849500D01*
X32185136Y-11849501D01*
X32160009Y-11852414D01*
X32057235Y-11897794D01*
X31977794Y-11977235D01*
X31932414Y-12080011D01*
X31929500Y-12105130D01*
X31690498Y-12105130D01*
X31687585Y-12080009D01*
X31642206Y-11977235D01*
X31562765Y-11897794D01*
X31459991Y-11852415D01*
X31459990Y-11852414D01*
X31459988Y-11852414D01*
X31434868Y-11849500D01*
X29645139Y-11849500D01*
X29645136Y-11849501D01*
X29620009Y-11852414D01*
X29517235Y-11897794D01*
X29437794Y-11977235D01*
X29392414Y-12080011D01*
X29389500Y-12105130D01*
X29150498Y-12105130D01*
X29147585Y-12080009D01*
X29102206Y-11977235D01*
X29022765Y-11897794D01*
X28919991Y-11852415D01*
X28919990Y-11852414D01*
X28919988Y-11852414D01*
X28894868Y-11849500D01*
X27105139Y-11849500D01*
X27105136Y-11849501D01*
X27080009Y-11852414D01*
X26977235Y-11897794D01*
X26897794Y-11977235D01*
X26852414Y-12080011D01*
X26849500Y-12105130D01*
X10948892Y-12105130D01*
X10890103Y-11924199D01*
X10782915Y-11713829D01*
X10782913Y-11713825D01*
X10722659Y-11630893D01*
X10023787Y-12329765D01*
X10012518Y-12287708D01*
X9940110Y-12162292D01*
X9837708Y-12059890D01*
X9712292Y-11987482D01*
X9670232Y-11976211D01*
X10369105Y-11277339D01*
X10286169Y-11217084D01*
X10075796Y-11109894D01*
X10075793Y-11109892D01*
X9880483Y-11046431D01*
X9880477Y-11046431D01*
X9851248Y-11036934D01*
X9618056Y-11000000D01*
X9381944Y-11000000D01*
X9148747Y-11036934D01*
X9148743Y-11036935D01*
X8924206Y-11109892D01*
X8924203Y-11109894D01*
X8713823Y-11217088D01*
X8630893Y-11277339D01*
X9329766Y-11976212D01*
X9287708Y-11987482D01*
X9162292Y-12059890D01*
X9059890Y-12162292D01*
X8987482Y-12287708D01*
X8976212Y-12329766D01*
X8277339Y-11630893D01*
X8217088Y-11713823D01*
X8109894Y-11924203D01*
X8109892Y-11924206D01*
X8036935Y-12148743D01*
X8036934Y-12148747D01*
X8000000Y-12381943D01*
X4500000Y-12381943D01*
X4463065Y-12148747D01*
X4463064Y-12148743D01*
X4390107Y-11924206D01*
X4390105Y-11924203D01*
X4282915Y-11713829D01*
X4282913Y-11713825D01*
X4222659Y-11630893D01*
X3523787Y-12329765D01*
X3512518Y-12287708D01*
X3440110Y-12162292D01*
X3337708Y-12059890D01*
X3212292Y-11987482D01*
X3170232Y-11976211D01*
X3869105Y-11277339D01*
X3786169Y-11217084D01*
X3575796Y-11109894D01*
X3575793Y-11109892D01*
X3351256Y-11036935D01*
X3351252Y-11036934D01*
X3118056Y-11000000D01*
X2881944Y-11000000D01*
X2648747Y-11036934D01*
X2648743Y-11036935D01*
X2424206Y-11109892D01*
X2424203Y-11109894D01*
X2213823Y-11217088D01*
X2130893Y-11277339D01*
X2829766Y-11976212D01*
X2787708Y-11987482D01*
X2662292Y-12059890D01*
X2559890Y-12162292D01*
X2487482Y-12287708D01*
X2476212Y-12329766D01*
X1777339Y-11630893D01*
X1717088Y-11713823D01*
X1609894Y-11924203D01*
X1609892Y-11924206D01*
X1536935Y-12148743D01*
X1536934Y-12148747D01*
X1500000Y-12381943D01*
X600000Y-12381943D01*
X600000Y-10955130D01*
X44699500Y-10955130D01*
X44699500Y-13044860D01*
X44699501Y-13044863D01*
X44702414Y-13069990D01*
X44704978Y-13075796D01*
X44747794Y-13172765D01*
X44827235Y-13252206D01*
X44930009Y-13297585D01*
X44955135Y-13300500D01*
X47044864Y-13300499D01*
X47069991Y-13297585D01*
X47172765Y-13252206D01*
X47252206Y-13172765D01*
X47297585Y-13069991D01*
X47300500Y-13044865D01*
X47300499Y-11881943D01*
X52100000Y-11881943D01*
X52100000Y-12118056D01*
X52136934Y-12351252D01*
X52136935Y-12351256D01*
X52209892Y-12575793D01*
X52209894Y-12575796D01*
X52317084Y-12786169D01*
X52377339Y-12869105D01*
X53117036Y-12129407D01*
X53134075Y-12192993D01*
X53199901Y-12307007D01*
X53292993Y-12400099D01*
X53407007Y-12465925D01*
X53470590Y-12482962D01*
X52730893Y-13222659D01*
X52813825Y-13282913D01*
X52813829Y-13282915D01*
X53024203Y-13390105D01*
X53024206Y-13390107D01*
X53248743Y-13463064D01*
X53248747Y-13463065D01*
X53481944Y-13500000D01*
X53718056Y-13500000D01*
X53951252Y-13463065D01*
X53951256Y-13463064D01*
X54175793Y-13390107D01*
X54175796Y-13390105D01*
X54386170Y-13282915D01*
X54386176Y-13282911D01*
X54469105Y-13222659D01*
X54469105Y-13222658D01*
X53729409Y-12482962D01*
X53792993Y-12465925D01*
X53907007Y-12400099D01*
X54000099Y-12307007D01*
X54065925Y-12192993D01*
X54082962Y-12129409D01*
X54822658Y-12869105D01*
X54822659Y-12869105D01*
X54882911Y-12786176D01*
X54882915Y-12786170D01*
X54990105Y-12575796D01*
X54990107Y-12575793D01*
X55063064Y-12351256D01*
X55063065Y-12351252D01*
X55100000Y-12118056D01*
X55100000Y-11881943D01*
X55063065Y-11648747D01*
X55063064Y-11648743D01*
X54990107Y-11424206D01*
X54990105Y-11424203D01*
X54882915Y-11213829D01*
X54882913Y-11213825D01*
X54822659Y-11130893D01*
X54082962Y-11870590D01*
X54065925Y-11807007D01*
X54000099Y-11692993D01*
X53907007Y-11599901D01*
X53792993Y-11534075D01*
X53729407Y-11517036D01*
X54469105Y-10777339D01*
X54386169Y-10717084D01*
X54175796Y-10609894D01*
X54175793Y-10609892D01*
X53951256Y-10536935D01*
X53951252Y-10536934D01*
X53718056Y-10500000D01*
X53481944Y-10500000D01*
X53248747Y-10536934D01*
X53248743Y-10536935D01*
X53024206Y-10609892D01*
X53024203Y-10609894D01*
X52813823Y-10717088D01*
X52730893Y-10777339D01*
X53470591Y-11517037D01*
X53407007Y-11534075D01*
X53292993Y-11599901D01*
X53199901Y-11692993D01*
X53134075Y-11807007D01*
X53117037Y-11870591D01*
X52377339Y-11130893D01*
X52317088Y-11213823D01*
X52209894Y-11424203D01*
X52209892Y-11424206D01*
X52136935Y-11648743D01*
X52136934Y-11648747D01*
X52100000Y-11881943D01*
X47300499Y-11881943D01*
X47300499Y-10955136D01*
X47297585Y-10930009D01*
X47252206Y-10827235D01*
X47172765Y-10747794D01*
X47069991Y-10702415D01*
X47069990Y-10702414D01*
X47069988Y-10702414D01*
X47044868Y-10699500D01*
X44955139Y-10699500D01*
X44955136Y-10699501D01*
X44930009Y-10702414D01*
X44827235Y-10747794D01*
X44747794Y-10827235D01*
X44702414Y-10930011D01*
X44699500Y-10955130D01*
X600000Y-10955130D01*
X600000Y-7897644D01*
X1699500Y-7897644D01*
X1699500Y-8102355D01*
X1731521Y-8304529D01*
X1794780Y-8499219D01*
X1887712Y-8681609D01*
X1887714Y-8681613D01*
X2008029Y-8847213D01*
X2008031Y-8847215D01*
X2008034Y-8847219D01*
X2152781Y-8991966D01*
X2152784Y-8991968D01*
X2152786Y-8991970D01*
X2318386Y-9112285D01*
X2318390Y-9112287D01*
X2500781Y-9205220D01*
X2695466Y-9268477D01*
X2695467Y-9268477D01*
X2695470Y-9268478D01*
X2897645Y-9300500D01*
X2897648Y-9300500D01*
X3102355Y-9300500D01*
X3304529Y-9268478D01*
X3304530Y-9268477D01*
X3304534Y-9268477D01*
X3499219Y-9205220D01*
X3681610Y-9112287D01*
X3847219Y-8991966D01*
X3991966Y-8847219D01*
X4112287Y-8681610D01*
X4205220Y-8499219D01*
X4268477Y-8304534D01*
X4283934Y-8206943D01*
X4300500Y-8102355D01*
X4300500Y-7897644D01*
X8199500Y-7897644D01*
X8199500Y-8102355D01*
X8231521Y-8304529D01*
X8294780Y-8499219D01*
X8387712Y-8681609D01*
X8387714Y-8681613D01*
X8508029Y-8847213D01*
X8508031Y-8847215D01*
X8508034Y-8847219D01*
X8652781Y-8991966D01*
X8652784Y-8991968D01*
X8652786Y-8991970D01*
X8818386Y-9112285D01*
X8818390Y-9112287D01*
X9000781Y-9205220D01*
X9195466Y-9268477D01*
X9195467Y-9268477D01*
X9195470Y-9268478D01*
X9397645Y-9300500D01*
X9397648Y-9300500D01*
X9602355Y-9300500D01*
X9804529Y-9268478D01*
X9804530Y-9268477D01*
X9804534Y-9268477D01*
X9999219Y-9205220D01*
X10181610Y-9112287D01*
X10347219Y-8991966D01*
X10491966Y-8847219D01*
X10612287Y-8681610D01*
X10705220Y-8499219D01*
X10768477Y-8304534D01*
X10783934Y-8206943D01*
X10800500Y-8102355D01*
X10800500Y-7897644D01*
X10768478Y-7695470D01*
X10768477Y-7695466D01*
X10705220Y-7500781D01*
X10612287Y-7318390D01*
X10612285Y-7318386D01*
X10491970Y-7152786D01*
X10491968Y-7152784D01*
X10491966Y-7152781D01*
X10347219Y-7008034D01*
X10347215Y-7008031D01*
X10347213Y-7008029D01*
X10181613Y-6887714D01*
X10181609Y-6887712D01*
X9999219Y-6794780D01*
X9804529Y-6731521D01*
X9602355Y-6699500D01*
X9602352Y-6699500D01*
X9397648Y-6699500D01*
X9397645Y-6699500D01*
X9195470Y-6731521D01*
X9000780Y-6794780D01*
X8818390Y-6887712D01*
X8818386Y-6887714D01*
X8652786Y-7008029D01*
X8508029Y-7152786D01*
X8387714Y-7318386D01*
X8387712Y-7318390D01*
X8294780Y-7500780D01*
X8231521Y-7695470D01*
X8199500Y-7897644D01*
X4300500Y-7897644D01*
X4268478Y-7695470D01*
X4268477Y-7695466D01*
X4205220Y-7500781D01*
X4112287Y-7318390D01*
X4112285Y-7318386D01*
X3991970Y-7152786D01*
X3991968Y-7152784D01*
X3991966Y-7152781D01*
X3847219Y-7008034D01*
X3847215Y-7008031D01*
X3847213Y-7008029D01*
X3681613Y-6887714D01*
X3681609Y-6887712D01*
X3499219Y-6794780D01*
X3304529Y-6731521D01*
X3102355Y-6699500D01*
X3102352Y-6699500D01*
X2897648Y-6699500D01*
X2897645Y-6699500D01*
X2695470Y-6731521D01*
X2500780Y-6794780D01*
X2318390Y-6887712D01*
X2318386Y-6887714D01*
X2152786Y-7008029D01*
X2008029Y-7152786D01*
X1887714Y-7318386D01*
X1887712Y-7318390D01*
X1794780Y-7500780D01*
X1731521Y-7695470D01*
X1699500Y-7897644D01*
X600000Y-7897644D01*
X600000Y-699000D01*
X618907Y-640809D01*
X668407Y-604845D01*
X699000Y-600000D01*
X13320279Y-600000D01*
X13378470Y-618907D01*
G37*
%TD.AperFunction*%
%TD*%
M02*
