%TF.GenerationSoftware,KiCad,Pcbnew,10.0.4*%
%TF.CreationDate,2026-07-28T02:35:38+02:00*%
%TF.ProjectId,ArduinoUnoProtoShield,41726475-696e-46f5-956e-6f50726f746f,rev?*%
%TF.SameCoordinates,Original*%
%TF.FileFunction,Other,User*%
%FSLAX46Y46*%
G04 Gerber Fmt 4.6, Leading zero omitted, Abs format (unit mm)*
G04 Created by KiCad (PCBNEW 10.0.4) date 2026-07-28 02:35:38*
%MOMM*%
%LPD*%
G01*
G04 APERTURE LIST*
%ADD10C,0.050000*%
G04 APERTURE END LIST*
%TO.C,CN_AD*%
D10*
X40230000Y-48030000D02*
X56470000Y-48030000D01*
X40230000Y-51570000D02*
X40230000Y-48030000D01*
X56470000Y-48030000D02*
X56470000Y-51570000D01*
X56470000Y-51570000D02*
X40230000Y-51570000D01*
%TO.C,J_PROTO4*%
X34380000Y-11230000D02*
X36860000Y-11230000D01*
X36860000Y-42710000D01*
X34380000Y-42710000D01*
X34380000Y-11230000D01*
%TO.C,BZ1*%
X56050000Y-12000000D02*
G75*
G02*
X43550000Y-12000000I-6250000J0D01*
G01*
X43550000Y-12000000D02*
G75*
G02*
X56050000Y-12000000I6250000J0D01*
G01*
%TO.C,CN_DIG_L*%
X17230000Y-1730000D02*
X38550000Y-1730000D01*
X17230000Y-5270000D02*
X17230000Y-1730000D01*
X38550000Y-1730000D02*
X38550000Y-5270000D01*
X38550000Y-5270000D02*
X17230000Y-5270000D01*
%TO.C,R1*%
X1950000Y-14500000D02*
X11670000Y-14500000D01*
X11670000Y-17500000D01*
X1950000Y-17500000D01*
X1950000Y-14500000D01*
%TO.C,D2*%
X12110000Y-21790000D02*
X18540000Y-21790000D01*
X18540000Y-28210000D01*
X12110000Y-28210000D01*
X12110000Y-21790000D01*
%TO.C,D1*%
X12110000Y-12790000D02*
X18540000Y-12790000D01*
X18540000Y-19210000D01*
X12110000Y-19210000D01*
X12110000Y-12790000D01*
%TO.C,C1*%
X1950000Y-29500000D02*
X9050000Y-29500000D01*
X9050000Y-32500000D01*
X1950000Y-32500000D01*
X1950000Y-29500000D01*
%TO.C,C2*%
X1950000Y-35500000D02*
X9050000Y-35500000D01*
X9050000Y-38500000D01*
X1950000Y-38500000D01*
X1950000Y-35500000D01*
%TO.C,J_I2C*%
X1230000Y-42230000D02*
X12390000Y-42230000D01*
X12390000Y-45770000D01*
X1230000Y-45770000D01*
X1230000Y-42230000D01*
%TO.C,R2*%
X1950000Y-23500000D02*
X11670000Y-23500000D01*
X11670000Y-26500000D01*
X1950000Y-26500000D01*
X1950000Y-23500000D01*
%TO.C,C3*%
X17750000Y-33000000D02*
G75*
G02*
X12250000Y-33000000I-2750000J0D01*
G01*
X12250000Y-33000000D02*
G75*
G02*
X17750000Y-33000000I2750000J0D01*
G01*
%TO.C,J_PROTO2*%
X29300000Y-11230000D02*
X31780000Y-11230000D01*
X31780000Y-42710000D01*
X29300000Y-42710000D01*
X29300000Y-11230000D01*
%TO.C,J_PROTO3*%
X31840000Y-11230000D02*
X34320000Y-11230000D01*
X34320000Y-42710000D01*
X31840000Y-42710000D01*
X31840000Y-11230000D01*
%TO.C,S1*%
X1500000Y-6500000D02*
X1750000Y-6500000D01*
X1500000Y-6750000D02*
X1500000Y-6500000D01*
X1500000Y-13750000D02*
X1500000Y-6750000D01*
X1500000Y-13750000D02*
X1500000Y-14000000D01*
X1500000Y-14000000D02*
X1750000Y-14000000D01*
X1750000Y-6500000D02*
X10750000Y-6500000D01*
X10750000Y-6500000D02*
X11000000Y-6500000D01*
X10750000Y-14000000D02*
X1750000Y-14000000D01*
X10750000Y-14000000D02*
X11000000Y-14000000D01*
X11000000Y-6500000D02*
X11000000Y-6750000D01*
X11000000Y-6750000D02*
X11000000Y-13750000D01*
X11000000Y-14000000D02*
X11000000Y-13750000D01*
%TO.C,CN_DIG_H*%
X39070000Y-1730000D02*
X65470000Y-1730000D01*
X39070000Y-5270000D02*
X39070000Y-1730000D01*
X65470000Y-1730000D02*
X65470000Y-5270000D01*
X65470000Y-5270000D02*
X39070000Y-5270000D01*
%TO.C,J_PROTO1*%
X26760000Y-11230000D02*
X29240000Y-11230000D01*
X29240000Y-42710000D01*
X26760000Y-42710000D01*
X26760000Y-11230000D01*
%TO.C,CN_PWR*%
X17230000Y-48030000D02*
X38550000Y-48030000D01*
X17230000Y-51570000D02*
X17230000Y-48030000D01*
X38550000Y-48030000D02*
X38550000Y-51570000D01*
X38550000Y-51570000D02*
X17230000Y-51570000D01*
%TO.C,J_SPI*%
X44230000Y-28230000D02*
X60470000Y-28230000D01*
X60470000Y-31770000D01*
X44230000Y-31770000D01*
X44230000Y-28230000D01*
%TO.C,JP1*%
X42230000Y-20230000D02*
X48320000Y-20230000D01*
X48320000Y-23770000D01*
X42230000Y-23770000D01*
X42230000Y-20230000D01*
%TD*%
M02*
