%TF.GenerationSoftware,KiCad,Pcbnew,10.0.4*%
%TF.CreationDate,2026-07-28T02:35:38+02:00*%
%TF.ProjectId,ArduinoUnoProtoShield,41726475-696e-46f5-956e-6f50726f746f,rev?*%
%TF.SameCoordinates,Original*%
%TF.FileFunction,Legend,Top*%
%TF.FilePolarity,Positive*%
%FSLAX46Y46*%
G04 Gerber Fmt 4.6, Leading zero omitted, Abs format (unit mm)*
G04 Created by KiCad (PCBNEW 10.0.4) date 2026-07-28 02:35:38*
%MOMM*%
%LPD*%
G01*
G04 APERTURE LIST*
%ADD10C,0.150000*%
%ADD11C,0.158750*%
%ADD12C,0.120000*%
G04 APERTURE END LIST*
D10*
X257143Y-6747342D02*
X-142856Y-6175914D01*
X-428570Y-6747342D02*
X-428570Y-5547342D01*
X-428570Y-5547342D02*
X28572Y-5547342D01*
X28572Y-5547342D02*
X142857Y-5604485D01*
X142857Y-5604485D02*
X200000Y-5661628D01*
X200000Y-5661628D02*
X257143Y-5775914D01*
X257143Y-5775914D02*
X257143Y-5947342D01*
X257143Y-5947342D02*
X200000Y-6061628D01*
X200000Y-6061628D02*
X142857Y-6118771D01*
X142857Y-6118771D02*
X28572Y-6175914D01*
X28572Y-6175914D02*
X-428570Y-6175914D01*
X771429Y-6118771D02*
X1171429Y-6118771D01*
X1342857Y-6747342D02*
X771429Y-6747342D01*
X771429Y-6747342D02*
X771429Y-5547342D01*
X771429Y-5547342D02*
X1342857Y-5547342D01*
X1800000Y-6690200D02*
X1971429Y-6747342D01*
X1971429Y-6747342D02*
X2257143Y-6747342D01*
X2257143Y-6747342D02*
X2371429Y-6690200D01*
X2371429Y-6690200D02*
X2428571Y-6633057D01*
X2428571Y-6633057D02*
X2485714Y-6518771D01*
X2485714Y-6518771D02*
X2485714Y-6404485D01*
X2485714Y-6404485D02*
X2428571Y-6290200D01*
X2428571Y-6290200D02*
X2371429Y-6233057D01*
X2371429Y-6233057D02*
X2257143Y-6175914D01*
X2257143Y-6175914D02*
X2028571Y-6118771D01*
X2028571Y-6118771D02*
X1914286Y-6061628D01*
X1914286Y-6061628D02*
X1857143Y-6004485D01*
X1857143Y-6004485D02*
X1800000Y-5890200D01*
X1800000Y-5890200D02*
X1800000Y-5775914D01*
X1800000Y-5775914D02*
X1857143Y-5661628D01*
X1857143Y-5661628D02*
X1914286Y-5604485D01*
X1914286Y-5604485D02*
X2028571Y-5547342D01*
X2028571Y-5547342D02*
X2314286Y-5547342D01*
X2314286Y-5547342D02*
X2485714Y-5604485D01*
X3000000Y-6118771D02*
X3400000Y-6118771D01*
X3571428Y-6747342D02*
X3000000Y-6747342D01*
X3000000Y-6747342D02*
X3000000Y-5547342D01*
X3000000Y-5547342D02*
X3571428Y-5547342D01*
X3914285Y-5547342D02*
X4600000Y-5547342D01*
X4257142Y-6747342D02*
X4257142Y-5547342D01*
X10828571Y-44547342D02*
X10828571Y-43347342D01*
X11342857Y-43461628D02*
X11400000Y-43404485D01*
X11400000Y-43404485D02*
X11514286Y-43347342D01*
X11514286Y-43347342D02*
X11800000Y-43347342D01*
X11800000Y-43347342D02*
X11914286Y-43404485D01*
X11914286Y-43404485D02*
X11971428Y-43461628D01*
X11971428Y-43461628D02*
X12028571Y-43575914D01*
X12028571Y-43575914D02*
X12028571Y-43690200D01*
X12028571Y-43690200D02*
X11971428Y-43861628D01*
X11971428Y-43861628D02*
X11285714Y-44547342D01*
X11285714Y-44547342D02*
X12028571Y-44547342D01*
X13228571Y-44433057D02*
X13171428Y-44490200D01*
X13171428Y-44490200D02*
X13000000Y-44547342D01*
X13000000Y-44547342D02*
X12885714Y-44547342D01*
X12885714Y-44547342D02*
X12714285Y-44490200D01*
X12714285Y-44490200D02*
X12600000Y-44375914D01*
X12600000Y-44375914D02*
X12542857Y-44261628D01*
X12542857Y-44261628D02*
X12485714Y-44033057D01*
X12485714Y-44033057D02*
X12485714Y-43861628D01*
X12485714Y-43861628D02*
X12542857Y-43633057D01*
X12542857Y-43633057D02*
X12600000Y-43518771D01*
X12600000Y-43518771D02*
X12714285Y-43404485D01*
X12714285Y-43404485D02*
X12885714Y-43347342D01*
X12885714Y-43347342D02*
X13000000Y-43347342D01*
X13000000Y-43347342D02*
X13171428Y-43404485D01*
X13171428Y-43404485D02*
X13228571Y-43461628D01*
X16028571Y-22490200D02*
X16200000Y-22547342D01*
X16200000Y-22547342D02*
X16485714Y-22547342D01*
X16485714Y-22547342D02*
X16600000Y-22490200D01*
X16600000Y-22490200D02*
X16657142Y-22433057D01*
X16657142Y-22433057D02*
X16714285Y-22318771D01*
X16714285Y-22318771D02*
X16714285Y-22204485D01*
X16714285Y-22204485D02*
X16657142Y-22090200D01*
X16657142Y-22090200D02*
X16600000Y-22033057D01*
X16600000Y-22033057D02*
X16485714Y-21975914D01*
X16485714Y-21975914D02*
X16257142Y-21918771D01*
X16257142Y-21918771D02*
X16142857Y-21861628D01*
X16142857Y-21861628D02*
X16085714Y-21804485D01*
X16085714Y-21804485D02*
X16028571Y-21690200D01*
X16028571Y-21690200D02*
X16028571Y-21575914D01*
X16028571Y-21575914D02*
X16085714Y-21461628D01*
X16085714Y-21461628D02*
X16142857Y-21404485D01*
X16142857Y-21404485D02*
X16257142Y-21347342D01*
X16257142Y-21347342D02*
X16542857Y-21347342D01*
X16542857Y-21347342D02*
X16714285Y-21404485D01*
X17057142Y-21347342D02*
X17742857Y-21347342D01*
X17399999Y-22547342D02*
X17399999Y-21347342D01*
X18085714Y-22204485D02*
X18657143Y-22204485D01*
X17971428Y-22547342D02*
X18371428Y-21347342D01*
X18371428Y-21347342D02*
X18771428Y-22547342D01*
X18999999Y-21347342D02*
X19685714Y-21347342D01*
X19342856Y-22547342D02*
X19342856Y-21347342D01*
X20085714Y-21347342D02*
X20085714Y-22318771D01*
X20085714Y-22318771D02*
X20142857Y-22433057D01*
X20142857Y-22433057D02*
X20200000Y-22490200D01*
X20200000Y-22490200D02*
X20314285Y-22547342D01*
X20314285Y-22547342D02*
X20542857Y-22547342D01*
X20542857Y-22547342D02*
X20657142Y-22490200D01*
X20657142Y-22490200D02*
X20714285Y-22433057D01*
X20714285Y-22433057D02*
X20771428Y-22318771D01*
X20771428Y-22318771D02*
X20771428Y-21347342D01*
X21285714Y-22490200D02*
X21457143Y-22547342D01*
X21457143Y-22547342D02*
X21742857Y-22547342D01*
X21742857Y-22547342D02*
X21857143Y-22490200D01*
X21857143Y-22490200D02*
X21914285Y-22433057D01*
X21914285Y-22433057D02*
X21971428Y-22318771D01*
X21971428Y-22318771D02*
X21971428Y-22204485D01*
X21971428Y-22204485D02*
X21914285Y-22090200D01*
X21914285Y-22090200D02*
X21857143Y-22033057D01*
X21857143Y-22033057D02*
X21742857Y-21975914D01*
X21742857Y-21975914D02*
X21514285Y-21918771D01*
X21514285Y-21918771D02*
X21400000Y-21861628D01*
X21400000Y-21861628D02*
X21342857Y-21804485D01*
X21342857Y-21804485D02*
X21285714Y-21690200D01*
X21285714Y-21690200D02*
X21285714Y-21575914D01*
X21285714Y-21575914D02*
X21342857Y-21461628D01*
X21342857Y-21461628D02*
X21400000Y-21404485D01*
X21400000Y-21404485D02*
X21514285Y-21347342D01*
X21514285Y-21347342D02*
X21800000Y-21347342D01*
X21800000Y-21347342D02*
X21971428Y-21404485D01*
X17228571Y-47347342D02*
X17228571Y-46147342D01*
X17228571Y-46147342D02*
X17685714Y-46147342D01*
X17685714Y-46147342D02*
X17799999Y-46204485D01*
X17799999Y-46204485D02*
X17857142Y-46261628D01*
X17857142Y-46261628D02*
X17914285Y-46375914D01*
X17914285Y-46375914D02*
X17914285Y-46547342D01*
X17914285Y-46547342D02*
X17857142Y-46661628D01*
X17857142Y-46661628D02*
X17799999Y-46718771D01*
X17799999Y-46718771D02*
X17685714Y-46775914D01*
X17685714Y-46775914D02*
X17228571Y-46775914D01*
X18657142Y-46147342D02*
X18885714Y-46147342D01*
X18885714Y-46147342D02*
X18999999Y-46204485D01*
X18999999Y-46204485D02*
X19114285Y-46318771D01*
X19114285Y-46318771D02*
X19171428Y-46547342D01*
X19171428Y-46547342D02*
X19171428Y-46947342D01*
X19171428Y-46947342D02*
X19114285Y-47175914D01*
X19114285Y-47175914D02*
X18999999Y-47290200D01*
X18999999Y-47290200D02*
X18885714Y-47347342D01*
X18885714Y-47347342D02*
X18657142Y-47347342D01*
X18657142Y-47347342D02*
X18542857Y-47290200D01*
X18542857Y-47290200D02*
X18428571Y-47175914D01*
X18428571Y-47175914D02*
X18371428Y-46947342D01*
X18371428Y-46947342D02*
X18371428Y-46547342D01*
X18371428Y-46547342D02*
X18428571Y-46318771D01*
X18428571Y-46318771D02*
X18542857Y-46204485D01*
X18542857Y-46204485D02*
X18657142Y-46147342D01*
X19571428Y-46147342D02*
X19857142Y-47347342D01*
X19857142Y-47347342D02*
X20085714Y-46490200D01*
X20085714Y-46490200D02*
X20314285Y-47347342D01*
X20314285Y-47347342D02*
X20600000Y-46147342D01*
X21057143Y-46718771D02*
X21457143Y-46718771D01*
X21628571Y-47347342D02*
X21057143Y-47347342D01*
X21057143Y-47347342D02*
X21057143Y-46147342D01*
X21057143Y-46147342D02*
X21628571Y-46147342D01*
X22828571Y-47347342D02*
X22428571Y-46775914D01*
X22142857Y-47347342D02*
X22142857Y-46147342D01*
X22142857Y-46147342D02*
X22600000Y-46147342D01*
X22600000Y-46147342D02*
X22714285Y-46204485D01*
X22714285Y-46204485D02*
X22771428Y-46261628D01*
X22771428Y-46261628D02*
X22828571Y-46375914D01*
X22828571Y-46375914D02*
X22828571Y-46547342D01*
X22828571Y-46547342D02*
X22771428Y-46661628D01*
X22771428Y-46661628D02*
X22714285Y-46718771D01*
X22714285Y-46718771D02*
X22600000Y-46775914D01*
X22600000Y-46775914D02*
X22142857Y-46775914D01*
X16957143Y-43547342D02*
X16957143Y-42347342D01*
X16957143Y-42347342D02*
X17414286Y-42347342D01*
X17414286Y-42347342D02*
X17528571Y-42404485D01*
X17528571Y-42404485D02*
X17585714Y-42461628D01*
X17585714Y-42461628D02*
X17642857Y-42575914D01*
X17642857Y-42575914D02*
X17642857Y-42747342D01*
X17642857Y-42747342D02*
X17585714Y-42861628D01*
X17585714Y-42861628D02*
X17528571Y-42918771D01*
X17528571Y-42918771D02*
X17414286Y-42975914D01*
X17414286Y-42975914D02*
X16957143Y-42975914D01*
X18842857Y-43547342D02*
X18442857Y-42975914D01*
X18157143Y-43547342D02*
X18157143Y-42347342D01*
X18157143Y-42347342D02*
X18614286Y-42347342D01*
X18614286Y-42347342D02*
X18728571Y-42404485D01*
X18728571Y-42404485D02*
X18785714Y-42461628D01*
X18785714Y-42461628D02*
X18842857Y-42575914D01*
X18842857Y-42575914D02*
X18842857Y-42747342D01*
X18842857Y-42747342D02*
X18785714Y-42861628D01*
X18785714Y-42861628D02*
X18728571Y-42918771D01*
X18728571Y-42918771D02*
X18614286Y-42975914D01*
X18614286Y-42975914D02*
X18157143Y-42975914D01*
X19585714Y-42347342D02*
X19814286Y-42347342D01*
X19814286Y-42347342D02*
X19928571Y-42404485D01*
X19928571Y-42404485D02*
X20042857Y-42518771D01*
X20042857Y-42518771D02*
X20100000Y-42747342D01*
X20100000Y-42747342D02*
X20100000Y-43147342D01*
X20100000Y-43147342D02*
X20042857Y-43375914D01*
X20042857Y-43375914D02*
X19928571Y-43490200D01*
X19928571Y-43490200D02*
X19814286Y-43547342D01*
X19814286Y-43547342D02*
X19585714Y-43547342D01*
X19585714Y-43547342D02*
X19471429Y-43490200D01*
X19471429Y-43490200D02*
X19357143Y-43375914D01*
X19357143Y-43375914D02*
X19300000Y-43147342D01*
X19300000Y-43147342D02*
X19300000Y-42747342D01*
X19300000Y-42747342D02*
X19357143Y-42518771D01*
X19357143Y-42518771D02*
X19471429Y-42404485D01*
X19471429Y-42404485D02*
X19585714Y-42347342D01*
X20442857Y-42347342D02*
X21128572Y-42347342D01*
X20785714Y-43547342D02*
X20785714Y-42347342D01*
X21757143Y-42347342D02*
X21985715Y-42347342D01*
X21985715Y-42347342D02*
X22100000Y-42404485D01*
X22100000Y-42404485D02*
X22214286Y-42518771D01*
X22214286Y-42518771D02*
X22271429Y-42747342D01*
X22271429Y-42747342D02*
X22271429Y-43147342D01*
X22271429Y-43147342D02*
X22214286Y-43375914D01*
X22214286Y-43375914D02*
X22100000Y-43490200D01*
X22100000Y-43490200D02*
X21985715Y-43547342D01*
X21985715Y-43547342D02*
X21757143Y-43547342D01*
X21757143Y-43547342D02*
X21642858Y-43490200D01*
X21642858Y-43490200D02*
X21528572Y-43375914D01*
X21528572Y-43375914D02*
X21471429Y-43147342D01*
X21471429Y-43147342D02*
X21471429Y-42747342D01*
X21471429Y-42747342D02*
X21528572Y-42518771D01*
X21528572Y-42518771D02*
X21642858Y-42404485D01*
X21642858Y-42404485D02*
X21757143Y-42347342D01*
X22785715Y-43090200D02*
X23700001Y-43090200D01*
X24214286Y-43204485D02*
X24785715Y-43204485D01*
X24100000Y-43547342D02*
X24500000Y-42347342D01*
X24500000Y-42347342D02*
X24900000Y-43547342D01*
X25985714Y-43547342D02*
X25585714Y-42975914D01*
X25300000Y-43547342D02*
X25300000Y-42347342D01*
X25300000Y-42347342D02*
X25757143Y-42347342D01*
X25757143Y-42347342D02*
X25871428Y-42404485D01*
X25871428Y-42404485D02*
X25928571Y-42461628D01*
X25928571Y-42461628D02*
X25985714Y-42575914D01*
X25985714Y-42575914D02*
X25985714Y-42747342D01*
X25985714Y-42747342D02*
X25928571Y-42861628D01*
X25928571Y-42861628D02*
X25871428Y-42918771D01*
X25871428Y-42918771D02*
X25757143Y-42975914D01*
X25757143Y-42975914D02*
X25300000Y-42975914D01*
X26500000Y-42918771D02*
X26900000Y-42918771D01*
X27071428Y-43547342D02*
X26500000Y-43547342D01*
X26500000Y-43547342D02*
X26500000Y-42347342D01*
X26500000Y-42347342D02*
X27071428Y-42347342D01*
X27528571Y-43204485D02*
X28100000Y-43204485D01*
X27414285Y-43547342D02*
X27814285Y-42347342D01*
X27814285Y-42347342D02*
X28214285Y-43547342D01*
X44771428Y-36490200D02*
X44942857Y-36547342D01*
X44942857Y-36547342D02*
X45228571Y-36547342D01*
X45228571Y-36547342D02*
X45342857Y-36490200D01*
X45342857Y-36490200D02*
X45399999Y-36433057D01*
X45399999Y-36433057D02*
X45457142Y-36318771D01*
X45457142Y-36318771D02*
X45457142Y-36204485D01*
X45457142Y-36204485D02*
X45399999Y-36090200D01*
X45399999Y-36090200D02*
X45342857Y-36033057D01*
X45342857Y-36033057D02*
X45228571Y-35975914D01*
X45228571Y-35975914D02*
X44999999Y-35918771D01*
X44999999Y-35918771D02*
X44885714Y-35861628D01*
X44885714Y-35861628D02*
X44828571Y-35804485D01*
X44828571Y-35804485D02*
X44771428Y-35690200D01*
X44771428Y-35690200D02*
X44771428Y-35575914D01*
X44771428Y-35575914D02*
X44828571Y-35461628D01*
X44828571Y-35461628D02*
X44885714Y-35404485D01*
X44885714Y-35404485D02*
X44999999Y-35347342D01*
X44999999Y-35347342D02*
X45285714Y-35347342D01*
X45285714Y-35347342D02*
X45457142Y-35404485D01*
X45971428Y-36547342D02*
X45971428Y-35347342D01*
X45971428Y-35347342D02*
X46428571Y-35347342D01*
X46428571Y-35347342D02*
X46542856Y-35404485D01*
X46542856Y-35404485D02*
X46599999Y-35461628D01*
X46599999Y-35461628D02*
X46657142Y-35575914D01*
X46657142Y-35575914D02*
X46657142Y-35747342D01*
X46657142Y-35747342D02*
X46599999Y-35861628D01*
X46599999Y-35861628D02*
X46542856Y-35918771D01*
X46542856Y-35918771D02*
X46428571Y-35975914D01*
X46428571Y-35975914D02*
X45971428Y-35975914D01*
X47171428Y-36547342D02*
X47171428Y-35347342D01*
X39589580Y-51323809D02*
X39637200Y-51371428D01*
X39637200Y-51371428D02*
X39684819Y-51514285D01*
X39684819Y-51514285D02*
X39684819Y-51609523D01*
X39684819Y-51609523D02*
X39637200Y-51752380D01*
X39637200Y-51752380D02*
X39541961Y-51847618D01*
X39541961Y-51847618D02*
X39446723Y-51895237D01*
X39446723Y-51895237D02*
X39256247Y-51942856D01*
X39256247Y-51942856D02*
X39113390Y-51942856D01*
X39113390Y-51942856D02*
X38922914Y-51895237D01*
X38922914Y-51895237D02*
X38827676Y-51847618D01*
X38827676Y-51847618D02*
X38732438Y-51752380D01*
X38732438Y-51752380D02*
X38684819Y-51609523D01*
X38684819Y-51609523D02*
X38684819Y-51514285D01*
X38684819Y-51514285D02*
X38732438Y-51371428D01*
X38732438Y-51371428D02*
X38780057Y-51323809D01*
X39684819Y-50895237D02*
X38684819Y-50895237D01*
X38684819Y-50895237D02*
X39684819Y-50323809D01*
X39684819Y-50323809D02*
X38684819Y-50323809D01*
X39780057Y-50085714D02*
X39780057Y-49323809D01*
X39399104Y-49133332D02*
X39399104Y-48657142D01*
X39684819Y-49228570D02*
X38684819Y-48895237D01*
X38684819Y-48895237D02*
X39684819Y-48561904D01*
X39684819Y-48228570D02*
X38684819Y-48228570D01*
X38684819Y-48228570D02*
X38684819Y-47990475D01*
X38684819Y-47990475D02*
X38732438Y-47847618D01*
X38732438Y-47847618D02*
X38827676Y-47752380D01*
X38827676Y-47752380D02*
X38922914Y-47704761D01*
X38922914Y-47704761D02*
X39113390Y-47657142D01*
X39113390Y-47657142D02*
X39256247Y-47657142D01*
X39256247Y-47657142D02*
X39446723Y-47704761D01*
X39446723Y-47704761D02*
X39541961Y-47752380D01*
X39541961Y-47752380D02*
X39637200Y-47847618D01*
X39637200Y-47847618D02*
X39684819Y-47990475D01*
X39684819Y-47990475D02*
X39684819Y-48228570D01*
X32477142Y-10074819D02*
X32477142Y-10789104D01*
X32477142Y-10789104D02*
X32429523Y-10931961D01*
X32429523Y-10931961D02*
X32334285Y-11027200D01*
X32334285Y-11027200D02*
X32191428Y-11074819D01*
X32191428Y-11074819D02*
X32096190Y-11074819D01*
X32715238Y-11170057D02*
X33477142Y-11170057D01*
X33715238Y-11074819D02*
X33715238Y-10074819D01*
X33715238Y-10074819D02*
X34096190Y-10074819D01*
X34096190Y-10074819D02*
X34191428Y-10122438D01*
X34191428Y-10122438D02*
X34239047Y-10170057D01*
X34239047Y-10170057D02*
X34286666Y-10265295D01*
X34286666Y-10265295D02*
X34286666Y-10408152D01*
X34286666Y-10408152D02*
X34239047Y-10503390D01*
X34239047Y-10503390D02*
X34191428Y-10551009D01*
X34191428Y-10551009D02*
X34096190Y-10598628D01*
X34096190Y-10598628D02*
X33715238Y-10598628D01*
X35286666Y-11074819D02*
X34953333Y-10598628D01*
X34715238Y-11074819D02*
X34715238Y-10074819D01*
X34715238Y-10074819D02*
X35096190Y-10074819D01*
X35096190Y-10074819D02*
X35191428Y-10122438D01*
X35191428Y-10122438D02*
X35239047Y-10170057D01*
X35239047Y-10170057D02*
X35286666Y-10265295D01*
X35286666Y-10265295D02*
X35286666Y-10408152D01*
X35286666Y-10408152D02*
X35239047Y-10503390D01*
X35239047Y-10503390D02*
X35191428Y-10551009D01*
X35191428Y-10551009D02*
X35096190Y-10598628D01*
X35096190Y-10598628D02*
X34715238Y-10598628D01*
X35905714Y-10074819D02*
X36096190Y-10074819D01*
X36096190Y-10074819D02*
X36191428Y-10122438D01*
X36191428Y-10122438D02*
X36286666Y-10217676D01*
X36286666Y-10217676D02*
X36334285Y-10408152D01*
X36334285Y-10408152D02*
X36334285Y-10741485D01*
X36334285Y-10741485D02*
X36286666Y-10931961D01*
X36286666Y-10931961D02*
X36191428Y-11027200D01*
X36191428Y-11027200D02*
X36096190Y-11074819D01*
X36096190Y-11074819D02*
X35905714Y-11074819D01*
X35905714Y-11074819D02*
X35810476Y-11027200D01*
X35810476Y-11027200D02*
X35715238Y-10931961D01*
X35715238Y-10931961D02*
X35667619Y-10741485D01*
X35667619Y-10741485D02*
X35667619Y-10408152D01*
X35667619Y-10408152D02*
X35715238Y-10217676D01*
X35715238Y-10217676D02*
X35810476Y-10122438D01*
X35810476Y-10122438D02*
X35905714Y-10074819D01*
X36620000Y-10074819D02*
X37191428Y-10074819D01*
X36905714Y-11074819D02*
X36905714Y-10074819D01*
X37715238Y-10074819D02*
X37905714Y-10074819D01*
X37905714Y-10074819D02*
X38000952Y-10122438D01*
X38000952Y-10122438D02*
X38096190Y-10217676D01*
X38096190Y-10217676D02*
X38143809Y-10408152D01*
X38143809Y-10408152D02*
X38143809Y-10741485D01*
X38143809Y-10741485D02*
X38096190Y-10931961D01*
X38096190Y-10931961D02*
X38000952Y-11027200D01*
X38000952Y-11027200D02*
X37905714Y-11074819D01*
X37905714Y-11074819D02*
X37715238Y-11074819D01*
X37715238Y-11074819D02*
X37620000Y-11027200D01*
X37620000Y-11027200D02*
X37524762Y-10931961D01*
X37524762Y-10931961D02*
X37477143Y-10741485D01*
X37477143Y-10741485D02*
X37477143Y-10408152D01*
X37477143Y-10408152D02*
X37524762Y-10217676D01*
X37524762Y-10217676D02*
X37620000Y-10122438D01*
X37620000Y-10122438D02*
X37715238Y-10074819D01*
X39000952Y-10408152D02*
X39000952Y-11074819D01*
X38762857Y-10027200D02*
X38524762Y-10741485D01*
X38524762Y-10741485D02*
X39143809Y-10741485D01*
X48919047Y-4731009D02*
X49061904Y-4778628D01*
X49061904Y-4778628D02*
X49109523Y-4826247D01*
X49109523Y-4826247D02*
X49157142Y-4921485D01*
X49157142Y-4921485D02*
X49157142Y-5064342D01*
X49157142Y-5064342D02*
X49109523Y-5159580D01*
X49109523Y-5159580D02*
X49061904Y-5207200D01*
X49061904Y-5207200D02*
X48966666Y-5254819D01*
X48966666Y-5254819D02*
X48585714Y-5254819D01*
X48585714Y-5254819D02*
X48585714Y-4254819D01*
X48585714Y-4254819D02*
X48919047Y-4254819D01*
X48919047Y-4254819D02*
X49014285Y-4302438D01*
X49014285Y-4302438D02*
X49061904Y-4350057D01*
X49061904Y-4350057D02*
X49109523Y-4445295D01*
X49109523Y-4445295D02*
X49109523Y-4540533D01*
X49109523Y-4540533D02*
X49061904Y-4635771D01*
X49061904Y-4635771D02*
X49014285Y-4683390D01*
X49014285Y-4683390D02*
X48919047Y-4731009D01*
X48919047Y-4731009D02*
X48585714Y-4731009D01*
X49490476Y-4254819D02*
X50157142Y-4254819D01*
X50157142Y-4254819D02*
X49490476Y-5254819D01*
X49490476Y-5254819D02*
X50157142Y-5254819D01*
X51061904Y-5254819D02*
X50490476Y-5254819D01*
X50776190Y-5254819D02*
X50776190Y-4254819D01*
X50776190Y-4254819D02*
X50680952Y-4397676D01*
X50680952Y-4397676D02*
X50585714Y-4492914D01*
X50585714Y-4492914D02*
X50490476Y-4540533D01*
X45609048Y-9533866D02*
X46370953Y-9533866D01*
X45990000Y-9914819D02*
X45990000Y-9152914D01*
X16589580Y-6119047D02*
X16637200Y-6166666D01*
X16637200Y-6166666D02*
X16684819Y-6309523D01*
X16684819Y-6309523D02*
X16684819Y-6404761D01*
X16684819Y-6404761D02*
X16637200Y-6547618D01*
X16637200Y-6547618D02*
X16541961Y-6642856D01*
X16541961Y-6642856D02*
X16446723Y-6690475D01*
X16446723Y-6690475D02*
X16256247Y-6738094D01*
X16256247Y-6738094D02*
X16113390Y-6738094D01*
X16113390Y-6738094D02*
X15922914Y-6690475D01*
X15922914Y-6690475D02*
X15827676Y-6642856D01*
X15827676Y-6642856D02*
X15732438Y-6547618D01*
X15732438Y-6547618D02*
X15684819Y-6404761D01*
X15684819Y-6404761D02*
X15684819Y-6309523D01*
X15684819Y-6309523D02*
X15732438Y-6166666D01*
X15732438Y-6166666D02*
X15780057Y-6119047D01*
X16684819Y-5690475D02*
X15684819Y-5690475D01*
X15684819Y-5690475D02*
X16684819Y-5119047D01*
X16684819Y-5119047D02*
X15684819Y-5119047D01*
X16780057Y-4880952D02*
X16780057Y-4119047D01*
X16684819Y-3880951D02*
X15684819Y-3880951D01*
X15684819Y-3880951D02*
X15684819Y-3642856D01*
X15684819Y-3642856D02*
X15732438Y-3499999D01*
X15732438Y-3499999D02*
X15827676Y-3404761D01*
X15827676Y-3404761D02*
X15922914Y-3357142D01*
X15922914Y-3357142D02*
X16113390Y-3309523D01*
X16113390Y-3309523D02*
X16256247Y-3309523D01*
X16256247Y-3309523D02*
X16446723Y-3357142D01*
X16446723Y-3357142D02*
X16541961Y-3404761D01*
X16541961Y-3404761D02*
X16637200Y-3499999D01*
X16637200Y-3499999D02*
X16684819Y-3642856D01*
X16684819Y-3642856D02*
X16684819Y-3880951D01*
X16684819Y-2880951D02*
X15684819Y-2880951D01*
X15732438Y-1880952D02*
X15684819Y-1976190D01*
X15684819Y-1976190D02*
X15684819Y-2119047D01*
X15684819Y-2119047D02*
X15732438Y-2261904D01*
X15732438Y-2261904D02*
X15827676Y-2357142D01*
X15827676Y-2357142D02*
X15922914Y-2404761D01*
X15922914Y-2404761D02*
X16113390Y-2452380D01*
X16113390Y-2452380D02*
X16256247Y-2452380D01*
X16256247Y-2452380D02*
X16446723Y-2404761D01*
X16446723Y-2404761D02*
X16541961Y-2357142D01*
X16541961Y-2357142D02*
X16637200Y-2261904D01*
X16637200Y-2261904D02*
X16684819Y-2119047D01*
X16684819Y-2119047D02*
X16684819Y-2023809D01*
X16684819Y-2023809D02*
X16637200Y-1880952D01*
X16637200Y-1880952D02*
X16589580Y-1833333D01*
X16589580Y-1833333D02*
X16256247Y-1833333D01*
X16256247Y-1833333D02*
X16256247Y-2023809D01*
X16780057Y-1642857D02*
X16780057Y-880952D01*
X16684819Y-166666D02*
X16684819Y-642856D01*
X16684819Y-642856D02*
X15684819Y-642856D01*
X6643333Y-14084819D02*
X6310000Y-13608628D01*
X6071905Y-14084819D02*
X6071905Y-13084819D01*
X6071905Y-13084819D02*
X6452857Y-13084819D01*
X6452857Y-13084819D02*
X6548095Y-13132438D01*
X6548095Y-13132438D02*
X6595714Y-13180057D01*
X6595714Y-13180057D02*
X6643333Y-13275295D01*
X6643333Y-13275295D02*
X6643333Y-13418152D01*
X6643333Y-13418152D02*
X6595714Y-13513390D01*
X6595714Y-13513390D02*
X6548095Y-13561009D01*
X6548095Y-13561009D02*
X6452857Y-13608628D01*
X6452857Y-13608628D02*
X6071905Y-13608628D01*
X7595714Y-14084819D02*
X7024286Y-14084819D01*
X7310000Y-14084819D02*
X7310000Y-13084819D01*
X7310000Y-13084819D02*
X7214762Y-13227676D01*
X7214762Y-13227676D02*
X7119524Y-13322914D01*
X7119524Y-13322914D02*
X7024286Y-13370533D01*
X14591905Y-29414819D02*
X14591905Y-28414819D01*
X14591905Y-28414819D02*
X14830000Y-28414819D01*
X14830000Y-28414819D02*
X14972857Y-28462438D01*
X14972857Y-28462438D02*
X15068095Y-28557676D01*
X15068095Y-28557676D02*
X15115714Y-28652914D01*
X15115714Y-28652914D02*
X15163333Y-28843390D01*
X15163333Y-28843390D02*
X15163333Y-28986247D01*
X15163333Y-28986247D02*
X15115714Y-29176723D01*
X15115714Y-29176723D02*
X15068095Y-29271961D01*
X15068095Y-29271961D02*
X14972857Y-29367200D01*
X14972857Y-29367200D02*
X14830000Y-29414819D01*
X14830000Y-29414819D02*
X14591905Y-29414819D01*
X15544286Y-28510057D02*
X15591905Y-28462438D01*
X15591905Y-28462438D02*
X15687143Y-28414819D01*
X15687143Y-28414819D02*
X15925238Y-28414819D01*
X15925238Y-28414819D02*
X16020476Y-28462438D01*
X16020476Y-28462438D02*
X16068095Y-28510057D01*
X16068095Y-28510057D02*
X16115714Y-28605295D01*
X16115714Y-28605295D02*
X16115714Y-28700533D01*
X16115714Y-28700533D02*
X16068095Y-28843390D01*
X16068095Y-28843390D02*
X15496667Y-29414819D01*
X15496667Y-29414819D02*
X16115714Y-29414819D01*
D11*
X64346666Y-36139271D02*
X64346666Y-34869271D01*
X64346666Y-34869271D02*
X64770000Y-35776414D01*
X64770000Y-35776414D02*
X65193333Y-34869271D01*
X65193333Y-34869271D02*
X65193333Y-36139271D01*
X65798095Y-36139271D02*
X65798095Y-34869271D01*
X65798095Y-35474033D02*
X66523810Y-35474033D01*
X66523810Y-36139271D02*
X66523810Y-34869271D01*
X67672857Y-35292604D02*
X67672857Y-36139271D01*
X67370476Y-34808795D02*
X67068095Y-35715937D01*
X67068095Y-35715937D02*
X67854286Y-35715937D01*
D10*
X14591905Y-20414819D02*
X14591905Y-19414819D01*
X14591905Y-19414819D02*
X14830000Y-19414819D01*
X14830000Y-19414819D02*
X14972857Y-19462438D01*
X14972857Y-19462438D02*
X15068095Y-19557676D01*
X15068095Y-19557676D02*
X15115714Y-19652914D01*
X15115714Y-19652914D02*
X15163333Y-19843390D01*
X15163333Y-19843390D02*
X15163333Y-19986247D01*
X15163333Y-19986247D02*
X15115714Y-20176723D01*
X15115714Y-20176723D02*
X15068095Y-20271961D01*
X15068095Y-20271961D02*
X14972857Y-20367200D01*
X14972857Y-20367200D02*
X14830000Y-20414819D01*
X14830000Y-20414819D02*
X14591905Y-20414819D01*
X16115714Y-20414819D02*
X15544286Y-20414819D01*
X15830000Y-20414819D02*
X15830000Y-19414819D01*
X15830000Y-19414819D02*
X15734762Y-19557676D01*
X15734762Y-19557676D02*
X15639524Y-19652914D01*
X15639524Y-19652914D02*
X15544286Y-19700533D01*
X5333333Y-28859580D02*
X5285714Y-28907200D01*
X5285714Y-28907200D02*
X5142857Y-28954819D01*
X5142857Y-28954819D02*
X5047619Y-28954819D01*
X5047619Y-28954819D02*
X4904762Y-28907200D01*
X4904762Y-28907200D02*
X4809524Y-28811961D01*
X4809524Y-28811961D02*
X4761905Y-28716723D01*
X4761905Y-28716723D02*
X4714286Y-28526247D01*
X4714286Y-28526247D02*
X4714286Y-28383390D01*
X4714286Y-28383390D02*
X4761905Y-28192914D01*
X4761905Y-28192914D02*
X4809524Y-28097676D01*
X4809524Y-28097676D02*
X4904762Y-28002438D01*
X4904762Y-28002438D02*
X5047619Y-27954819D01*
X5047619Y-27954819D02*
X5142857Y-27954819D01*
X5142857Y-27954819D02*
X5285714Y-28002438D01*
X5285714Y-28002438D02*
X5333333Y-28050057D01*
X6285714Y-28954819D02*
X5714286Y-28954819D01*
X6000000Y-28954819D02*
X6000000Y-27954819D01*
X6000000Y-27954819D02*
X5904762Y-28097676D01*
X5904762Y-28097676D02*
X5809524Y-28192914D01*
X5809524Y-28192914D02*
X5714286Y-28240533D01*
D11*
X12276666Y-3119271D02*
X12276666Y-1849271D01*
X12276666Y-1849271D02*
X12700000Y-2756414D01*
X12700000Y-2756414D02*
X13123333Y-1849271D01*
X13123333Y-1849271D02*
X13123333Y-3119271D01*
X13728095Y-3119271D02*
X13728095Y-1849271D01*
X13728095Y-2454033D02*
X14453810Y-2454033D01*
X14453810Y-3119271D02*
X14453810Y-1849271D01*
X15723810Y-3119271D02*
X14998095Y-3119271D01*
X15360952Y-3119271D02*
X15360952Y-1849271D01*
X15360952Y-1849271D02*
X15240000Y-2030699D01*
X15240000Y-2030699D02*
X15119048Y-2151652D01*
X15119048Y-2151652D02*
X14998095Y-2212128D01*
D10*
X5333333Y-34859580D02*
X5285714Y-34907200D01*
X5285714Y-34907200D02*
X5142857Y-34954819D01*
X5142857Y-34954819D02*
X5047619Y-34954819D01*
X5047619Y-34954819D02*
X4904762Y-34907200D01*
X4904762Y-34907200D02*
X4809524Y-34811961D01*
X4809524Y-34811961D02*
X4761905Y-34716723D01*
X4761905Y-34716723D02*
X4714286Y-34526247D01*
X4714286Y-34526247D02*
X4714286Y-34383390D01*
X4714286Y-34383390D02*
X4761905Y-34192914D01*
X4761905Y-34192914D02*
X4809524Y-34097676D01*
X4809524Y-34097676D02*
X4904762Y-34002438D01*
X4904762Y-34002438D02*
X5047619Y-33954819D01*
X5047619Y-33954819D02*
X5142857Y-33954819D01*
X5142857Y-33954819D02*
X5285714Y-34002438D01*
X5285714Y-34002438D02*
X5333333Y-34050057D01*
X5714286Y-34050057D02*
X5761905Y-34002438D01*
X5761905Y-34002438D02*
X5857143Y-33954819D01*
X5857143Y-33954819D02*
X6095238Y-33954819D01*
X6095238Y-33954819D02*
X6190476Y-34002438D01*
X6190476Y-34002438D02*
X6238095Y-34050057D01*
X6238095Y-34050057D02*
X6285714Y-34145295D01*
X6285714Y-34145295D02*
X6285714Y-34240533D01*
X6285714Y-34240533D02*
X6238095Y-34383390D01*
X6238095Y-34383390D02*
X5666667Y-34954819D01*
X5666667Y-34954819D02*
X6285714Y-34954819D01*
X74819Y-45452380D02*
X789104Y-45452380D01*
X789104Y-45452380D02*
X931961Y-45499999D01*
X931961Y-45499999D02*
X1027200Y-45595237D01*
X1027200Y-45595237D02*
X1074819Y-45738094D01*
X1074819Y-45738094D02*
X1074819Y-45833332D01*
X1170057Y-45214285D02*
X1170057Y-44452380D01*
X1074819Y-44214284D02*
X74819Y-44214284D01*
X170057Y-43785713D02*
X122438Y-43738094D01*
X122438Y-43738094D02*
X74819Y-43642856D01*
X74819Y-43642856D02*
X74819Y-43404761D01*
X74819Y-43404761D02*
X122438Y-43309523D01*
X122438Y-43309523D02*
X170057Y-43261904D01*
X170057Y-43261904D02*
X265295Y-43214285D01*
X265295Y-43214285D02*
X360533Y-43214285D01*
X360533Y-43214285D02*
X503390Y-43261904D01*
X503390Y-43261904D02*
X1074819Y-43833332D01*
X1074819Y-43833332D02*
X1074819Y-43214285D01*
X979580Y-42214285D02*
X1027200Y-42261904D01*
X1027200Y-42261904D02*
X1074819Y-42404761D01*
X1074819Y-42404761D02*
X1074819Y-42499999D01*
X1074819Y-42499999D02*
X1027200Y-42642856D01*
X1027200Y-42642856D02*
X931961Y-42738094D01*
X931961Y-42738094D02*
X836723Y-42785713D01*
X836723Y-42785713D02*
X646247Y-42833332D01*
X646247Y-42833332D02*
X503390Y-42833332D01*
X503390Y-42833332D02*
X312914Y-42785713D01*
X312914Y-42785713D02*
X217676Y-42738094D01*
X217676Y-42738094D02*
X122438Y-42642856D01*
X122438Y-42642856D02*
X74819Y-42499999D01*
X74819Y-42499999D02*
X74819Y-42404761D01*
X74819Y-42404761D02*
X122438Y-42261904D01*
X122438Y-42261904D02*
X170057Y-42214285D01*
X6643333Y-23084819D02*
X6310000Y-22608628D01*
X6071905Y-23084819D02*
X6071905Y-22084819D01*
X6071905Y-22084819D02*
X6452857Y-22084819D01*
X6452857Y-22084819D02*
X6548095Y-22132438D01*
X6548095Y-22132438D02*
X6595714Y-22180057D01*
X6595714Y-22180057D02*
X6643333Y-22275295D01*
X6643333Y-22275295D02*
X6643333Y-22418152D01*
X6643333Y-22418152D02*
X6595714Y-22513390D01*
X6595714Y-22513390D02*
X6548095Y-22561009D01*
X6548095Y-22561009D02*
X6452857Y-22608628D01*
X6452857Y-22608628D02*
X6071905Y-22608628D01*
X7024286Y-22180057D02*
X7071905Y-22132438D01*
X7071905Y-22132438D02*
X7167143Y-22084819D01*
X7167143Y-22084819D02*
X7405238Y-22084819D01*
X7405238Y-22084819D02*
X7500476Y-22132438D01*
X7500476Y-22132438D02*
X7548095Y-22180057D01*
X7548095Y-22180057D02*
X7595714Y-22275295D01*
X7595714Y-22275295D02*
X7595714Y-22370533D01*
X7595714Y-22370533D02*
X7548095Y-22513390D01*
X7548095Y-22513390D02*
X6976667Y-23084819D01*
X6976667Y-23084819D02*
X7595714Y-23084819D01*
D11*
X64346666Y-8199271D02*
X64346666Y-6929271D01*
X64346666Y-6929271D02*
X64770000Y-7836414D01*
X64770000Y-7836414D02*
X65193333Y-6929271D01*
X65193333Y-6929271D02*
X65193333Y-8199271D01*
X65798095Y-8199271D02*
X65798095Y-6929271D01*
X65798095Y-7534033D02*
X66523810Y-7534033D01*
X66523810Y-8199271D02*
X66523810Y-6929271D01*
X67007619Y-6929271D02*
X67793810Y-6929271D01*
X67793810Y-6929271D02*
X67370476Y-7413080D01*
X67370476Y-7413080D02*
X67551905Y-7413080D01*
X67551905Y-7413080D02*
X67672857Y-7473556D01*
X67672857Y-7473556D02*
X67733333Y-7534033D01*
X67733333Y-7534033D02*
X67793810Y-7654985D01*
X67793810Y-7654985D02*
X67793810Y-7957366D01*
X67793810Y-7957366D02*
X67733333Y-8078318D01*
X67733333Y-8078318D02*
X67672857Y-8138795D01*
X67672857Y-8138795D02*
X67551905Y-8199271D01*
X67551905Y-8199271D02*
X67189048Y-8199271D01*
X67189048Y-8199271D02*
X67068095Y-8138795D01*
X67068095Y-8138795D02*
X67007619Y-8078318D01*
D10*
X14833333Y-29609580D02*
X14785714Y-29657200D01*
X14785714Y-29657200D02*
X14642857Y-29704819D01*
X14642857Y-29704819D02*
X14547619Y-29704819D01*
X14547619Y-29704819D02*
X14404762Y-29657200D01*
X14404762Y-29657200D02*
X14309524Y-29561961D01*
X14309524Y-29561961D02*
X14261905Y-29466723D01*
X14261905Y-29466723D02*
X14214286Y-29276247D01*
X14214286Y-29276247D02*
X14214286Y-29133390D01*
X14214286Y-29133390D02*
X14261905Y-28942914D01*
X14261905Y-28942914D02*
X14309524Y-28847676D01*
X14309524Y-28847676D02*
X14404762Y-28752438D01*
X14404762Y-28752438D02*
X14547619Y-28704819D01*
X14547619Y-28704819D02*
X14642857Y-28704819D01*
X14642857Y-28704819D02*
X14785714Y-28752438D01*
X14785714Y-28752438D02*
X14833333Y-28800057D01*
X15166667Y-28704819D02*
X15785714Y-28704819D01*
X15785714Y-28704819D02*
X15452381Y-29085771D01*
X15452381Y-29085771D02*
X15595238Y-29085771D01*
X15595238Y-29085771D02*
X15690476Y-29133390D01*
X15690476Y-29133390D02*
X15738095Y-29181009D01*
X15738095Y-29181009D02*
X15785714Y-29276247D01*
X15785714Y-29276247D02*
X15785714Y-29514342D01*
X15785714Y-29514342D02*
X15738095Y-29609580D01*
X15738095Y-29609580D02*
X15690476Y-29657200D01*
X15690476Y-29657200D02*
X15595238Y-29704819D01*
X15595238Y-29704819D02*
X15309524Y-29704819D01*
X15309524Y-29704819D02*
X15214286Y-29657200D01*
X15214286Y-29657200D02*
X15166667Y-29609580D01*
X27397142Y-10074819D02*
X27397142Y-10789104D01*
X27397142Y-10789104D02*
X27349523Y-10931961D01*
X27349523Y-10931961D02*
X27254285Y-11027200D01*
X27254285Y-11027200D02*
X27111428Y-11074819D01*
X27111428Y-11074819D02*
X27016190Y-11074819D01*
X27635238Y-11170057D02*
X28397142Y-11170057D01*
X28635238Y-11074819D02*
X28635238Y-10074819D01*
X28635238Y-10074819D02*
X29016190Y-10074819D01*
X29016190Y-10074819D02*
X29111428Y-10122438D01*
X29111428Y-10122438D02*
X29159047Y-10170057D01*
X29159047Y-10170057D02*
X29206666Y-10265295D01*
X29206666Y-10265295D02*
X29206666Y-10408152D01*
X29206666Y-10408152D02*
X29159047Y-10503390D01*
X29159047Y-10503390D02*
X29111428Y-10551009D01*
X29111428Y-10551009D02*
X29016190Y-10598628D01*
X29016190Y-10598628D02*
X28635238Y-10598628D01*
X30206666Y-11074819D02*
X29873333Y-10598628D01*
X29635238Y-11074819D02*
X29635238Y-10074819D01*
X29635238Y-10074819D02*
X30016190Y-10074819D01*
X30016190Y-10074819D02*
X30111428Y-10122438D01*
X30111428Y-10122438D02*
X30159047Y-10170057D01*
X30159047Y-10170057D02*
X30206666Y-10265295D01*
X30206666Y-10265295D02*
X30206666Y-10408152D01*
X30206666Y-10408152D02*
X30159047Y-10503390D01*
X30159047Y-10503390D02*
X30111428Y-10551009D01*
X30111428Y-10551009D02*
X30016190Y-10598628D01*
X30016190Y-10598628D02*
X29635238Y-10598628D01*
X30825714Y-10074819D02*
X31016190Y-10074819D01*
X31016190Y-10074819D02*
X31111428Y-10122438D01*
X31111428Y-10122438D02*
X31206666Y-10217676D01*
X31206666Y-10217676D02*
X31254285Y-10408152D01*
X31254285Y-10408152D02*
X31254285Y-10741485D01*
X31254285Y-10741485D02*
X31206666Y-10931961D01*
X31206666Y-10931961D02*
X31111428Y-11027200D01*
X31111428Y-11027200D02*
X31016190Y-11074819D01*
X31016190Y-11074819D02*
X30825714Y-11074819D01*
X30825714Y-11074819D02*
X30730476Y-11027200D01*
X30730476Y-11027200D02*
X30635238Y-10931961D01*
X30635238Y-10931961D02*
X30587619Y-10741485D01*
X30587619Y-10741485D02*
X30587619Y-10408152D01*
X30587619Y-10408152D02*
X30635238Y-10217676D01*
X30635238Y-10217676D02*
X30730476Y-10122438D01*
X30730476Y-10122438D02*
X30825714Y-10074819D01*
X31540000Y-10074819D02*
X32111428Y-10074819D01*
X31825714Y-11074819D02*
X31825714Y-10074819D01*
X32635238Y-10074819D02*
X32825714Y-10074819D01*
X32825714Y-10074819D02*
X32920952Y-10122438D01*
X32920952Y-10122438D02*
X33016190Y-10217676D01*
X33016190Y-10217676D02*
X33063809Y-10408152D01*
X33063809Y-10408152D02*
X33063809Y-10741485D01*
X33063809Y-10741485D02*
X33016190Y-10931961D01*
X33016190Y-10931961D02*
X32920952Y-11027200D01*
X32920952Y-11027200D02*
X32825714Y-11074819D01*
X32825714Y-11074819D02*
X32635238Y-11074819D01*
X32635238Y-11074819D02*
X32540000Y-11027200D01*
X32540000Y-11027200D02*
X32444762Y-10931961D01*
X32444762Y-10931961D02*
X32397143Y-10741485D01*
X32397143Y-10741485D02*
X32397143Y-10408152D01*
X32397143Y-10408152D02*
X32444762Y-10217676D01*
X32444762Y-10217676D02*
X32540000Y-10122438D01*
X32540000Y-10122438D02*
X32635238Y-10074819D01*
X33444762Y-10170057D02*
X33492381Y-10122438D01*
X33492381Y-10122438D02*
X33587619Y-10074819D01*
X33587619Y-10074819D02*
X33825714Y-10074819D01*
X33825714Y-10074819D02*
X33920952Y-10122438D01*
X33920952Y-10122438D02*
X33968571Y-10170057D01*
X33968571Y-10170057D02*
X34016190Y-10265295D01*
X34016190Y-10265295D02*
X34016190Y-10360533D01*
X34016190Y-10360533D02*
X33968571Y-10503390D01*
X33968571Y-10503390D02*
X33397143Y-11074819D01*
X33397143Y-11074819D02*
X34016190Y-11074819D01*
X29937142Y-10074819D02*
X29937142Y-10789104D01*
X29937142Y-10789104D02*
X29889523Y-10931961D01*
X29889523Y-10931961D02*
X29794285Y-11027200D01*
X29794285Y-11027200D02*
X29651428Y-11074819D01*
X29651428Y-11074819D02*
X29556190Y-11074819D01*
X30175238Y-11170057D02*
X30937142Y-11170057D01*
X31175238Y-11074819D02*
X31175238Y-10074819D01*
X31175238Y-10074819D02*
X31556190Y-10074819D01*
X31556190Y-10074819D02*
X31651428Y-10122438D01*
X31651428Y-10122438D02*
X31699047Y-10170057D01*
X31699047Y-10170057D02*
X31746666Y-10265295D01*
X31746666Y-10265295D02*
X31746666Y-10408152D01*
X31746666Y-10408152D02*
X31699047Y-10503390D01*
X31699047Y-10503390D02*
X31651428Y-10551009D01*
X31651428Y-10551009D02*
X31556190Y-10598628D01*
X31556190Y-10598628D02*
X31175238Y-10598628D01*
X32746666Y-11074819D02*
X32413333Y-10598628D01*
X32175238Y-11074819D02*
X32175238Y-10074819D01*
X32175238Y-10074819D02*
X32556190Y-10074819D01*
X32556190Y-10074819D02*
X32651428Y-10122438D01*
X32651428Y-10122438D02*
X32699047Y-10170057D01*
X32699047Y-10170057D02*
X32746666Y-10265295D01*
X32746666Y-10265295D02*
X32746666Y-10408152D01*
X32746666Y-10408152D02*
X32699047Y-10503390D01*
X32699047Y-10503390D02*
X32651428Y-10551009D01*
X32651428Y-10551009D02*
X32556190Y-10598628D01*
X32556190Y-10598628D02*
X32175238Y-10598628D01*
X33365714Y-10074819D02*
X33556190Y-10074819D01*
X33556190Y-10074819D02*
X33651428Y-10122438D01*
X33651428Y-10122438D02*
X33746666Y-10217676D01*
X33746666Y-10217676D02*
X33794285Y-10408152D01*
X33794285Y-10408152D02*
X33794285Y-10741485D01*
X33794285Y-10741485D02*
X33746666Y-10931961D01*
X33746666Y-10931961D02*
X33651428Y-11027200D01*
X33651428Y-11027200D02*
X33556190Y-11074819D01*
X33556190Y-11074819D02*
X33365714Y-11074819D01*
X33365714Y-11074819D02*
X33270476Y-11027200D01*
X33270476Y-11027200D02*
X33175238Y-10931961D01*
X33175238Y-10931961D02*
X33127619Y-10741485D01*
X33127619Y-10741485D02*
X33127619Y-10408152D01*
X33127619Y-10408152D02*
X33175238Y-10217676D01*
X33175238Y-10217676D02*
X33270476Y-10122438D01*
X33270476Y-10122438D02*
X33365714Y-10074819D01*
X34080000Y-10074819D02*
X34651428Y-10074819D01*
X34365714Y-11074819D02*
X34365714Y-10074819D01*
X35175238Y-10074819D02*
X35365714Y-10074819D01*
X35365714Y-10074819D02*
X35460952Y-10122438D01*
X35460952Y-10122438D02*
X35556190Y-10217676D01*
X35556190Y-10217676D02*
X35603809Y-10408152D01*
X35603809Y-10408152D02*
X35603809Y-10741485D01*
X35603809Y-10741485D02*
X35556190Y-10931961D01*
X35556190Y-10931961D02*
X35460952Y-11027200D01*
X35460952Y-11027200D02*
X35365714Y-11074819D01*
X35365714Y-11074819D02*
X35175238Y-11074819D01*
X35175238Y-11074819D02*
X35080000Y-11027200D01*
X35080000Y-11027200D02*
X34984762Y-10931961D01*
X34984762Y-10931961D02*
X34937143Y-10741485D01*
X34937143Y-10741485D02*
X34937143Y-10408152D01*
X34937143Y-10408152D02*
X34984762Y-10217676D01*
X34984762Y-10217676D02*
X35080000Y-10122438D01*
X35080000Y-10122438D02*
X35175238Y-10074819D01*
X35937143Y-10074819D02*
X36556190Y-10074819D01*
X36556190Y-10074819D02*
X36222857Y-10455771D01*
X36222857Y-10455771D02*
X36365714Y-10455771D01*
X36365714Y-10455771D02*
X36460952Y-10503390D01*
X36460952Y-10503390D02*
X36508571Y-10551009D01*
X36508571Y-10551009D02*
X36556190Y-10646247D01*
X36556190Y-10646247D02*
X36556190Y-10884342D01*
X36556190Y-10884342D02*
X36508571Y-10979580D01*
X36508571Y-10979580D02*
X36460952Y-11027200D01*
X36460952Y-11027200D02*
X36365714Y-11074819D01*
X36365714Y-11074819D02*
X36080000Y-11074819D01*
X36080000Y-11074819D02*
X35984762Y-11027200D01*
X35984762Y-11027200D02*
X35937143Y-10979580D01*
X5488095Y-6407200D02*
X5630952Y-6454819D01*
X5630952Y-6454819D02*
X5869047Y-6454819D01*
X5869047Y-6454819D02*
X5964285Y-6407200D01*
X5964285Y-6407200D02*
X6011904Y-6359580D01*
X6011904Y-6359580D02*
X6059523Y-6264342D01*
X6059523Y-6264342D02*
X6059523Y-6169104D01*
X6059523Y-6169104D02*
X6011904Y-6073866D01*
X6011904Y-6073866D02*
X5964285Y-6026247D01*
X5964285Y-6026247D02*
X5869047Y-5978628D01*
X5869047Y-5978628D02*
X5678571Y-5931009D01*
X5678571Y-5931009D02*
X5583333Y-5883390D01*
X5583333Y-5883390D02*
X5535714Y-5835771D01*
X5535714Y-5835771D02*
X5488095Y-5740533D01*
X5488095Y-5740533D02*
X5488095Y-5645295D01*
X5488095Y-5645295D02*
X5535714Y-5550057D01*
X5535714Y-5550057D02*
X5583333Y-5502438D01*
X5583333Y-5502438D02*
X5678571Y-5454819D01*
X5678571Y-5454819D02*
X5916666Y-5454819D01*
X5916666Y-5454819D02*
X6059523Y-5502438D01*
X7011904Y-6454819D02*
X6440476Y-6454819D01*
X6726190Y-6454819D02*
X6726190Y-5454819D01*
X6726190Y-5454819D02*
X6630952Y-5597676D01*
X6630952Y-5597676D02*
X6535714Y-5692914D01*
X6535714Y-5692914D02*
X6440476Y-5740533D01*
X38429580Y-6238095D02*
X38477200Y-6285714D01*
X38477200Y-6285714D02*
X38524819Y-6428571D01*
X38524819Y-6428571D02*
X38524819Y-6523809D01*
X38524819Y-6523809D02*
X38477200Y-6666666D01*
X38477200Y-6666666D02*
X38381961Y-6761904D01*
X38381961Y-6761904D02*
X38286723Y-6809523D01*
X38286723Y-6809523D02*
X38096247Y-6857142D01*
X38096247Y-6857142D02*
X37953390Y-6857142D01*
X37953390Y-6857142D02*
X37762914Y-6809523D01*
X37762914Y-6809523D02*
X37667676Y-6761904D01*
X37667676Y-6761904D02*
X37572438Y-6666666D01*
X37572438Y-6666666D02*
X37524819Y-6523809D01*
X37524819Y-6523809D02*
X37524819Y-6428571D01*
X37524819Y-6428571D02*
X37572438Y-6285714D01*
X37572438Y-6285714D02*
X37620057Y-6238095D01*
X38524819Y-5809523D02*
X37524819Y-5809523D01*
X37524819Y-5809523D02*
X38524819Y-5238095D01*
X38524819Y-5238095D02*
X37524819Y-5238095D01*
X38620057Y-5000000D02*
X38620057Y-4238095D01*
X38524819Y-3999999D02*
X37524819Y-3999999D01*
X37524819Y-3999999D02*
X37524819Y-3761904D01*
X37524819Y-3761904D02*
X37572438Y-3619047D01*
X37572438Y-3619047D02*
X37667676Y-3523809D01*
X37667676Y-3523809D02*
X37762914Y-3476190D01*
X37762914Y-3476190D02*
X37953390Y-3428571D01*
X37953390Y-3428571D02*
X38096247Y-3428571D01*
X38096247Y-3428571D02*
X38286723Y-3476190D01*
X38286723Y-3476190D02*
X38381961Y-3523809D01*
X38381961Y-3523809D02*
X38477200Y-3619047D01*
X38477200Y-3619047D02*
X38524819Y-3761904D01*
X38524819Y-3761904D02*
X38524819Y-3999999D01*
X38524819Y-2999999D02*
X37524819Y-2999999D01*
X37572438Y-2000000D02*
X37524819Y-2095238D01*
X37524819Y-2095238D02*
X37524819Y-2238095D01*
X37524819Y-2238095D02*
X37572438Y-2380952D01*
X37572438Y-2380952D02*
X37667676Y-2476190D01*
X37667676Y-2476190D02*
X37762914Y-2523809D01*
X37762914Y-2523809D02*
X37953390Y-2571428D01*
X37953390Y-2571428D02*
X38096247Y-2571428D01*
X38096247Y-2571428D02*
X38286723Y-2523809D01*
X38286723Y-2523809D02*
X38381961Y-2476190D01*
X38381961Y-2476190D02*
X38477200Y-2380952D01*
X38477200Y-2380952D02*
X38524819Y-2238095D01*
X38524819Y-2238095D02*
X38524819Y-2142857D01*
X38524819Y-2142857D02*
X38477200Y-2000000D01*
X38477200Y-2000000D02*
X38429580Y-1952381D01*
X38429580Y-1952381D02*
X38096247Y-1952381D01*
X38096247Y-1952381D02*
X38096247Y-2142857D01*
X38620057Y-1761905D02*
X38620057Y-1000000D01*
X38524819Y-761904D02*
X37524819Y-761904D01*
X38001009Y-761904D02*
X38001009Y-190476D01*
X38524819Y-190476D02*
X37524819Y-190476D01*
X24857142Y-10074819D02*
X24857142Y-10789104D01*
X24857142Y-10789104D02*
X24809523Y-10931961D01*
X24809523Y-10931961D02*
X24714285Y-11027200D01*
X24714285Y-11027200D02*
X24571428Y-11074819D01*
X24571428Y-11074819D02*
X24476190Y-11074819D01*
X25095238Y-11170057D02*
X25857142Y-11170057D01*
X26095238Y-11074819D02*
X26095238Y-10074819D01*
X26095238Y-10074819D02*
X26476190Y-10074819D01*
X26476190Y-10074819D02*
X26571428Y-10122438D01*
X26571428Y-10122438D02*
X26619047Y-10170057D01*
X26619047Y-10170057D02*
X26666666Y-10265295D01*
X26666666Y-10265295D02*
X26666666Y-10408152D01*
X26666666Y-10408152D02*
X26619047Y-10503390D01*
X26619047Y-10503390D02*
X26571428Y-10551009D01*
X26571428Y-10551009D02*
X26476190Y-10598628D01*
X26476190Y-10598628D02*
X26095238Y-10598628D01*
X27666666Y-11074819D02*
X27333333Y-10598628D01*
X27095238Y-11074819D02*
X27095238Y-10074819D01*
X27095238Y-10074819D02*
X27476190Y-10074819D01*
X27476190Y-10074819D02*
X27571428Y-10122438D01*
X27571428Y-10122438D02*
X27619047Y-10170057D01*
X27619047Y-10170057D02*
X27666666Y-10265295D01*
X27666666Y-10265295D02*
X27666666Y-10408152D01*
X27666666Y-10408152D02*
X27619047Y-10503390D01*
X27619047Y-10503390D02*
X27571428Y-10551009D01*
X27571428Y-10551009D02*
X27476190Y-10598628D01*
X27476190Y-10598628D02*
X27095238Y-10598628D01*
X28285714Y-10074819D02*
X28476190Y-10074819D01*
X28476190Y-10074819D02*
X28571428Y-10122438D01*
X28571428Y-10122438D02*
X28666666Y-10217676D01*
X28666666Y-10217676D02*
X28714285Y-10408152D01*
X28714285Y-10408152D02*
X28714285Y-10741485D01*
X28714285Y-10741485D02*
X28666666Y-10931961D01*
X28666666Y-10931961D02*
X28571428Y-11027200D01*
X28571428Y-11027200D02*
X28476190Y-11074819D01*
X28476190Y-11074819D02*
X28285714Y-11074819D01*
X28285714Y-11074819D02*
X28190476Y-11027200D01*
X28190476Y-11027200D02*
X28095238Y-10931961D01*
X28095238Y-10931961D02*
X28047619Y-10741485D01*
X28047619Y-10741485D02*
X28047619Y-10408152D01*
X28047619Y-10408152D02*
X28095238Y-10217676D01*
X28095238Y-10217676D02*
X28190476Y-10122438D01*
X28190476Y-10122438D02*
X28285714Y-10074819D01*
X29000000Y-10074819D02*
X29571428Y-10074819D01*
X29285714Y-11074819D02*
X29285714Y-10074819D01*
X30095238Y-10074819D02*
X30285714Y-10074819D01*
X30285714Y-10074819D02*
X30380952Y-10122438D01*
X30380952Y-10122438D02*
X30476190Y-10217676D01*
X30476190Y-10217676D02*
X30523809Y-10408152D01*
X30523809Y-10408152D02*
X30523809Y-10741485D01*
X30523809Y-10741485D02*
X30476190Y-10931961D01*
X30476190Y-10931961D02*
X30380952Y-11027200D01*
X30380952Y-11027200D02*
X30285714Y-11074819D01*
X30285714Y-11074819D02*
X30095238Y-11074819D01*
X30095238Y-11074819D02*
X30000000Y-11027200D01*
X30000000Y-11027200D02*
X29904762Y-10931961D01*
X29904762Y-10931961D02*
X29857143Y-10741485D01*
X29857143Y-10741485D02*
X29857143Y-10408152D01*
X29857143Y-10408152D02*
X29904762Y-10217676D01*
X29904762Y-10217676D02*
X30000000Y-10122438D01*
X30000000Y-10122438D02*
X30095238Y-10074819D01*
X31476190Y-11074819D02*
X30904762Y-11074819D01*
X31190476Y-11074819D02*
X31190476Y-10074819D01*
X31190476Y-10074819D02*
X31095238Y-10217676D01*
X31095238Y-10217676D02*
X31000000Y-10312914D01*
X31000000Y-10312914D02*
X30904762Y-10360533D01*
X16589580Y-51966666D02*
X16637200Y-52014285D01*
X16637200Y-52014285D02*
X16684819Y-52157142D01*
X16684819Y-52157142D02*
X16684819Y-52252380D01*
X16684819Y-52252380D02*
X16637200Y-52395237D01*
X16637200Y-52395237D02*
X16541961Y-52490475D01*
X16541961Y-52490475D02*
X16446723Y-52538094D01*
X16446723Y-52538094D02*
X16256247Y-52585713D01*
X16256247Y-52585713D02*
X16113390Y-52585713D01*
X16113390Y-52585713D02*
X15922914Y-52538094D01*
X15922914Y-52538094D02*
X15827676Y-52490475D01*
X15827676Y-52490475D02*
X15732438Y-52395237D01*
X15732438Y-52395237D02*
X15684819Y-52252380D01*
X15684819Y-52252380D02*
X15684819Y-52157142D01*
X15684819Y-52157142D02*
X15732438Y-52014285D01*
X15732438Y-52014285D02*
X15780057Y-51966666D01*
X16684819Y-51538094D02*
X15684819Y-51538094D01*
X15684819Y-51538094D02*
X16684819Y-50966666D01*
X16684819Y-50966666D02*
X15684819Y-50966666D01*
X16780057Y-50728571D02*
X16780057Y-49966666D01*
X16684819Y-49728570D02*
X15684819Y-49728570D01*
X15684819Y-49728570D02*
X15684819Y-49347618D01*
X15684819Y-49347618D02*
X15732438Y-49252380D01*
X15732438Y-49252380D02*
X15780057Y-49204761D01*
X15780057Y-49204761D02*
X15875295Y-49157142D01*
X15875295Y-49157142D02*
X16018152Y-49157142D01*
X16018152Y-49157142D02*
X16113390Y-49204761D01*
X16113390Y-49204761D02*
X16161009Y-49252380D01*
X16161009Y-49252380D02*
X16208628Y-49347618D01*
X16208628Y-49347618D02*
X16208628Y-49728570D01*
X15684819Y-48823808D02*
X16684819Y-48585713D01*
X16684819Y-48585713D02*
X15970533Y-48395237D01*
X15970533Y-48395237D02*
X16684819Y-48204761D01*
X16684819Y-48204761D02*
X15684819Y-47966666D01*
X16684819Y-47014285D02*
X16208628Y-47347618D01*
X16684819Y-47585713D02*
X15684819Y-47585713D01*
X15684819Y-47585713D02*
X15684819Y-47204761D01*
X15684819Y-47204761D02*
X15732438Y-47109523D01*
X15732438Y-47109523D02*
X15780057Y-47061904D01*
X15780057Y-47061904D02*
X15875295Y-47014285D01*
X15875295Y-47014285D02*
X16018152Y-47014285D01*
X16018152Y-47014285D02*
X16113390Y-47061904D01*
X16113390Y-47061904D02*
X16161009Y-47109523D01*
X16161009Y-47109523D02*
X16208628Y-47204761D01*
X16208628Y-47204761D02*
X16208628Y-47585713D01*
X43074819Y-31452380D02*
X43789104Y-31452380D01*
X43789104Y-31452380D02*
X43931961Y-31499999D01*
X43931961Y-31499999D02*
X44027200Y-31595237D01*
X44027200Y-31595237D02*
X44074819Y-31738094D01*
X44074819Y-31738094D02*
X44074819Y-31833332D01*
X44170057Y-31214285D02*
X44170057Y-30452380D01*
X44027200Y-30261903D02*
X44074819Y-30119046D01*
X44074819Y-30119046D02*
X44074819Y-29880951D01*
X44074819Y-29880951D02*
X44027200Y-29785713D01*
X44027200Y-29785713D02*
X43979580Y-29738094D01*
X43979580Y-29738094D02*
X43884342Y-29690475D01*
X43884342Y-29690475D02*
X43789104Y-29690475D01*
X43789104Y-29690475D02*
X43693866Y-29738094D01*
X43693866Y-29738094D02*
X43646247Y-29785713D01*
X43646247Y-29785713D02*
X43598628Y-29880951D01*
X43598628Y-29880951D02*
X43551009Y-30071427D01*
X43551009Y-30071427D02*
X43503390Y-30166665D01*
X43503390Y-30166665D02*
X43455771Y-30214284D01*
X43455771Y-30214284D02*
X43360533Y-30261903D01*
X43360533Y-30261903D02*
X43265295Y-30261903D01*
X43265295Y-30261903D02*
X43170057Y-30214284D01*
X43170057Y-30214284D02*
X43122438Y-30166665D01*
X43122438Y-30166665D02*
X43074819Y-30071427D01*
X43074819Y-30071427D02*
X43074819Y-29833332D01*
X43074819Y-29833332D02*
X43122438Y-29690475D01*
X44074819Y-29261903D02*
X43074819Y-29261903D01*
X43074819Y-29261903D02*
X43074819Y-28880951D01*
X43074819Y-28880951D02*
X43122438Y-28785713D01*
X43122438Y-28785713D02*
X43170057Y-28738094D01*
X43170057Y-28738094D02*
X43265295Y-28690475D01*
X43265295Y-28690475D02*
X43408152Y-28690475D01*
X43408152Y-28690475D02*
X43503390Y-28738094D01*
X43503390Y-28738094D02*
X43551009Y-28785713D01*
X43551009Y-28785713D02*
X43598628Y-28880951D01*
X43598628Y-28880951D02*
X43598628Y-29261903D01*
X44074819Y-28261903D02*
X43074819Y-28261903D01*
X41074819Y-22833333D02*
X41789104Y-22833333D01*
X41789104Y-22833333D02*
X41931961Y-22880952D01*
X41931961Y-22880952D02*
X42027200Y-22976190D01*
X42027200Y-22976190D02*
X42074819Y-23119047D01*
X42074819Y-23119047D02*
X42074819Y-23214285D01*
X42074819Y-22357142D02*
X41074819Y-22357142D01*
X41074819Y-22357142D02*
X41074819Y-21976190D01*
X41074819Y-21976190D02*
X41122438Y-21880952D01*
X41122438Y-21880952D02*
X41170057Y-21833333D01*
X41170057Y-21833333D02*
X41265295Y-21785714D01*
X41265295Y-21785714D02*
X41408152Y-21785714D01*
X41408152Y-21785714D02*
X41503390Y-21833333D01*
X41503390Y-21833333D02*
X41551009Y-21880952D01*
X41551009Y-21880952D02*
X41598628Y-21976190D01*
X41598628Y-21976190D02*
X41598628Y-22357142D01*
X42074819Y-20833333D02*
X42074819Y-21404761D01*
X42074819Y-21119047D02*
X41074819Y-21119047D01*
X41074819Y-21119047D02*
X41217676Y-21214285D01*
X41217676Y-21214285D02*
X41312914Y-21309523D01*
X41312914Y-21309523D02*
X41360533Y-21404761D01*
D11*
X13546666Y-51379271D02*
X13546666Y-50109271D01*
X13546666Y-50109271D02*
X13970000Y-51016414D01*
X13970000Y-51016414D02*
X14393333Y-50109271D01*
X14393333Y-50109271D02*
X14393333Y-51379271D01*
X14998095Y-51379271D02*
X14998095Y-50109271D01*
X14998095Y-50714033D02*
X15723810Y-50714033D01*
X15723810Y-51379271D02*
X15723810Y-50109271D01*
X16268095Y-50230223D02*
X16328571Y-50169747D01*
X16328571Y-50169747D02*
X16449524Y-50109271D01*
X16449524Y-50109271D02*
X16751905Y-50109271D01*
X16751905Y-50109271D02*
X16872857Y-50169747D01*
X16872857Y-50169747D02*
X16933333Y-50230223D01*
X16933333Y-50230223D02*
X16993810Y-50351175D01*
X16993810Y-50351175D02*
X16993810Y-50472128D01*
X16993810Y-50472128D02*
X16933333Y-50653556D01*
X16933333Y-50653556D02*
X16207619Y-51379271D01*
X16207619Y-51379271D02*
X16993810Y-51379271D01*
%TO.C,CN_AD*%
D12*
X40670000Y-48470000D02*
X42000000Y-48470000D01*
X40670000Y-49800000D02*
X40670000Y-48470000D01*
X43270000Y-48470000D02*
X56030000Y-48470000D01*
X43270000Y-51130000D02*
X43270000Y-48470000D01*
X43270000Y-51130000D02*
X56030000Y-51130000D01*
X56030000Y-51130000D02*
X56030000Y-48470000D01*
%TO.C,J_PROTO4*%
X34240000Y-11620000D02*
X35620000Y-11620000D01*
X34240000Y-13000000D02*
X34240000Y-11620000D01*
X34240000Y-14270000D02*
X34240000Y-42320000D01*
X34240000Y-14270000D02*
X37000000Y-14270000D01*
X34240000Y-42320000D02*
X37000000Y-42320000D01*
X37000000Y-14270000D02*
X37000000Y-42320000D01*
%TO.C,BZ1*%
X55900000Y-12000000D02*
G75*
G02*
X43700000Y-12000000I-6100000J0D01*
G01*
X43700000Y-12000000D02*
G75*
G02*
X55900000Y-12000000I6100000J0D01*
G01*
%TO.C,CN_DIG_L*%
X17670000Y-2170000D02*
X19000000Y-2170000D01*
X17670000Y-3500000D02*
X17670000Y-2170000D01*
X20270000Y-2170000D02*
X38110000Y-2170000D01*
X20270000Y-4830000D02*
X20270000Y-2170000D01*
X20270000Y-4830000D02*
X38110000Y-4830000D01*
X38110000Y-4830000D02*
X38110000Y-2170000D01*
%TO.C,R1*%
X3540000Y-14630000D02*
X10080000Y-14630000D01*
X3540000Y-14960000D02*
X3540000Y-14630000D01*
X3540000Y-17040000D02*
X3540000Y-17370000D01*
X3540000Y-17370000D02*
X10080000Y-17370000D01*
X10080000Y-14630000D02*
X10080000Y-14960000D01*
X10080000Y-17370000D02*
X10080000Y-17040000D01*
%TO.C,D2*%
X17890000Y-26545000D02*
X17890000Y-23455000D01*
X12340000Y-25000000D02*
G75*
G02*
X17890000Y-23455170I2990000J0D01*
G01*
X17890000Y-26544830D02*
G75*
G02*
X12340000Y-25000000I-2560000J1544830D01*
G01*
X17830000Y-25000000D02*
G75*
G02*
X12830000Y-25000000I-2500000J0D01*
G01*
X12830000Y-25000000D02*
G75*
G02*
X17830000Y-25000000I2500000J0D01*
G01*
%TO.C,D1*%
X17890000Y-17545000D02*
X17890000Y-14455000D01*
X12340000Y-16000000D02*
G75*
G02*
X17890000Y-14455170I2990000J0D01*
G01*
X17890000Y-17544830D02*
G75*
G02*
X12340000Y-16000000I-2560000J1544830D01*
G01*
X17830000Y-16000000D02*
G75*
G02*
X12830000Y-16000000I-2500000J0D01*
G01*
X12830000Y-16000000D02*
G75*
G02*
X17830000Y-16000000I2500000J0D01*
G01*
%TO.C,C1*%
X2880000Y-29630000D02*
X8120000Y-29630000D01*
X2880000Y-29967000D02*
X2880000Y-29630000D01*
X2880000Y-32370000D02*
X2880000Y-32033000D01*
X8120000Y-29630000D02*
X8120000Y-29967000D01*
X8120000Y-32033000D02*
X8120000Y-32370000D01*
X8120000Y-32370000D02*
X2880000Y-32370000D01*
%TO.C,C2*%
X2880000Y-35630000D02*
X8120000Y-35630000D01*
X2880000Y-35967000D02*
X2880000Y-35630000D01*
X2880000Y-38370000D02*
X2880000Y-38033000D01*
X8120000Y-35630000D02*
X8120000Y-35967000D01*
X8120000Y-38033000D02*
X8120000Y-38370000D01*
X8120000Y-38370000D02*
X2880000Y-38370000D01*
%TO.C,J_I2C*%
X1620000Y-45380000D02*
X1620000Y-44000000D01*
X3000000Y-45380000D02*
X1620000Y-45380000D01*
X4270000Y-42620000D02*
X12000000Y-42620000D01*
X4270000Y-45380000D02*
X4270000Y-42620000D01*
X4270000Y-45380000D02*
X12000000Y-45380000D01*
X12000000Y-45380000D02*
X12000000Y-42620000D01*
%TO.C,R2*%
X3540000Y-23630000D02*
X10080000Y-23630000D01*
X3540000Y-23960000D02*
X3540000Y-23630000D01*
X3540000Y-26040000D02*
X3540000Y-26370000D01*
X3540000Y-26370000D02*
X10080000Y-26370000D01*
X10080000Y-23630000D02*
X10080000Y-23960000D01*
X10080000Y-26370000D02*
X10080000Y-26040000D01*
%TO.C,C3*%
X12195225Y-31525000D02*
X12695225Y-31525000D01*
X12445225Y-31275000D02*
X12445225Y-31775000D01*
X15000000Y-30420000D02*
X15000000Y-31960000D01*
X15000000Y-34040000D02*
X15000000Y-35580000D01*
X15040000Y-30420000D02*
X15040000Y-31960000D01*
X15040000Y-34040000D02*
X15040000Y-35580000D01*
X15080000Y-30421000D02*
X15080000Y-31960000D01*
X15080000Y-34040000D02*
X15080000Y-35579000D01*
X15120000Y-30423000D02*
X15120000Y-31960000D01*
X15120000Y-34040000D02*
X15120000Y-35577000D01*
X15160000Y-30425000D02*
X15160000Y-31960000D01*
X15160000Y-34040000D02*
X15160000Y-35575000D01*
X15200000Y-30428000D02*
X15200000Y-31960000D01*
X15200000Y-34040000D02*
X15200000Y-35572000D01*
X15240000Y-30431000D02*
X15240000Y-31960000D01*
X15240000Y-34040000D02*
X15240000Y-35569000D01*
X15280000Y-30435000D02*
X15280000Y-31960000D01*
X15280000Y-34040000D02*
X15280000Y-35565000D01*
X15320000Y-30440000D02*
X15320000Y-31960000D01*
X15320000Y-34040000D02*
X15320000Y-35560000D01*
X15360000Y-30445000D02*
X15360000Y-31960000D01*
X15360000Y-34040000D02*
X15360000Y-35555000D01*
X15400000Y-30451000D02*
X15400000Y-31960000D01*
X15400000Y-34040000D02*
X15400000Y-35549000D01*
X15440000Y-30457000D02*
X15440000Y-31960000D01*
X15440000Y-34040000D02*
X15440000Y-35543000D01*
X15480000Y-30464000D02*
X15480000Y-31960000D01*
X15480000Y-34040000D02*
X15480000Y-35536000D01*
X15520000Y-30472000D02*
X15520000Y-31960000D01*
X15520000Y-34040000D02*
X15520000Y-35528000D01*
X15560000Y-30481000D02*
X15560000Y-31960000D01*
X15560000Y-34040000D02*
X15560000Y-35519000D01*
X15600000Y-30490000D02*
X15600000Y-31960000D01*
X15600000Y-34040000D02*
X15600000Y-35510000D01*
X15640000Y-30499000D02*
X15640000Y-31960000D01*
X15640000Y-34040000D02*
X15640000Y-35501000D01*
X15680000Y-30510000D02*
X15680000Y-31960000D01*
X15680000Y-34040000D02*
X15680000Y-35490000D01*
X15720000Y-30521000D02*
X15720000Y-31960000D01*
X15720000Y-34040000D02*
X15720000Y-35479000D01*
X15760000Y-30533000D02*
X15760000Y-31960000D01*
X15760000Y-34040000D02*
X15760000Y-35467000D01*
X15800000Y-30545000D02*
X15800000Y-31960000D01*
X15800000Y-34040000D02*
X15800000Y-35455000D01*
X15840000Y-30558000D02*
X15840000Y-31960000D01*
X15840000Y-34040000D02*
X15840000Y-35442000D01*
X15880000Y-30572000D02*
X15880000Y-31960000D01*
X15880000Y-34040000D02*
X15880000Y-35428000D01*
X15920000Y-30587000D02*
X15920000Y-31960000D01*
X15920000Y-34040000D02*
X15920000Y-35413000D01*
X15960000Y-30602000D02*
X15960000Y-31960000D01*
X15960000Y-34040000D02*
X15960000Y-35398000D01*
X16000000Y-30618000D02*
X16000000Y-31960000D01*
X16000000Y-34040000D02*
X16000000Y-35382000D01*
X16040000Y-30635000D02*
X16040000Y-31960000D01*
X16040000Y-34040000D02*
X16040000Y-35365000D01*
X16080000Y-30653000D02*
X16080000Y-31960000D01*
X16080000Y-34040000D02*
X16080000Y-35347000D01*
X16120000Y-30671000D02*
X16120000Y-31960000D01*
X16120000Y-34040000D02*
X16120000Y-35329000D01*
X16160000Y-30691000D02*
X16160000Y-31960000D01*
X16160000Y-34040000D02*
X16160000Y-35309000D01*
X16200000Y-30711000D02*
X16200000Y-31960000D01*
X16200000Y-34040000D02*
X16200000Y-35289000D01*
X16240000Y-30732000D02*
X16240000Y-31960000D01*
X16240000Y-34040000D02*
X16240000Y-35268000D01*
X16280000Y-30754000D02*
X16280000Y-31960000D01*
X16280000Y-34040000D02*
X16280000Y-35246000D01*
X16320000Y-30777000D02*
X16320000Y-31960000D01*
X16320000Y-34040000D02*
X16320000Y-35223000D01*
X16360000Y-30801000D02*
X16360000Y-31960000D01*
X16360000Y-34040000D02*
X16360000Y-35199000D01*
X16400000Y-30825000D02*
X16400000Y-31960000D01*
X16400000Y-34040000D02*
X16400000Y-35175000D01*
X16440000Y-30851000D02*
X16440000Y-31960000D01*
X16440000Y-34040000D02*
X16440000Y-35149000D01*
X16480000Y-30878000D02*
X16480000Y-31960000D01*
X16480000Y-34040000D02*
X16480000Y-35122000D01*
X16520000Y-30906000D02*
X16520000Y-31960000D01*
X16520000Y-34040000D02*
X16520000Y-35094000D01*
X16560000Y-30935000D02*
X16560000Y-31960000D01*
X16560000Y-34040000D02*
X16560000Y-35065000D01*
X16600000Y-30965000D02*
X16600000Y-31960000D01*
X16600000Y-34040000D02*
X16600000Y-35035000D01*
X16640000Y-30997000D02*
X16640000Y-31960000D01*
X16640000Y-34040000D02*
X16640000Y-35003000D01*
X16680000Y-31030000D02*
X16680000Y-31960000D01*
X16680000Y-34040000D02*
X16680000Y-34970000D01*
X16720000Y-31064000D02*
X16720000Y-31960000D01*
X16720000Y-34040000D02*
X16720000Y-34936000D01*
X16760000Y-31099000D02*
X16760000Y-31960000D01*
X16760000Y-34040000D02*
X16760000Y-34901000D01*
X16800000Y-31136000D02*
X16800000Y-31960000D01*
X16800000Y-34040000D02*
X16800000Y-34864000D01*
X16840000Y-31175000D02*
X16840000Y-31960000D01*
X16840000Y-34040000D02*
X16840000Y-34825000D01*
X16880000Y-31215000D02*
X16880000Y-31960000D01*
X16880000Y-34040000D02*
X16880000Y-34785000D01*
X16920000Y-31257000D02*
X16920000Y-31960000D01*
X16920000Y-34040000D02*
X16920000Y-34743000D01*
X16960000Y-31301000D02*
X16960000Y-31960000D01*
X16960000Y-34040000D02*
X16960000Y-34699000D01*
X17000000Y-31348000D02*
X17000000Y-31960000D01*
X17000000Y-34040000D02*
X17000000Y-34652000D01*
X17040000Y-31396000D02*
X17040000Y-34604000D01*
X17080000Y-31447000D02*
X17080000Y-34553000D01*
X17120000Y-31501000D02*
X17120000Y-34499000D01*
X17160000Y-31557000D02*
X17160000Y-34443000D01*
X17200000Y-31617000D02*
X17200000Y-34383000D01*
X17240000Y-31681000D02*
X17240000Y-34319000D01*
X17280000Y-31749000D02*
X17280000Y-34251000D01*
X17320000Y-31823000D02*
X17320000Y-34177000D01*
X17360000Y-31902000D02*
X17360000Y-34098000D01*
X17400000Y-31989000D02*
X17400000Y-34011000D01*
X17440000Y-32086000D02*
X17440000Y-33914000D01*
X17480000Y-32195000D02*
X17480000Y-33805000D01*
X17520000Y-32323000D02*
X17520000Y-33677000D01*
X17560000Y-32483000D02*
X17560000Y-33517000D01*
X17600000Y-32717000D02*
X17600000Y-33283000D01*
X17620000Y-33000000D02*
G75*
G02*
X12380000Y-33000000I-2620000J0D01*
G01*
X12380000Y-33000000D02*
G75*
G02*
X17620000Y-33000000I2620000J0D01*
G01*
%TO.C,J_PROTO2*%
X29160000Y-11620000D02*
X30540000Y-11620000D01*
X29160000Y-13000000D02*
X29160000Y-11620000D01*
X29160000Y-14270000D02*
X29160000Y-42320000D01*
X29160000Y-14270000D02*
X31920000Y-14270000D01*
X29160000Y-42320000D02*
X31920000Y-42320000D01*
X31920000Y-14270000D02*
X31920000Y-42320000D01*
%TO.C,J_PROTO3*%
X31700000Y-11620000D02*
X33080000Y-11620000D01*
X31700000Y-13000000D02*
X31700000Y-11620000D01*
X31700000Y-14270000D02*
X31700000Y-42320000D01*
X31700000Y-14270000D02*
X34460000Y-14270000D01*
X31700000Y-42320000D02*
X34460000Y-42320000D01*
X34460000Y-14270000D02*
X34460000Y-42320000D01*
%TO.C,S1*%
X2750000Y-9500000D02*
X2750000Y-11000000D01*
X4000000Y-13500000D02*
X8500000Y-13500000D01*
X8500000Y-7000000D02*
X4000000Y-7000000D01*
X9750000Y-11000000D02*
X9750000Y-9500000D01*
%TO.C,CN_DIG_H*%
X39510000Y-2170000D02*
X40840000Y-2170000D01*
X39510000Y-3500000D02*
X39510000Y-2170000D01*
X42110000Y-2170000D02*
X65030000Y-2170000D01*
X42110000Y-4830000D02*
X42110000Y-2170000D01*
X42110000Y-4830000D02*
X65030000Y-4830000D01*
X65030000Y-4830000D02*
X65030000Y-2170000D01*
%TO.C,J_PROTO1*%
X26620000Y-11620000D02*
X28000000Y-11620000D01*
X26620000Y-13000000D02*
X26620000Y-11620000D01*
X26620000Y-14270000D02*
X26620000Y-42320000D01*
X26620000Y-14270000D02*
X29380000Y-14270000D01*
X26620000Y-42320000D02*
X29380000Y-42320000D01*
X29380000Y-14270000D02*
X29380000Y-42320000D01*
%TO.C,CN_PWR*%
X17670000Y-48470000D02*
X19000000Y-48470000D01*
X17670000Y-49800000D02*
X17670000Y-48470000D01*
X20270000Y-48470000D02*
X38110000Y-48470000D01*
X20270000Y-51130000D02*
X20270000Y-48470000D01*
X20270000Y-51130000D02*
X38110000Y-51130000D01*
X38110000Y-51130000D02*
X38110000Y-48470000D01*
%TO.C,J_SPI*%
X44620000Y-31380000D02*
X44620000Y-30000000D01*
X46000000Y-31380000D02*
X44620000Y-31380000D01*
X47270000Y-28620000D02*
X60080000Y-28620000D01*
X47270000Y-31380000D02*
X47270000Y-28620000D01*
X47270000Y-31380000D02*
X60080000Y-31380000D01*
X60080000Y-31380000D02*
X60080000Y-28620000D01*
%TO.C,JP1*%
X42620000Y-23380000D02*
X42620000Y-22000000D01*
X44000000Y-23380000D02*
X42620000Y-23380000D01*
X45270000Y-20620000D02*
X47920000Y-20620000D01*
X45270000Y-23380000D02*
X45270000Y-20620000D01*
X45270000Y-23380000D02*
X47920000Y-23380000D01*
X47920000Y-23380000D02*
X47920000Y-20620000D01*
%TD*%
M02*
