%TF.GenerationSoftware,KiCad,Pcbnew,10.0.4*%
%TF.CreationDate,2026-07-28T02:35:38+02:00*%
%TF.ProjectId,ArduinoUnoProtoShield,41726475-696e-46f5-956e-6f50726f746f,rev?*%
%TF.SameCoordinates,Original*%
%TF.FileFunction,Soldermask,Bot*%
%TF.FilePolarity,Negative*%
%FSLAX46Y46*%
G04 Gerber Fmt 4.6, Leading zero omitted, Abs format (unit mm)*
G04 Created by KiCad (PCBNEW 10.0.4) date 2026-07-28 02:35:38*
%MOMM*%
%LPD*%
G01*
G04 APERTURE LIST*
G04 Aperture macros list*
%AMRoundRect*
0 Rectangle with rounded corners*
0 $1 Rounding radius*
0 $2 $3 $4 $5 $6 $7 $8 $9 X,Y pos of 4 corners*
0 Add a 4 corners polygon primitive as box body*
4,1,4,$2,$3,$4,$5,$6,$7,$8,$9,$2,$3,0*
0 Add four circle primitives for the rounded corners*
1,1,$1+$1,$2,$3*
1,1,$1+$1,$4,$5*
1,1,$1+$1,$6,$7*
1,1,$1+$1,$8,$9*
0 Add four rect primitives between the rounded corners*
20,1,$1+$1,$2,$3,$4,$5,0*
20,1,$1+$1,$4,$5,$6,$7,0*
20,1,$1+$1,$6,$7,$8,$9,0*
20,1,$1+$1,$8,$9,$2,$3,0*%
G04 Aperture macros list end*
%ADD10R,1.700000X1.700000*%
%ADD11C,1.700000*%
%ADD12R,2.000000X2.000000*%
%ADD13C,2.000000*%
%ADD14C,1.600000*%
%ADD15R,1.800000X1.800000*%
%ADD16C,1.800000*%
%ADD17C,4.200000*%
%ADD18RoundRect,0.250000X-0.550000X-0.550000X0.550000X-0.550000X0.550000X0.550000X-0.550000X0.550000X0*%
G04 APERTURE END LIST*
D10*
%TO.C,CN_AD*%
X42000000Y-49800000D03*
D11*
X44540000Y-49800000D03*
X47080000Y-49800000D03*
X49620000Y-49800000D03*
X52160000Y-49800000D03*
X54700000Y-49800000D03*
%TD*%
D10*
%TO.C,J_PROTO4*%
X35620000Y-13000000D03*
D11*
X35620000Y-15540000D03*
X35620000Y-18080000D03*
X35620000Y-20620000D03*
X35620000Y-23160000D03*
X35620000Y-25700000D03*
X35620000Y-28240000D03*
X35620000Y-30780000D03*
X35620000Y-33320000D03*
X35620000Y-35860000D03*
X35620000Y-38400000D03*
X35620000Y-40940000D03*
%TD*%
D12*
%TO.C,BZ1*%
X46000000Y-12000000D03*
D13*
X53600000Y-12000000D03*
%TD*%
D10*
%TO.C,CN_DIG_L*%
X19000000Y-3500000D03*
D11*
X21540000Y-3500000D03*
X24080000Y-3500000D03*
X26620000Y-3500000D03*
X29160000Y-3500000D03*
X31700000Y-3500000D03*
X34240000Y-3500000D03*
X36780000Y-3500000D03*
%TD*%
D14*
%TO.C,R1*%
X3000000Y-16000000D03*
X10620000Y-16000000D03*
%TD*%
D15*
%TO.C,D2*%
X16600000Y-25000000D03*
D16*
X14060000Y-25000000D03*
%TD*%
D17*
%TO.C,MH4*%
X66040000Y-35560000D03*
%TD*%
D15*
%TO.C,D1*%
X16600000Y-16000000D03*
D16*
X14060000Y-16000000D03*
%TD*%
D14*
%TO.C,C1*%
X3000000Y-31000000D03*
X8000000Y-31000000D03*
%TD*%
D17*
%TO.C,MH1*%
X13970000Y-2540000D03*
%TD*%
D14*
%TO.C,C2*%
X3000000Y-37000000D03*
X8000000Y-37000000D03*
%TD*%
D10*
%TO.C,J_I2C*%
X3000000Y-44000000D03*
D11*
X5540000Y-44000000D03*
X8080000Y-44000000D03*
X10620000Y-44000000D03*
%TD*%
D14*
%TO.C,R2*%
X3000000Y-25000000D03*
X10620000Y-25000000D03*
%TD*%
D17*
%TO.C,MH3*%
X66040000Y-7620000D03*
%TD*%
D18*
%TO.C,C3*%
X14000000Y-33000000D03*
D14*
X16000000Y-33000000D03*
%TD*%
D10*
%TO.C,J_PROTO2*%
X30540000Y-13000000D03*
D11*
X30540000Y-15540000D03*
X30540000Y-18080000D03*
X30540000Y-20620000D03*
X30540000Y-23160000D03*
X30540000Y-25700000D03*
X30540000Y-28240000D03*
X30540000Y-30780000D03*
X30540000Y-33320000D03*
X30540000Y-35860000D03*
X30540000Y-38400000D03*
X30540000Y-40940000D03*
%TD*%
D10*
%TO.C,J_PROTO3*%
X33080000Y-13000000D03*
D11*
X33080000Y-15540000D03*
X33080000Y-18080000D03*
X33080000Y-20620000D03*
X33080000Y-23160000D03*
X33080000Y-25700000D03*
X33080000Y-28240000D03*
X33080000Y-30780000D03*
X33080000Y-33320000D03*
X33080000Y-35860000D03*
X33080000Y-38400000D03*
X33080000Y-40940000D03*
%TD*%
D13*
%TO.C,S1*%
X3000000Y-8000000D03*
X9500000Y-8000000D03*
X3000000Y-12500000D03*
X9500000Y-12500000D03*
%TD*%
D10*
%TO.C,CN_DIG_H*%
X40840000Y-3500000D03*
D11*
X43380000Y-3500000D03*
X45920000Y-3500000D03*
X48460000Y-3500000D03*
X51000000Y-3500000D03*
X53540000Y-3500000D03*
X56080000Y-3500000D03*
X58620000Y-3500000D03*
X61160000Y-3500000D03*
X63700000Y-3500000D03*
%TD*%
D10*
%TO.C,J_PROTO1*%
X28000000Y-13000000D03*
D11*
X28000000Y-15540000D03*
X28000000Y-18080000D03*
X28000000Y-20620000D03*
X28000000Y-23160000D03*
X28000000Y-25700000D03*
X28000000Y-28240000D03*
X28000000Y-30780000D03*
X28000000Y-33320000D03*
X28000000Y-35860000D03*
X28000000Y-38400000D03*
X28000000Y-40940000D03*
%TD*%
D10*
%TO.C,CN_PWR*%
X19000000Y-49800000D03*
D11*
X21540000Y-49800000D03*
X24080000Y-49800000D03*
X26620000Y-49800000D03*
X29160000Y-49800000D03*
X31700000Y-49800000D03*
X34240000Y-49800000D03*
X36780000Y-49800000D03*
%TD*%
D10*
%TO.C,J_SPI*%
X46000000Y-30000000D03*
D11*
X48540000Y-30000000D03*
X51080000Y-30000000D03*
X53620000Y-30000000D03*
X56160000Y-30000000D03*
X58700000Y-30000000D03*
%TD*%
D10*
%TO.C,JP1*%
X44000000Y-22000000D03*
D11*
X46540000Y-22000000D03*
%TD*%
D17*
%TO.C,MH2*%
X15240000Y-50800000D03*
%TD*%
M02*
