M48
; DRILL file KiCad 10.0.4 date 2026-07-28T02:35:39
; FORMAT={-:-/ absolute / metric / decimal}
; #@! TF.CreationDate,2026-07-28T02:35:39+02:00
; #@! TF.GenerationSoftware,Kicad,Pcbnew,10.0.4
; #@! TF.FileFunction,MixedPlating,1,4
FMAT,2
METRIC
; #@! TA.AperFunction,Plated,PTH,ViaDrill
T1C0.300
; #@! TA.AperFunction,Plated,PTH,ComponentDrill
T2C0.800
; #@! TA.AperFunction,Plated,PTH,ComponentDrill
T3C0.900
; #@! TA.AperFunction,Plated,PTH,ComponentDrill
T4C1.000
; #@! TA.AperFunction,Plated,PTH,ComponentDrill
T5C1.100
; #@! TA.AperFunction,NonPlated,NPTH,ComponentDrill
T6C3.200
%
G90
G05
T1
X48.41Y-22.191
X49.258Y-25.163
X52.704Y-27.668
T2
X3.0Y-16.0
X3.0Y-25.0
X3.0Y-31.0
X3.0Y-37.0
X8.0Y-31.0
X8.0Y-37.0
X10.62Y-16.0
X10.62Y-25.0
X14.0Y-33.0
X16.0Y-33.0
T3
X14.06Y-16.0
X14.06Y-25.0
X16.6Y-16.0
X16.6Y-25.0
T4
X3.0Y-44.0
X5.54Y-44.0
X8.08Y-44.0
X10.62Y-44.0
X19.0Y-3.5
X19.0Y-49.8
X21.54Y-3.5
X21.54Y-49.8
X24.08Y-3.5
X24.08Y-49.8
X26.62Y-3.5
X26.62Y-49.8
X28.0Y-13.0
X28.0Y-15.54
X28.0Y-18.08
X28.0Y-20.62
X28.0Y-23.16
X28.0Y-25.7
X28.0Y-28.24
X28.0Y-30.78
X28.0Y-33.32
X28.0Y-35.86
X28.0Y-38.4
X28.0Y-40.94
X29.16Y-3.5
X29.16Y-49.8
X30.54Y-13.0
X30.54Y-15.54
X30.54Y-18.08
X30.54Y-20.62
X30.54Y-23.16
X30.54Y-25.7
X30.54Y-28.24
X30.54Y-30.78
X30.54Y-33.32
X30.54Y-35.86
X30.54Y-38.4
X30.54Y-40.94
X31.7Y-3.5
X31.7Y-49.8
X33.08Y-13.0
X33.08Y-15.54
X33.08Y-18.08
X33.08Y-20.62
X33.08Y-23.16
X33.08Y-25.7
X33.08Y-28.24
X33.08Y-30.78
X33.08Y-33.32
X33.08Y-35.86
X33.08Y-38.4
X33.08Y-40.94
X34.24Y-3.5
X34.24Y-49.8
X35.62Y-13.0
X35.62Y-15.54
X35.62Y-18.08
X35.62Y-20.62
X35.62Y-23.16
X35.62Y-25.7
X35.62Y-28.24
X35.62Y-30.78
X35.62Y-33.32
X35.62Y-35.86
X35.62Y-38.4
X35.62Y-40.94
X36.78Y-3.5
X36.78Y-49.8
X40.84Y-3.5
X42.0Y-49.8
X43.38Y-3.5
X44.0Y-22.0
X44.54Y-49.8
X45.92Y-3.5
X46.0Y-12.0
X46.0Y-30.0
X46.54Y-22.0
X47.08Y-49.8
X48.46Y-3.5
X48.54Y-30.0
X49.62Y-49.8
X51.0Y-3.5
X51.08Y-30.0
X52.16Y-49.8
X53.54Y-3.5
X53.6Y-12.0
X53.62Y-30.0
X54.7Y-49.8
X56.08Y-3.5
X56.16Y-30.0
X58.62Y-3.5
X58.7Y-30.0
X61.16Y-3.5
X63.7Y-3.5
T5
X3.0Y-8.0
X3.0Y-12.5
X9.5Y-8.0
X9.5Y-12.5
T6
X13.97Y-2.54
X15.24Y-50.8
X66.04Y-7.62
X66.04Y-35.56
M30
